**ABCDEFGHIJKLMNOPQRSTUVWXYZabcdefghijklmnopqrstuvwxyz**************************
**PARASOLID !"#$%&'()*+,-./:;<=>?@[\]^_`{|}~0123456789**************************
**PART1;
MC=x64/Windows NT;
MC_MODEL=genuineintel family 6 model 10 stepping 5, intel(r) xeon(r) cpu           w3550  @ 3.07ghz;
MC_ID=pc1401;
OS=windows nt (x64);
OS_RELEASE=6.1 windows 7 professional (build 7601) service pack 1;
FRU=mdc_ugii_v7.0_djl_can_vrh;
APPL=unigraphics;
SITE=unknown;
USER=huge;
FORMAT=text;
GUISE=transmit;
KEY=15-A_3;
FILE=D:\Daten-Huge\PLM_Export\A_Internet_Modelle\Getriebe\15-x\15-A\15-A_3.x_t;
DATE=19-aug-2016;
**PART2;
SCH=SCH_2701211_26105;
USFLD_SIZE=0;
**PART3;
**END_OF_HEADER*****************************************************************
T51 : TRANSMIT FILE created by modeller version 270121123 SCH_2701211_26105_1300
6200 0 12 30 CCCCCCCCCCCCCDI5 owner1040 0 CCCCCCCCCA13 boundary_mesh1006 0 A16 i
ndex_map_offset0 0 1 dA9 index_map82 0 A17 node_id_index_map82 0 A20 schema_embe
dding_map82 0 A5 child12 0 A14 lowest_node_id0 0 1 dZ1 3167 2 3 0 0 0 0 1e3 1e-8
 0 0 0 1 0 1 1 4 5 6 0 7 8 0 0 0 0 0 0 0 0 81 255 1 2 3167 9 1 10 0 0 0 11 70 11
 CI9 list_type0 0 1 uI10 notransmit0 0 1 lCCCDCCDI12 finger_index0 0 1 dI12 fing
er_block1012 0 CZ3 0 4 T1 0 0 5 20 1 12 12 13 255 4 3 0 1 0 13 0 0 14 0 52 255 5
 205 0 15 16 0 0 +0 0 .0126 0 0 -1 .0013601077025535 .4226182617406995 .90630778
703665 -1 0 0 133 255 6 814 0 17 18 0 0 +18 -.0059037401206902 -.003761097258427
77 -.0194 -.0059037401206902 -.00376109725842777 -.0194 5.71595330028143 11.9991
3860746102 19 8 CCCCCCCA5 owner12 0 Z7 1 0 1 14 0 19 V0 16 255 8 2998 20 ?21 0 2
2 23 0 0 1 81 1 20 3077 24 8 0 0 25 26 27 17 255 21 0 28 21 21 0 29 8 0 0 +16 22
 182 30 ?31 8 32 33 0 0 1 31 255 23 3054 0 8 34 35 0 +0 0 -.01915 0 0 -1 1 12246
46799147352e-31 0 .006 31 34 3055 0 36 37 23 0 +0 0 -.01935 0 0 -1 1 12246467991
47352e-31 0 .002824 31 35 3053 0 38 23 39 0 +0 0 -.01915 0 0 -1 1 12246467991473
52e-31 0 .002824 16 38 3025 25 ?40 41 0 35 0 0 1 31 39 767 0 42 35 43 0 +0 0 -.0
1315980762113532 0 0 -1 -1 0 0 .007 16 42 716 44 ?45 46 17 39 0 0 1 31 43 766 0
 46 39 47 0 +0 0 -.0129 0 0 -1 -1 0 0 .00685 16 46 714 48 ?49 50 42 43 0 0 1 31
 47 765 0 50 43 51 0 +0 0 -.0117 0 0 -1 -1 0 0 .00685 16 50 712 52 ?53 54 46 47
 0 0 1 31 51 764 0 54 47 55 0 +0 0 -.0117 0 0 -1 -1 0 0 .0075 16 54 708 56 ?57 5
8 50 51 0 0 1 31 55 667 0 58 51 59 0 +0 0 -.0147 0 0 1 1 0 0 .002724 16 58 641 6
0 ?61 62 54 55 0 0 1 31 59 612 0 63 55 64 0 +0 0 -.01915 0 0 1 1 0 0 .0064 16 63
 591 65 ?66 67 68 59 0 0 1 31 64 572 0 67 59 69 0 +.0055 -156173415923117e-32 0
 0 0 -1 1 -1224646799147352e-31 0 9e-4 16 67 543 70 ?71 72 63 64 0 0 1 31 69 571
 0 72 64 73 0 +.0055 -156173415923117e-32 -6e-4 0 0 -1 1 -1224646799147352e-31 0
 9e-4 16 72 542 74 ?75 76 67 69 0 0 1 31 73 570 0 76 69 77 0 +.0055 -15617341592
3117e-32 -6e-4 0 0 -1 1 -1224646799147352e-31 0 74e-5 16 76 541 78 ?79 80 72 73
 0 0 1 31 77 569 0 80 73 81 0 +.0055 -156173415923117e-32 -.004 0 0 -1 1 -122464
6799147352e-31 0 74e-5 16 80 540 82 ?83 84 76 77 0 0 1 31 81 522 0 84 77 85 0 +-
.0055 888178419700125e-33 0 0 0 -1 -1 0 0 9e-4 16 84 493 86 ?87 88 80 81 0 0 1 3
1 85 521 0 88 81 89 0 +-.0055 888178419700125e-33 -6e-4 0 0 -1 -1 0 0 9e-4 16 88
 492 90 ?91 92 84 85 0 0 1 31 89 520 0 92 85 93 0 +-.0055 888178419700125e-33 -6
e-4 0 0 -1 -1 0 0 74e-5 16 92 491 94 ?95 96 88 89 0 0 1 31 93 519 0 96 89 97 0 +
-.0055 888178419700125e-33 -.004 0 0 -1 -1 0 0 74e-5 16 96 490 98 ?99 100 92 93
 0 0 1 31 97 435 0 101 93 102 0 -2224492873652695e-38 .0055 -1e-5 0 0 -1 1 12246
46799147352e-31 0 .0016 16 101 400 103 ?104 105 106 97 0 0 1 31 102 434 0 105 97
 107 0 -2224492873652695e-38 .0055 -1e-5 0 0 -1 1 1224646799147352e-31 0 .00155
 16 105 398 108 ?109 110 101 102 0 0 1 31 107 433 0 100 102 111 0 +2224492873652
695e-38 .0055 0 0 0 -1 1 1224646799147352e-31 0 .0016 16 100 394 112 ?113 106 96
 107 0 0 1 31 111 432 0 106 107 114 0 +2224492873652695e-38 .0055 0 0 0 -1 1 122
4646799147352e-31 0 .00155 16 106 402 115 ?116 101 100 111 0 0 1 31 114 370 0 11
7 111 118 0 -222449287365131e-37 -.0055 -1e-5 0 0 1 1 0 0 .0016 16 117 329 119 ?
120 121 122 114 0 0 1 31 118 369 0 121 114 123 0 -222449287365131e-37 -.0055 -1e
-5 0 0 1 1 0 0 .00155 16 121 335 124 ?125 126 117 118 0 0 1 31 123 368 0 110 118
 127 0 +222449287365131e-37 -.0055 0 0 0 1 1 0 0 .0016 16 110 337 128 ?129 122 1
05 123 0 0 1 31 127 367 0 122 123 130 0 +222449287365131e-37 -.0055 0 0 0 1 1 0
 0 .00155 16 122 331 131 ?132 117 110 127 0 0 1 31 130 279 0 133 127 134 0 +2224
492873652695e-38 -.0055 -.004 0 0 -1 1 -1224606353822376e-31 0 8e-4 16 133 261 1
35 ?136 137 126 130 0 0 1 31 134 278 0 126 130 138 0 +2224492873652695e-38 -.005
5 0 0 0 -1 1 -1224606353822376e-31 0 8e-4 16 126 262 139 ?140 133 121 134 0 0 1
 31 138 245 0 141 134 142 0 +-673555739531044e-33 .0055 -.004 0 0 -1 -1 0 0 8e-4
 16 141 227 143 ?144 145 137 138 0 0 1 31 142 244 0 137 138 146 0 +-673555739531
044e-33 .0055 0 0 0 -1 -1 0 0 8e-4 16 137 228 147 ?148 141 133 142 0 0 1 31 146
 93 0 149 142 150 0 +433680868994202e-33 0 .0026 0 0 1 1 0 0 .003 16 149 71 151
 ?152 153 145 146 0 0 1 31 150 57 0 153 146 154 0 +0 0 .001 0 0 -1 -1 0 0 .0035
 16 153 41 155 ?156 157 149 150 0 0 1 31 154 10 0 157 150 158 0 +0 0 0 0 0 -1 -1
 0 0 .0075 16 157 6 159 ?160 161 153 154 0 0 1 31 158 33 0 161 154 162 0 +0 0 0
 0 0 1 1 0 0 .0035 16 161 30 163 ?164 165 157 158 0 0 1 31 162 63 0 165 158 166
 0 +433680868994202e-33 0 .001 0 0 1 1 0 0 .003 16 165 60 167 ?168 32 161 162 0
 0 1 31 166 119 0 145 162 169 0 -0 0 .0026 0 0 1 1 0 0 .0015 16 145 129 170 ?171
 149 141 166 0 0 1 31 169 177 0 32 166 33 0 +0 0 .0126 0 0 1 1 0 0 .001360107702
5535 16 32 174 172 ?173 22 165 169 0 0 1 31 33 185 0 22 169 174 0 -0 0 .0123 0 0
 1 1 0 0 .0015 31 174 630 0 62 33 175 0 +0 0 -.01915 0 0 1 1 0 0 .002724 16 62 6
40 176 ?177 68 58 174 0 0 1 31 175 801 0 1 174 178 179 +0 0 -.0194 0 0 1 1 0 0 .
0064 133 178 805 0 68 175 18 0 +175 -.00624829444556758 -.001385213529203856 -.0
194 -.00624829444556758 -.001385213529203856 -.0194 3.359758810089085 9.64294411
726867 141 255 179 178 179 179 175 16 68 592 180 ?181 63 62 178 0 0 1 31 18 810
 0 1 178 6 182 +0 0 -.0194 0 0 -1 -1 0 0 .007 141 182 6 182 182 18 81 1 180 2923
 24 68 0 0 183 176 184 17 181 0 185 181 181 0 186 68 0 0 +15 255 185 2892 0 181
 13 187 17 186 0 188 186 186 0 181 68 0 0 -15 188 605 0 186 189 0 14 255 189 601
 190 ?191 192 193 4 194 -0 0 191 192 19 81 1 190 3154 195 189 196 0 197 198 199
 14 191 3029 198 ?200 189 201 4 202 -0 0 200 189 19 14 192 593 197 ?189 203 204
 4 205 -206 206 189 203 19 15 193 604 0 66 189 188 51 255 194 608 0 189 205 207
 0 +0 0 -.0194 0 0 1 .0064 1 0 0 13 19 4 0 0 0 0 0 0 7 13 14 13 15 208 ?209 0 18
5 4 210 +0 0 209 0 19 81 1 208 3084 195 13 211 0 0 212 213 14 209 386 212 ?214 1
3 215 4 216 +217 218 214 13 19 50 255 210 17 0 13 216 16 0 +0 0 -.0194 0 0 -1 -1
 0 0 50 216 11 0 218 219 210 0 +0 0 0 0 0 1 1 0 0 51 16 18 0 220 210 5 0 +0 0 0
 0 0 -1 .0075 -1 0 0 14 220 2 221 ?222 214 223 4 16 +0 0 222 214 19 81 1 221 309
0 195 220 224 0 225 226 227 14 222 43 226 ?228 220 229 4 230 +0 0 228 220 19 14
 214 77 225 ?220 209 231 4 232 +0 0 220 209 19 15 223 690 0 233 220 234 17 233 0
 223 233 233 0 57 54 0 0 -15 234 7 0 160 220 0 17 160 0 234 160 160 0 235 157 0
 0 +17 235 0 236 235 235 0 160 157 0 0 -15 236 8 0 235 209 237 15 237 384 0 113
 209 0 17 113 0 237 113 113 0 238 100 0 0 +17 238 0 239 238 238 0 113 100 0 0 -1
5 239 410 0 238 240 0 14 240 406 241 ?242 217 243 4 244 +0 0 242 217 19 81 1 241
 3116 195 240 245 0 246 247 248 14 242 411 247 ?249 240 250 4 251 -0 0 249 240 1
9 14 217 315 246 ?240 252 253 4 216 +218 209 240 252 19 15 243 409 0 254 240 239
 51 244 428 0 240 251 255 0 -2224492873652695e-38 .0055 -1e-5 0 0 1 .0016 1 0 0
 51 251 429 0 242 256 244 0 -2224492873652695e-38 .0055 -1e-5 0 0 1 .00155 1 0 0
 50 255 366 0 257 244 258 0 +222449287365131e-37 -.0055 -1e-5 0 0 1 1 0 0 14 257
 351 259 ?260 261 262 4 255 +0 0 260 261 19 51 258 364 0 261 255 263 0 +22244928
7365131e-37 -.0055 -1e-5 0 0 1 .00155 1 0 0 14 261 346 264 ?257 265 266 4 258 +0
 0 257 265 19 51 263 363 0 265 258 267 0 +222449287365131e-37 -.0055 -1e-5 0 0 1
 .0016 1 0 0 14 265 341 268 ?261 15 269 4 263 -0 0 261 15 19 50 267 277 0 260 26
3 270 0 +2224492873652695e-38 -.0055 -.004 0 0 -1 1 -1224606353822376e-31 0 14 2
60 263 271 ?252 257 272 4 267 -0 0 252 257 19 51 270 275 0 252 267 273 0 +222449
2873652695e-38 -.0055 0 0 0 -1 8e-4 1 -1224606353822376e-31 0 14 252 269 274 ?21
7 260 275 4 270 -0 0 217 260 19 50 273 243 0 276 270 277 0 +-673555739531044e-33
 .0055 -.004 0 0 -1 -1 0 0 14 276 229 278 ?279 249 280 4 273 -0 0 279 249 19 51
 277 241 0 279 273 281 0 +-673555739531044e-33 .0055 0 0 0 -1 8e-4 -1 0 0 14 279
 235 282 ?218 276 283 4 277 -0 0 218 276 19 50 281 160 0 284 277 285 0 +0 0 .012
6 0 0 1 1 0 0 14 284 146 286 ?15 287 288 4 281 +0 0 15 287 19 51 285 158 0 287 2
81 232 0 -0 0 .0126 0 0 -1 .0015 -1 0 0 14 287 140 289 ?284 290 291 4 285 -0 0 2
84 290 19 50 232 91 0 214 285 292 0 +433680868994202e-33 0 .0026 0 0 1 1 0 0 51
 292 89 0 290 232 230 0 +433680868994202e-33 0 0 0 0 1 .003 1 0 0 14 290 83 293
 ?287 228 294 4 292 +0 0 287 228 19 50 230 55 0 222 292 219 0 +0 0 .001 0 0 1 1
 0 0 51 219 54 0 228 230 216 0 +0 0 0 0 0 1 .0035 1 0 0 14 228 48 295 ?290 222 2
96 4 219 +0 0 290 222 19 81 1 295 3094 195 228 297 0 226 293 298 15 296 50 0 156
 228 299 17 156 0 296 156 156 0 300 153 0 0 +15 299 51 0 164 228 0 17 164 0 299
 164 164 0 301 161 0 0 +17 301 0 302 301 301 0 164 161 0 0 -15 302 32 0 301 209
 236 17 300 0 303 300 300 0 156 153 0 0 -15 303 45 0 300 222 0 80 255 1 195 0 30
4 8001 0 0 0 0 3 5 0 0 0 FFFFTFTFFFFFFF2 81 1 297 3093 305 228 306 295 307 308 3
09 81 1 226 3092 195 222 307 0 221 295 310 81 1 293 3096 195 290 308 0 295 289 3
11 83 255 3 298 .6 .6 .6 81 1 308 3095 305 290 312 293 297 313 314 81 1 289 3098
 195 287 313 0 293 286 315 83 3 311 .6 .6 .6 81 1 313 3097 305 287 316 289 308 3
17 318 81 1 286 3100 195 284 317 0 289 319 320 83 3 315 .6 .6 .6 81 1 317 3099 3
05 284 321 286 313 322 323 81 1 319 3102 195 15 322 0 286 268 324 83 3 320 .6 .6
 .6 14 15 198 319 ?265 284 325 4 5 +0 0 265 284 19 81 1 322 3101 305 15 326 319
 317 327 328 81 1 268 3104 195 265 327 0 319 264 329 83 3 324 .6 .6 .6 81 1 327
 3103 305 265 330 268 322 331 332 81 1 264 3106 195 261 331 0 268 259 333 83 3 3
29 .6 .6 .6 81 1 331 3105 305 261 334 264 327 335 336 81 1 259 3108 195 257 335
 0 264 271 337 83 3 333 .6 .6 .6 81 1 335 3107 305 257 338 259 331 339 340 81 1
 271 3110 195 260 339 0 259 274 341 83 3 337 .6 .6 .6 81 1 339 3109 305 260 342
 271 335 343 344 81 1 274 3112 195 252 343 0 271 246 345 83 3 341 .6 .6 .6 81 1
 343 3111 305 252 346 274 339 347 348 81 1 246 3114 195 217 347 0 274 241 349 83
 3 345 .6 .6 .6 81 1 347 3113 305 217 350 246 343 245 351 83 3 349 .6 .6 .6 80 1
 305 352 353 8015 0 0 0 0 3 5 0 0 0 FFFFTFFFFFFFFF2 81 1 350 2970 24 217 0 347 3
54 355 356 81 1 245 3115 305 240 357 241 347 358 359 83 1 351 0 81 1 357 2963 24
 240 0 245 360 330 361 81 1 358 3117 305 242 362 247 245 363 364 83 1 359 0 81 1
 362 2967 24 242 0 358 338 334 365 81 1 247 3118 195 242 358 0 241 366 367 81 1
 363 3119 305 249 368 366 358 369 370 83 1 364 0 14 249 416 366 ?276 242 371 4 2
56 -0 0 276 242 19 81 1 368 2965 24 249 0 363 330 338 372 81 1 366 3120 195 249
 363 0 247 278 373 81 1 369 3121 305 276 374 278 363 375 376 83 1 370 0 81 1 374
 2943 24 276 0 369 326 377 378 81 1 278 3122 195 276 369 0 366 282 379 81 1 375
 3123 305 279 377 282 369 380 381 83 1 376 0 81 1 377 2944 24 279 0 375 374 342
 382 81 1 282 3124 195 279 375 0 278 383 384 81 1 380 3125 305 218 354 383 375 3
85 386 83 1 381 0 14 218 9 383 ?387 279 388 4 216 +209 217 387 279 19 81 1 354 2
969 24 218 0 380 334 350 389 81 1 383 3126 195 218 380 0 282 390 391 81 1 385 31
27 305 387 392 390 380 393 394 83 1 386 0 14 387 497 390 ?395 218 396 4 397 -0 0
 395 218 19 81 1 392 2951 24 387 0 385 398 399 400 81 1 390 3128 195 387 385 0 3
83 401 402 81 1 393 3129 305 395 399 401 385 403 404 83 1 394 0 14 395 500 401 ?
405 387 406 4 407 -0 0 405 387 19 81 1 399 2952 24 395 0 393 392 408 409 81 1 40
1 3130 195 395 393 0 390 410 411 81 1 403 3131 305 405 408 410 393 412 413 83 1
 404 0 14 405 504 410 ?414 395 415 4 416 -0 0 414 395 19 81 1 408 2953 24 405 0
 403 399 417 418 81 1 410 3132 195 405 403 0 401 419 420 81 1 412 3133 305 414 4
17 419 403 421 422 83 1 413 0 14 414 508 419 ?423 405 424 4 425 -0 0 423 405 19
 81 1 417 2954 24 414 0 412 408 426 427 81 1 419 3134 195 414 412 0 410 428 429
 81 1 421 3135 305 423 430 428 412 431 432 83 1 422 0 14 423 547 428 ?433 414 43
4 4 207 -0 0 433 414 19 81 1 430 2956 24 423 0 421 426 435 436 81 1 428 3136 195
 423 421 0 419 437 438 81 1 431 3137 305 433 439 437 421 440 441 83 1 432 0 14 4
33 550 437 ?442 423 443 4 444 -0 0 442 423 19 81 1 439 2958 24 433 0 431 435 445
 446 81 1 437 3138 195 433 431 0 428 447 448 81 1 440 3139 305 442 435 447 431 4
49 450 83 1 441 0 14 442 554 447 ?451 433 452 4 453 -0 0 451 433 19 81 1 435 295
7 24 442 0 440 430 439 454 81 1 447 3140 195 442 440 0 437 455 456 81 1 449 3141
 305 451 426 455 440 457 458 83 1 450 0 14 451 558 455 ?459 442 460 4 461 -0 0 4
59 442 19 81 1 426 2955 24 451 0 449 417 430 462 81 1 455 3142 195 451 449 0 447
 463 464 81 1 457 3143 305 459 465 463 449 466 467 83 1 458 0 14 459 731 463 ?46
8 451 469 4 470 -0 0 468 451 19 81 1 465 2961 24 459 0 457 471 360 472 81 1 463
 3144 195 459 457 0 455 473 474 81 1 466 3145 305 468 445 473 457 475 476 83 1 4
67 0 14 468 736 473 ?477 459 478 4 479 -0 0 477 459 19 81 1 445 2959 24 468 0 46
6 439 471 480 81 1 473 3146 195 468 466 0 463 481 482 81 1 475 3147 305 477 360
 481 466 483 484 83 1 476 0 14 477 741 481 ?203 468 485 4 486 -0 0 203 468 19 81
 1 360 2962 24 477 0 475 465 357 487 81 1 481 3148 195 477 475 0 473 488 489 81
 1 483 3149 305 203 471 488 475 490 491 83 1 484 0 14 203 746 488 ?192 477 492 4
 493 -0 0 192 477 19 81 1 471 2960 24 203 0 483 445 465 494 81 1 488 3150 195 20
3 483 0 481 197 495 81 1 490 3151 305 192 26 197 483 196 496 83 1 491 0 81 1 26
 3078 24 192 0 490 20 497 498 81 1 197 3152 195 192 490 0 488 190 499 81 1 196 3
153 305 189 500 190 490 501 502 83 1 496 0 81 1 500 2948 24 189 0 196 346 503 50
4 81 1 501 3155 305 191 497 198 196 505 506 83 1 502 0 81 1 497 3079 24 191 0 50
1 26 507 508 81 1 198 3156 195 191 501 0 190 509 510 81 1 505 3157 305 200 507 5
09 501 511 512 83 1 506 0 14 200 3034 509 ?513 191 514 4 515 +0 0 513 191 19 81
 1 507 3080 24 200 0 505 497 516 517 81 1 509 3158 195 200 505 0 198 518 519 81
 1 511 3159 305 513 516 518 505 520 521 83 1 512 0 14 513 3039 518 ?522 200 523
 4 524 +0 0 522 200 19 81 1 516 3081 24 513 0 511 507 525 526 81 1 518 3160 195
 513 511 0 509 527 528 81 1 520 3161 305 522 503 527 511 529 530 83 1 521 0 14 5
22 648 527 ?531 513 532 4 533 -0 0 531 513 19 81 1 503 2949 24 522 0 520 500 398
 534 81 1 527 3162 195 522 520 0 518 535 536 81 1 529 3163 305 531 398 535 520 5
37 538 83 1 530 0 14 531 656 535 ?206 522 539 4 540 -0 0 206 522 19 81 1 398 295
0 24 531 0 529 503 392 541 81 1 535 3164 195 531 529 0 527 542 543 81 1 537 3165
 305 206 525 542 529 0 544 83 1 538 0 14 206 2993 542 ?0 531 545 4 205 -192 192
 0 531 19 81 1 525 3082 24 206 0 537 516 0 546 81 1 542 3166 195 206 537 0 535 0
 547 83 1 544 0 83 3 547 .6 .6 .6 80 1 24 548 549 9000 1 1 1 1 1 1 1 1 0 FFFFTFT
FFFFFFF3 84 255 32 546 cbcab58321a9a3843b4f64759c9af65079 255 15 549 UGS/ObjectS
tate15 545 628 0 177 206 550 50 205 610 0 192 540 194 0 +0 0 -.01915 0 0 1 1 0 0
 51 540 663 0 531 533 205 0 +0 0 -.0194 0 0 1 .002724 1 0 0 50 533 665 0 522 470
 540 0 +0 0 -.0147 0 0 1 1 0 0 50 470 759 0 459 479 533 0 +.0075 0 -.0117 0 0 1
 1 0 0 51 479 760 0 468 486 470 0 -0 0 0 0 0 -1 .00685 -1 0 0 52 486 761 0 477 4
93 479 0 -0 0 -.0129 0 0 -1 .00685 .5 .866025403784442 -1 0 0 51 493 762 0 203 2
02 486 0 -0 0 0 0 0 -1 .007 -1 0 0 51 202 3049 0 191 515 493 0 -0 0 -.01935 0 0
 1 .006 1 0 0 51 515 3050 0 200 524 202 0 -0 0 -.01935 0 0 1 .002824 1 0 0 50 52
4 3052 0 513 0 515 0 +0 0 -.01935 0 0 -1 -1 0 0 17 177 0 545 177 177 0 551 62 0
 0 +15 550 2991 0 40 206 0 17 40 0 550 40 40 0 552 38 0 0 +17 552 0 553 552 552
 0 40 38 0 0 -15 553 3038 0 552 200 0 17 551 0 554 551 551 0 177 62 0 0 -15 554
 647 0 551 531 0 83 3 543 .6 .6 .6 84 32 541 d93cbc0e2753fb64588747f231f9b32b15
 539 646 0 61 531 554 17 61 0 539 61 61 0 555 58 0 0 +17 555 0 532 555 555 0 61
 58 0 0 -15 532 651 0 555 522 0 83 3 536 .6 .6 .6 84 32 534 eb12b4908bca7e7069d2
1af78e85b3bf83 3 528 .6 .6 .6 84 32 526 5e945b626b49708184d36fb4bc331e9c15 523 3
042 0 556 513 557 17 556 0 523 556 556 0 558 41 0 0 +15 557 3043 0 559 513 0 17
 559 0 557 559 559 0 560 36 0 0 -17 560 0 514 560 560 0 559 36 0 0 +16 36 3021 5
61 ?560 17 41 34 0 0 1 81 1 561 3075 24 36 0 0 355 25 562 16 17 718 183 ?563 42
 36 6 0 0 1 16 41 3023 355 ?556 36 38 37 0 0 1 81 1 355 3074 24 41 0 0 350 561 5
64 31 37 3056 0 41 0 34 0 +0 0 -.01935 0 0 -1 1 1224646799147352e-31 0 .006 84 3
2 564 d85788411d75b7cde909bf5966691c4d81 1 183 2922 24 17 0 0 48 180 565 17 563
 0 187 563 563 0 566 17 0 0 +15 187 1572 0 563 13 0 17 566 0 492 566 566 0 563 1
7 0 0 -15 492 749 0 566 203 567 15 567 750 0 45 203 0 17 45 0 567 45 45 0 568 42
 0 0 +17 568 0 485 568 568 0 45 42 0 0 -15 485 744 0 568 477 569 15 569 745 0 49
 477 0 17 49 0 569 49 49 0 570 46 0 0 +17 570 0 478 570 570 0 49 46 0 0 -15 478
 739 0 570 468 571 15 571 740 0 53 468 0 17 53 0 571 53 53 0 572 50 0 0 +17 572
 0 469 572 572 0 53 50 0 0 -15 469 734 0 572 459 573 15 573 735 0 57 459 0 17 57
 0 573 57 57 0 233 54 0 0 +81 1 48 2921 24 46 0 0 56 183 574 84 32 565 35e1e36eb
b83f2ab090b95d5530d02b981 1 56 2920 24 54 0 0 44 48 575 84 32 574 936269acbd1f50
3a72272cdacdd460f281 1 44 2919 24 42 0 0 52 56 576 84 32 575 3e0cbf4ed0590440215
8c0e31b2401ea81 1 52 2918 24 50 0 0 70 44 577 84 32 576 fccb31aa19b02fbd2e2bf2be
59bbe75281 1 70 2917 24 67 0 0 82 52 578 84 32 577 bcf337b82f36295084fb468f2f281
b6c81 1 82 2916 24 80 0 0 78 70 579 84 32 578 2106ed0bb29eec61671e8724bc21df2381
 1 78 2915 24 76 0 0 74 82 580 84 32 579 4a24c7e60fe786b6720d7dc4ee66fc8681 1 74
 2914 24 72 0 0 86 78 581 84 32 580 1bcc40f8ab8baa0e2937486a9d87159981 1 86 2913
 24 84 0 0 90 74 582 84 32 581 a9645951fb74b9a78c7326d5660d2da081 1 90 2912 24 8
8 0 0 94 86 583 84 32 582 2773153653625398b3cbdbe8dc25d24181 1 94 2911 24 92 0 0
 98 90 584 84 32 583 07d67829cdbcc2537946571c3955a10281 1 98 2910 24 96 0 0 60 9
4 585 84 32 584 ba8ace001cfcdb3e717397643688a25381 1 60 2909 24 58 0 0 65 98 586
 84 32 585 0b855367d7c24a75f8c4b49e3540725281 1 65 2908 24 63 0 0 135 60 587 84
 32 586 3882a7d61adbc761734c259459b0113681 1 135 2907 24 133 0 0 139 65 588 84 3
2 587 2f2053c11caec2f1200da64f1124ac1981 1 139 2906 24 126 0 0 147 135 589 84 32
 588 1ff99dad29a8f4820929ed20757fbf0381 1 147 2905 24 137 0 0 143 139 590 84 32
 589 17a96111d2af75d0abe4541a4bf643d481 1 143 2904 24 141 0 0 172 147 591 84 32
 590 f4cadde7b59df7dce620bd3a2598710481 1 172 2903 24 32 0 0 30 143 592 84 32 59
1 3a585f1f7013efab826d64f89feaa9d381 1 30 2902 24 22 0 0 170 172 593 84 32 592 8
3db219fc2f2820c9297e002be91229981 1 170 2901 24 145 0 0 167 30 594 84 32 593 2a1
782e9d03004cebf86d781a112cc8281 1 167 2900 24 165 0 0 151 170 595 84 32 594 aba2
185886bc9259e57d4fd427bbf09181 1 151 2899 24 149 0 0 163 167 596 84 32 595 0ddca
a2d2b9301bab7a9ee234f7712c681 1 163 2898 24 161 0 0 159 151 597 84 32 596 b54199
a711ff8857506f4b80c5e5e88181 1 159 2897 24 157 0 0 155 163 598 84 32 597 a39ccd1
7ca21eefffd8373981a9c8cb881 1 155 2896 24 153 0 0 0 159 599 84 32 598 1823eff551
8ba85ad4c507a993983d8684 32 599 063940745cf9d47eac9c6dd1f5491c8a81 1 25 3076 24
 38 0 0 561 20 600 84 32 562 666fef49362da8139bf1abc29cf5a03c84 32 600 1eab02f84
52267188b13abf2b281d8f015 514 3037 0 560 200 553 17 558 0 201 558 558 0 556 41 0
 0 -15 201 3032 0 558 191 28 15 28 3033 0 21 191 0 83 3 519 .6 .6 .6 84 32 517 5
dd71b5667d81f5929cd6eb1f8174ab883 3 510 .6 .6 .6 84 32 508 679a99111e70589050ea6
12a98d87e6b81 1 346 2946 24 252 0 343 342 500 601 84 32 504 b313cb897f1d4794c14b
8991f85e7e7481 1 342 2945 24 260 0 339 377 346 602 84 32 601 7a3e02831cf0a81bcb5
764e8c6d4fff484 32 602 8064f7f57b2b08c8a8e88a6618d64ca983 3 499 .6 .6 .6 84 32 4
98 38540c83c074619744645920183299ab83 3 495 .6 .6 .6 84 32 494 272ff43f7858371af
a4360578b6ad09683 3 489 .6 .6 .6 84 32 487 e1754a14825e152aa32155c11c60cae683 3
 482 .6 .6 .6 84 32 480 d101006cadf42903ca504b5cb05ae8d783 3 474 .6 .6 .6 84 32
 472 de5db6c3366718d92e312bae3874a94183 3 464 .6 .6 .6 84 32 462 5f7177f97ca86ee
73deee60e1e5fb37815 460 560 0 75 451 603 51 461 564 0 451 453 397 0 +.0055 -1561
73415923117e-32 0 0 0 -1 9e-4 1 -1224646799147352e-31 0 50 453 565 0 442 444 461
 0 +.0055 -156173415923117e-32 -6e-4 0 0 -1 1 -1224646799147352e-31 0 50 397 517
 0 387 461 407 0 +-.0055 888178419700125e-33 -.004 0 0 -1 -1 0 0 51 407 516 0 39
5 397 416 0 +-.0055 888178419700125e-33 -.004 0 0 -1 74e-5 -1 0 0 50 416 515 0 4
05 407 425 0 +-.0055 888178419700125e-33 -6e-4 0 0 -1 -1 0 0 51 425 514 0 414 41
6 256 0 +-.0055 888178419700125e-33 0 0 0 -1 9e-4 -1 0 0 50 256 431 0 249 425 25
1 0 +2224492873652695e-38 .0055 -1e-5 0 0 -1 -1 0 0 51 444 566 0 433 207 453 0 +
.0055 -156173415923117e-32 -.004 0 0 -1 74e-5 1 -1224646799147352e-31 0 50 207 5
67 0 423 194 444 0 +.0055 -156173415923117e-32 -.004 0 0 -1 1 -1224646799147352e
-31 0 17 75 0 460 75 75 0 604 72 0 0 +15 603 561 0 605 451 0 17 605 0 603 605 60
5 0 71 67 0 0 -17 71 0 215 71 71 0 605 67 0 0 +15 215 530 0 71 209 606 15 606 48
0 0 87 209 607 17 87 0 606 87 87 0 608 84 0 0 +15 607 320 0 609 209 302 17 609 0
 607 609 609 0 129 110 0 0 -17 129 0 610 129 129 0 609 110 0 0 +15 610 345 0 129
 265 0 17 608 0 611 608 608 0 87 84 0 0 -15 611 511 0 608 414 0 17 604 0 612 604
 604 0 75 72 0 0 -15 612 557 0 604 442 0 83 3 456 .6 .6 .6 84 32 454 f96fe297576
2f273506c4b398264dd9215 452 556 0 79 442 612 17 79 0 452 79 79 0 613 76 0 0 +17
 613 0 614 613 613 0 79 76 0 0 -15 614 553 0 613 433 0 83 3 448 .6 .6 .6 84 32 4
46 44e4b91ea260a2d1dbefd1128d390fd815 443 552 0 83 433 614 17 83 0 443 83 83 0 6
15 80 0 0 +17 615 0 434 615 615 0 83 80 0 0 -15 434 549 0 615 423 0 83 3 438 .6
 .6 .6 84 32 436 5e6771aa0eafae6c8d5ffa10032c640b83 3 429 .6 .6 .6 84 32 427 7f2
074a062e0ae0707d8397f4d5e96cc15 424 510 0 91 414 611 17 91 0 424 91 91 0 616 88
 0 0 +17 616 0 617 616 616 0 91 88 0 0 -15 617 507 0 616 405 0 83 3 420 .6 .6 .6
 84 32 418 fe9a9c72bfc8678a2d4983e2099e7a1015 415 506 0 95 405 617 17 95 0 415 9
5 95 0 618 92 0 0 +17 618 0 619 618 618 0 95 92 0 0 -15 619 503 0 618 395 0 83 3
 411 .6 .6 .6 84 32 409 8efd42c11591c58ff7a8f88d7437967e15 406 502 0 99 395 619
 17 99 0 406 99 99 0 620 96 0 0 +17 620 0 396 620 620 0 99 96 0 0 -15 396 499 0
 620 387 0 83 3 402 .6 .6 .6 84 32 400 4329b3391ff6c118f86848617047878a83 3 391
 .6 .6 .6 81 1 334 2968 24 261 0 331 362 354 621 84 32 389 b5e98b1b9d1ccdc19c1ca
549f0455d4784 32 621 da6068cf74e6c7fcd3f145a7634fd5e415 388 379 0 622 218 623 17
 622 0 388 622 622 0 116 106 0 0 -15 623 219 0 148 218 0 17 148 0 623 148 148 0
 624 137 0 0 +17 624 0 625 624 624 0 148 137 0 0 -15 625 238 0 624 279 0 17 116
 0 626 116 116 0 622 106 0 0 +15 626 415 0 116 242 0 83 3 384 .6 .6 .6 84 32 382
 ae4cb8e9a2f83d0e3f3ad9cae238ba1f83 3 379 .6 .6 .6 81 1 326 2942 24 15 0 322 321
 374 627 84 32 378 f37cf9dc0850faf609299fa00364a0d081 1 321 2941 24 284 0 317 31
6 326 628 84 32 627 a67acce47148d80c438a7a4fb3b782c481 1 316 2940 24 287 0 313 6
29 321 630 84 32 628 a2a465ba10c5ea8156173394e844047d81 1 629 2939 24 214 0 631
 312 316 632 84 32 630 e54f71ac93535bbd929f1be86b5d9cb181 1 631 3087 305 214 629
 225 633 224 634 81 1 312 2938 24 290 0 308 635 629 636 84 32 632 3bb2e0f9e1828d
2fe7a1cfa26da8f79881 1 635 2937 24 13 0 211 637 312 638 84 32 636 4e726ca07c9317
fe4b959f23d37d8b4f81 1 211 3083 305 13 635 208 0 633 639 81 1 637 2936 24 220 0
 224 640 635 641 84 32 638 e679c657cd7fb4be03cbeba10c77288881 1 224 3089 305 220
 637 221 631 307 642 81 1 640 2935 24 209 0 633 643 637 644 84 32 641 95f43099a4
855982d92fd6856dd7777981 1 633 3085 305 209 640 212 211 631 645 81 1 643 2934 24
 222 0 307 306 640 646 84 32 644 0b5abba412dfd9231aea6ed73b74a20b81 1 307 3091 3
05 222 643 226 224 297 647 81 1 306 2933 24 228 0 297 115 643 648 84 32 646 0026
6665a37b955ed213137f013c239a81 1 115 2932 24 106 0 0 124 306 649 84 32 648 cd9ca
3b2cb09c9e96ac1b62ad1f07db381 1 124 2931 24 121 0 0 108 115 650 84 32 649 48191d
50874c8b32652f0108897bd6f381 1 108 2930 24 105 0 0 131 124 651 84 32 650 32c89a0
f5d5153155ac8337f4b09338981 1 131 2929 24 122 0 0 128 108 652 84 32 651 4ae6dfc7
5e5f2ff06c97fd54f185034b81 1 128 2928 24 110 0 0 112 131 653 84 32 652 59e93dd6e
15992bd79f0c2c7d4b8594981 1 112 2927 24 100 0 0 119 128 654 84 32 653 60b2f31e12
b563f2902aeca50256274581 1 119 2926 24 117 0 0 103 112 655 84 32 654 04093558ab3
9f08d0075c20e51821cb381 1 103 2925 24 101 0 0 176 119 656 84 32 655 abb5dcc5b5a4
2b7e5c8565d5818dbf9381 1 176 2924 24 62 0 0 180 103 657 84 32 656 1ee9936b2fcb1d
1855b5b93fb9a482dc84 32 657 7fd6fb2545d0b055d79d5db8ce4e647783 1 647 0 81 1 212
 3086 195 209 633 0 208 225 658 83 1 645 0 81 1 225 3088 195 214 631 0 212 221 6
59 83 3 658 .6 .6 .6 83 3 659 .6 .6 .6 83 1 642 0 83 1 639 0 83 1 634 0 83 3 373
 .6 .6 .6 81 1 330 2964 24 265 0 327 357 368 660 81 1 338 2966 24 257 0 335 368
 362 661 84 32 372 d8e63658f5ba254cb09d5484c5b8396f84 32 661 007332a68015d44ea2f
e9b3b7ecbb10684 32 660 8aa36a3a7eb1a53a407f04c7f5f3ad6b15 371 419 0 104 249 662
 17 104 0 371 104 104 0 254 101 0 0 +15 662 420 0 663 249 0 17 663 0 662 663 663
 0 109 105 0 0 -17 109 0 250 109 109 0 663 105 0 0 +15 250 414 0 109 242 626 17
 254 0 243 254 254 0 104 101 0 0 -83 3 367 .6 .6 .6 84 32 365 da8382ec80543d6564
7d7dc6cfddf9e184 32 361 e220e1b2b149f653711aecdee3c2050e84 32 356 711527454ead3e
b2af6eb019b9c4232379 21 353 SDL/TYSA_TRANSLUCENCY83 1 348 0 83 1 344 0 83 1 340
 0 83 1 336 0 83 1 332 0 83 1 328 0 15 325 199 0 664 15 665 17 664 0 325 664 664
 0 31 22 0 0 -15 665 200 0 666 15 0 17 666 0 665 666 666 0 173 32 0 0 -17 173 0
 288 173 173 0 666 32 0 0 +15 288 175 0 173 284 0 17 31 0 291 31 31 0 664 22 0 0
 +15 291 183 0 31 287 667 15 667 144 0 668 287 0 17 668 0 667 668 668 0 171 145
 0 0 -17 171 0 669 171 171 0 668 145 0 0 +15 669 117 0 171 214 0 83 1 323 0 83 1
 318 0 83 1 314 0 83 3 310 .6 .6 .6 83 1 309 0 79 15 304 SDL/TYSA_COLOUR15 294 8
5 0 168 290 670 17 168 0 294 168 168 0 671 165 0 0 +15 670 86 0 672 290 0 17 672
 0 670 672 672 0 152 149 0 0 -17 152 0 231 152 152 0 672 149 0 0 +15 231 79 0 15
2 214 669 17 671 0 229 671 671 0 168 165 0 0 -15 229 62 0 671 222 303 15 283 237
 0 144 279 625 17 144 0 283 144 144 0 673 141 0 0 +17 673 0 280 673 673 0 144 14
1 0 0 -15 280 231 0 673 276 0 15 275 271 0 136 252 674 17 136 0 275 136 136 0 67
5 133 0 0 +15 674 272 0 676 252 0 17 676 0 674 676 676 0 140 126 0 0 -17 140 0 2
53 140 140 0 676 126 0 0 +15 253 253 0 140 217 677 15 677 313 0 132 217 0 17 132
 0 677 132 132 0 678 122 0 0 +17 678 0 679 678 678 0 132 122 0 0 -15 679 350 0 6
78 261 0 17 675 0 272 675 675 0 136 133 0 0 -15 272 265 0 675 260 0 15 269 344 0
 120 265 610 17 120 0 269 120 120 0 680 117 0 0 +17 680 0 262 680 680 0 120 117
 0 0 -15 262 354 0 680 257 681 15 681 355 0 125 257 0 17 125 0 681 125 125 0 682
 121 0 0 +17 682 0 266 682 682 0 125 121 0 0 -15 266 349 0 682 261 679 83 3 248
 .6 .6 .6 83 3 227 .6 .6 .6 83 3 213 .6 .6 .6 17 66 0 193 66 66 0 683 63 0 0 +17
 683 0 684 683 683 0 66 63 0 0 -15 684 596 0 683 192 0 15 204 3000 0 29 192 684
 17 29 0 204 29 29 0 21 8 0 0 -83 3 199 .6 .6 .6 84 32 184 ac8fc960795163f69ebde
135a50f2ec184 32 27 b46f61507d603196262796013916f29919 14 5 0 1 0 7 4 S0 74 4 CI
16 index_map_offset0 0 1 dCCZ20 12 5 0 0 525 10 537 542 2 0 0 0 0 0 0 0 0 0 0 0
 0 0 0 0 81 2 10 3073 685 1 0 2 0 0 686 687 80 2 685 688 689 8004 0 0 0 0 3 5 0
 0 0 FFTFFFFFFFFFFF2 3 83 1 686 .001 84 8 687 Kg/Cu M 79 16 689 SDL/TYSA_DENSITY
80 1 9 690 691 9000 0 0 0 0 3 5 0 0 0 FFTFFFFFFFFFFF1 82 255 1 11 87 79 24 691 U
G2/BODY_COLOR_ATTRIBUTE1 0 
