**ABCDEFGHIJKLMNOPQRSTUVWXYZabcdefghijklmnopqrstuvwxyz**************************
**PARASOLID !"#$%&'()*+,-./:;<=>?@[\]^_`{|}~0123456789**************************
**PART1;
MC=x64/Windows NT;
MC_MODEL=genuineintel family 6 model 10 stepping 5, intel(r) xeon(r) cpu           w3550  @ 3.07ghz;
MC_ID=pc1401;
OS=windows nt (x64);
OS_RELEASE=6.1 windows 7 professional (build 7601) service pack 1;
FRU=mdc_ugii_v7.0_djl_can_vrh;
APPL=unigraphics;
SITE=unknown;
USER=huge;
FORMAT=text;
GUISE=transmit;
KEY=15-A_2;
FILE=D:\Daten-Huge\PLM_Export\A_Internet_Modelle\Getriebe\15-x\15-A\15-A_2.x_t;
DATE=19-aug-2016;
**PART2;
SCH=SCH_2701211_26105;
USFLD_SIZE=0;
**PART3;
**END_OF_HEADER*****************************************************************
T51 : TRANSMIT FILE created by modeller version 270121123 SCH_2701211_26105_1300
6200 0 12 30 CCCCCCCCCCCCCDI5 owner1040 0 CCCCCCCCCA13 boundary_mesh1006 0 A16 i
ndex_map_offset0 0 1 dA9 index_map82 0 A17 node_id_index_map82 0 A20 schema_embe
dding_map82 0 A5 child12 0 A14 lowest_node_id0 0 1 dZ1 3170 2 3 0 0 0 0 1e3 1e-8
 0 0 0 1 0 1 1 4 5 6 0 7 8 0 0 0 0 0 0 0 0 81 255 1 2 3170 9 1 10 0 0 0 11 70 11
 CI9 list_type0 0 1 uI10 notransmit0 0 1 lCCCDCCDI12 finger_index0 0 1 dI12 fing
er_block1012 0 CZ3 0 4 T1 0 0 5 20 1 12 12 13 255 4 3 0 1 0 13 0 0 14 0 52 255 5
 205 0 15 16 0 0 +0 0 .0126 0 0 -1 .0013601077025535 .4226182617406995 .90630778
703665 -1 0 0 133 255 6 820 0 17 18 0 0 +18 -.0059037401206902 -.003761097258427
77 -.0158 -.0059037401206902 -.00376109725842777 -.0158 5.71595330028143 11.9991
3860746102 19 8 CCCCCCCA5 owner12 0 Z7 1 0 1 14 0 19 V0 16 255 8 3001 20 ?21 0 2
2 23 0 0 1 81 1 20 3079 24 8 0 0 25 26 27 17 255 21 0 28 21 21 0 29 8 0 0 +16 22
 182 30 ?31 8 32 33 0 0 1 31 255 23 3057 0 8 34 35 0 +0 0 -.01555 0 0 -1 1 12246
46799147352e-31 0 .006 31 34 3058 0 36 37 23 0 +0 0 -.01575 0 0 -1 1 12246467991
47352e-31 0 .002824 31 35 3056 0 38 23 39 0 +0 0 -.01555 0 0 -1 1 12246467991473
52e-31 0 .002824 16 38 3028 26 ?40 41 0 35 0 0 1 31 39 773 0 42 35 43 0 +0 0 -.0
0955980762113533 0 0 -1 -1 0 0 .007 16 42 722 44 ?45 46 17 39 0 0 1 31 43 772 0
 46 39 47 0 +0 0 -.0093 0 0 -1 -1 0 0 .00685 16 46 720 48 ?49 50 42 43 0 0 1 31
 47 771 0 50 43 51 0 +0 0 -.0081 0 0 -1 -1 0 0 .00685 16 50 718 52 ?53 54 46 47
 0 0 1 31 51 770 0 54 47 55 0 +0 0 -.0081 0 0 -1 -1 0 0 .0075 16 54 714 56 ?57 5
8 50 51 0 0 1 31 55 673 0 58 51 59 0 +0 0 -.0111 0 0 1 1 0 0 .002724 16 58 647 6
0 ?61 62 54 55 0 0 1 31 59 618 0 63 55 64 0 +0 0 -.01555 0 0 1 1 0 0 .0064 16 63
 597 65 ?66 67 68 59 0 0 1 31 64 578 0 67 59 69 0 +.0055 -156173415923117e-32 0
 0 0 -1 1 -1224646799147352e-31 0 9e-4 16 67 549 70 ?71 72 63 64 0 0 1 31 69 577
 0 72 64 73 0 +.0055 -156173415923117e-32 -6e-4 0 0 -1 1 -1224646799147352e-31 0
 9e-4 16 72 548 74 ?75 76 67 69 0 0 1 31 73 576 0 76 69 77 0 +.0055 -15617341592
3117e-32 -6e-4 0 0 -1 1 -1224646799147352e-31 0 74e-5 16 76 547 78 ?79 80 72 73
 0 0 1 31 77 575 0 80 73 81 0 +.0055 -156173415923117e-32 -.004 0 0 -1 1 -122464
6799147352e-31 0 74e-5 16 80 546 82 ?83 84 76 77 0 0 1 31 81 492 0 85 77 86 0 -0
 -.0055 -1e-5 0 0 -1 1 1224646799147352e-31 0 .0016 16 85 457 87 ?88 89 90 81 0
 0 1 31 86 491 0 89 81 91 0 -0 -.0055 -1e-5 0 0 -1 1 1224646799147352e-31 0 .001
55 16 89 455 92 ?93 94 85 86 0 0 1 31 91 490 0 84 86 95 0 +0 -.0055 0 0 0 -1 1 1
224646799147352e-31 0 .0016 16 84 451 96 ?97 90 80 91 0 0 1 31 95 489 0 90 91 98
 0 +0 -.0055 0 0 0 -1 1 1224646799147352e-31 0 .00155 16 90 459 99 ?100 85 84 95
 0 0 1 31 98 427 0 101 95 102 0 -0 .0055 -1e-5 0 0 1 1 0 0 .0016 16 101 386 103
 ?104 105 106 98 0 0 1 31 102 426 0 105 98 107 0 -0 .0055 -1e-5 0 0 1 1 0 0 .001
55 16 105 392 108 ?109 110 101 102 0 0 1 31 107 425 0 94 102 111 0 +0 .0055 0 0
 0 1 1 0 0 .0016 16 94 394 112 ?113 106 89 107 0 0 1 31 111 424 0 106 107 114 0
 +0 .0055 0 0 0 1 1 0 0 .00155 16 106 388 115 ?116 101 94 111 0 0 1 31 114 329 0
 110 111 117 0 +-.0055 888178419700125e-33 0 0 0 -1 -1 0 0 9e-4 16 110 300 118 ?
119 120 105 114 0 0 1 31 117 328 0 120 114 121 0 +-.0055 888178419700125e-33 -6e
-4 0 0 -1 -1 0 0 9e-4 16 120 299 122 ?123 124 110 117 0 0 1 31 121 327 0 124 117
 125 0 +-.0055 888178419700125e-33 -6e-4 0 0 -1 -1 0 0 74e-5 16 124 298 126 ?127
 128 120 121 0 0 1 31 125 326 0 128 121 129 0 +-.0055 888178419700125e-33 -.004
 0 0 -1 -1 0 0 74e-5 16 128 297 130 ?131 132 124 125 0 0 1 31 129 279 0 133 125
 134 0 +2224492873652695e-38 -.0055 -.004 0 0 -1 1 -1224606353822376e-31 0 8e-4
 16 133 261 135 ?136 137 132 129 0 0 1 31 134 278 0 132 129 138 0 +2224492873652
695e-38 -.0055 0 0 0 -1 1 -1224606353822376e-31 0 8e-4 16 132 262 139 ?140 133 1
28 134 0 0 1 31 138 245 0 141 134 142 0 +-673555739531044e-33 .0055 -.004 0 0 -1
 -1 0 0 8e-4 16 141 227 143 ?144 145 137 138 0 0 1 31 142 244 0 137 138 146 0 +-
673555739531044e-33 .0055 0 0 0 -1 -1 0 0 8e-4 16 137 228 147 ?148 141 133 142 0
 0 1 31 146 93 0 149 142 150 0 +433680868994202e-33 0 .0026 0 0 1 1 0 0 .003 16
 149 71 151 ?152 153 145 146 0 0 1 31 150 57 0 153 146 154 0 +0 0 .001 0 0 -1 -1
 0 0 .0035 16 153 41 155 ?156 157 149 150 0 0 1 31 154 10 0 157 150 158 0 +0 0 0
 0 0 -1 -1 0 0 .0075 16 157 6 159 ?160 161 153 154 0 0 1 31 158 33 0 161 154 162
 0 +0 0 0 0 0 1 1 0 0 .0035 16 161 30 163 ?164 165 157 158 0 0 1 31 162 63 0 165
 158 166 0 +433680868994202e-33 0 .001 0 0 1 1 0 0 .003 16 165 60 167 ?168 32 16
1 162 0 0 1 31 166 119 0 145 162 169 0 -0 0 .0026 0 0 1 1 0 0 .0015 16 145 129 1
70 ?171 149 141 166 0 0 1 31 169 177 0 32 166 33 0 +0 0 .0126 0 0 1 1 0 0 .00136
01077025535 16 32 174 172 ?173 22 165 169 0 0 1 31 33 185 0 22 169 174 0 -0 0 .0
123 0 0 1 1 0 0 .0015 31 174 636 0 62 33 175 0 +0 0 -.01555 0 0 1 1 0 0 .002724
 16 62 646 176 ?177 68 58 174 0 0 1 31 175 807 0 1 174 178 179 +0 0 -.0158 0 0 1
 1 0 0 .0064 133 178 811 0 68 175 18 0 +175 -.00624829444556758 -.00138521352920
3856 -.0158 -.00624829444556758 -.001385213529203856 -.0158 3.359758810089085 9.
64294411726867 141 255 179 178 179 179 175 16 68 598 180 ?181 63 62 178 0 0 1 31
 18 816 0 1 178 6 182 +0 0 -.0158 0 0 -1 -1 0 0 .007 141 182 6 182 182 18 81 1 1
80 2929 24 68 0 0 183 176 184 17 181 0 185 181 181 0 186 68 0 0 +15 255 185 2898
 0 181 13 187 17 186 0 188 186 186 0 181 68 0 0 -15 188 611 0 186 189 0 14 255 1
89 607 190 ?191 192 193 4 194 -0 0 191 192 19 81 1 190 3157 195 189 196 0 197 19
8 199 14 191 3032 198 ?200 189 201 4 202 -0 0 200 189 19 14 192 599 197 ?189 203
 204 4 205 -206 206 189 203 19 15 193 610 0 66 189 188 51 255 194 614 0 189 205
 207 0 +0 0 -.0158 0 0 1 .0064 1 0 0 13 19 4 0 0 0 0 0 0 7 13 14 13 15 208 ?209
 0 185 4 210 +0 0 209 0 19 81 1 208 3087 195 13 211 0 0 212 213 14 209 443 212 ?
214 13 215 4 216 +217 218 214 13 19 50 255 210 17 0 13 216 16 0 +0 0 -.0158 0 0
 -1 -1 0 0 50 216 11 0 218 219 210 0 +0 0 0 0 0 1 1 0 0 51 16 18 0 220 210 5 0 +
0 0 0 0 0 -1 .0075 -1 0 0 14 220 2 221 ?222 214 223 4 16 +0 0 222 214 19 81 1 22
1 3093 195 220 224 0 225 226 227 14 222 43 226 ?228 220 229 4 230 +0 0 228 220 1
9 14 214 77 225 ?220 209 231 4 232 +0 0 220 209 19 15 223 696 0 233 220 234 17 2
33 0 223 233 233 0 57 54 0 0 -15 234 7 0 160 220 0 17 160 0 234 160 160 0 235 15
7 0 0 +17 235 0 236 235 235 0 160 157 0 0 -15 236 8 0 235 209 237 15 237 441 0 9
7 209 0 17 97 0 237 97 97 0 238 84 0 0 +17 238 0 239 238 238 0 97 84 0 0 -15 239
 467 0 238 240 0 14 240 463 241 ?242 217 243 4 244 +0 0 242 217 19 81 1 241 3127
 195 240 245 0 246 247 248 14 242 468 247 ?249 240 250 4 251 -0 0 249 240 19 14
 217 372 246 ?240 252 253 4 216 +218 209 240 252 19 15 243 466 0 254 240 239 51
 244 485 0 240 251 255 0 -0 -.0055 -1e-5 0 0 1 .0016 1 0 0 51 251 486 0 242 256
 244 0 -0 -.0055 -1e-5 0 0 1 .00155 1 0 0 50 255 423 0 257 244 258 0 +0 .0055 -1
e-5 0 0 1 1 0 0 14 257 408 259 ?260 261 262 4 255 +0 0 260 261 19 51 258 421 0 2
61 255 263 0 +0 .0055 -1e-5 0 0 1 .00155 1 0 0 14 261 403 264 ?257 265 266 4 258
 +0 0 257 265 19 51 263 420 0 265 258 267 0 +0 .0055 -1e-5 0 0 1 .0016 1 0 0 14
 265 398 268 ?261 269 270 4 263 -0 0 261 269 19 50 267 324 0 271 263 272 0 +-.00
55 888178419700125e-33 -.004 0 0 -1 -1 0 0 14 271 304 273 ?274 15 275 4 267 -0 0
 274 15 19 51 272 323 0 274 267 276 0 +-.0055 888178419700125e-33 -.004 0 0 -1 7
4e-5 -1 0 0 14 274 307 277 ?278 271 279 4 272 -0 0 278 271 19 50 276 322 0 278 2
72 280 0 +-.0055 888178419700125e-33 -6e-4 0 0 -1 -1 0 0 14 278 311 281 ?269 274
 282 4 276 -0 0 269 274 19 51 280 321 0 269 276 283 0 +-.0055 888178419700125e-3
3 0 0 0 -1 9e-4 -1 0 0 14 269 315 284 ?265 278 285 4 280 -0 0 265 278 19 50 283
 277 0 286 280 287 0 +2224492873652695e-38 -.0055 -.004 0 0 -1 1 -12246063538223
76e-31 0 14 286 263 288 ?289 249 290 4 283 -0 0 289 249 19 51 287 275 0 289 283
 291 0 +2224492873652695e-38 -.0055 0 0 0 -1 8e-4 1 -1224606353822376e-31 0 14 2
89 269 292 ?218 286 293 4 287 -0 0 218 286 19 50 291 243 0 260 287 294 0 +-67355
5739531044e-33 .0055 -.004 0 0 -1 -1 0 0 14 260 229 295 ?252 257 296 4 291 -0 0
 252 257 19 51 294 241 0 252 291 297 0 +-673555739531044e-33 .0055 0 0 0 -1 8e-4
 -1 0 0 14 252 235 298 ?217 260 299 4 294 -0 0 217 260 19 50 297 160 0 300 294 3
01 0 +0 0 .0126 0 0 1 1 0 0 14 300 146 302 ?15 303 304 4 297 +0 0 15 303 19 51 3
01 158 0 303 297 232 0 -0 0 .0126 0 0 -1 .0015 -1 0 0 14 303 140 305 ?300 306 30
7 4 301 -0 0 300 306 19 50 232 91 0 214 301 308 0 +433680868994202e-33 0 .0026 0
 0 1 1 0 0 51 308 89 0 306 232 230 0 +433680868994202e-33 0 0 0 0 1 .003 1 0 0 1
4 306 83 309 ?303 228 310 4 308 +0 0 303 228 19 50 230 55 0 222 308 219 0 +0 0 .
001 0 0 1 1 0 0 51 219 54 0 228 230 216 0 +0 0 0 0 0 1 .0035 1 0 0 14 228 48 311
 ?306 222 312 4 219 +0 0 306 222 19 81 1 311 3097 195 228 313 0 226 309 314 15 3
12 50 0 156 228 315 17 156 0 312 156 156 0 316 153 0 0 +15 315 51 0 164 228 0 17
 164 0 315 164 164 0 317 161 0 0 +17 317 0 318 317 317 0 164 161 0 0 -15 318 32
 0 317 209 236 17 316 0 319 316 316 0 156 153 0 0 -15 319 45 0 316 222 0 80 255
 1 195 0 320 8001 0 0 0 0 3 5 0 0 0 FFFFTFTFFFFFFF2 81 1 313 3096 321 228 322 31
1 323 324 325 81 1 226 3095 195 222 323 0 221 311 326 81 1 309 3099 195 306 324
 0 311 305 327 83 255 3 314 .6 .6 .6 81 1 324 3098 321 306 328 309 313 329 330 8
1 1 305 3101 195 303 329 0 309 302 331 83 3 327 .6 .6 .6 81 1 329 3100 321 303 3
32 305 324 333 334 81 1 302 3103 195 300 333 0 305 335 336 83 3 331 .6 .6 .6 81
 1 333 3102 321 300 337 302 329 338 339 81 1 335 3105 195 15 338 0 302 273 340 8
3 3 336 .6 .6 .6 14 15 198 335 ?271 300 341 4 5 +0 0 271 300 19 81 1 338 3104 32
1 15 342 335 333 343 344 81 1 273 3107 195 271 343 0 335 277 345 83 3 340 .6 .6
 .6 81 1 343 3106 321 271 346 273 338 347 348 81 1 277 3109 195 274 347 0 273 28
1 349 83 3 345 .6 .6 .6 81 1 347 3108 321 274 350 277 343 351 352 81 1 281 3111
 195 278 351 0 277 284 353 83 3 349 .6 .6 .6 81 1 351 3110 321 278 354 281 347 3
55 356 81 1 284 3113 195 269 355 0 281 268 357 83 3 353 .6 .6 .6 81 1 355 3112 3
21 269 358 284 351 359 360 81 1 268 3115 195 265 359 0 284 264 361 83 3 357 .6 .
6 .6 81 1 359 3114 321 265 362 268 355 363 364 81 1 264 3117 195 261 363 0 268 2
59 365 83 3 361 .6 .6 .6 81 1 363 3116 321 261 366 264 359 367 368 81 1 259 3119
 195 257 367 0 264 295 369 83 3 365 .6 .6 .6 81 1 367 3118 321 257 370 259 363 3
71 372 81 1 295 3121 195 260 371 0 259 298 373 83 3 369 .6 .6 .6 81 1 371 3120 3
21 260 374 295 367 375 376 81 1 298 3123 195 252 375 0 295 246 377 83 3 373 .6 .
6 .6 81 1 375 3122 321 252 378 298 371 379 380 81 1 246 3125 195 217 379 0 298 2
41 381 83 3 377 .6 .6 .6 81 1 379 3124 321 217 382 246 375 245 383 83 3 381 .6 .
6 .6 80 1 321 384 385 8015 0 0 0 0 3 5 0 0 0 FFFFTFFFFFFFFF2 81 1 382 2974 24 21
7 0 379 366 386 387 81 1 245 3126 321 240 386 241 379 388 389 83 1 383 0 81 1 38
6 2975 24 240 0 245 382 362 390 81 1 388 3128 321 242 391 247 245 392 393 83 1 3
89 0 81 1 391 2972 24 242 0 388 394 366 395 81 1 247 3129 195 242 388 0 241 396
 397 81 1 392 3130 321 249 398 396 388 399 400 83 1 393 0 14 249 473 396 ?286 24
2 401 4 256 -0 0 286 242 19 81 1 398 2969 24 249 0 392 402 370 403 81 1 396 3131
 195 249 392 0 247 288 404 81 1 399 3132 321 286 405 288 392 406 407 83 1 400 0
 81 1 405 2951 24 286 0 399 378 408 409 81 1 288 3133 195 286 399 0 396 292 410
 81 1 406 3134 321 289 408 292 399 411 412 83 1 407 0 81 1 408 2952 24 289 0 406
 405 413 414 81 1 292 3135 195 289 406 0 288 415 416 81 1 411 3136 321 218 394 4
15 406 417 418 83 1 412 0 14 218 9 415 ?419 289 420 4 216 +209 217 419 289 19 81
 1 394 2971 24 218 0 411 370 391 421 81 1 415 3137 195 218 411 0 292 422 423 81
 1 417 3138 321 419 424 422 411 425 426 83 1 418 0 14 419 553 422 ?427 218 428 4
 207 -0 0 427 218 19 81 1 424 2962 24 419 0 417 429 430 431 81 1 422 3139 195 41
9 417 0 415 432 433 81 1 425 3140 321 427 434 432 417 435 436 83 1 426 0 14 427
 556 432 ?437 419 438 4 439 -0 0 437 419 19 81 1 434 2964 24 427 0 425 430 440 4
41 81 1 432 3141 195 427 425 0 422 442 443 81 1 435 3142 321 437 430 442 425 444
 445 83 1 436 0 14 437 560 442 ?446 427 447 4 448 -0 0 446 427 19 81 1 430 2963
 24 437 0 435 424 434 449 81 1 442 3143 195 437 435 0 432 450 451 81 1 444 3144
 321 446 429 450 435 452 453 83 1 445 0 14 446 564 450 ?454 437 455 4 456 -0 0 4
54 437 19 81 1 429 2961 24 446 0 444 358 424 457 81 1 450 3145 195 446 444 0 442
 458 459 81 1 452 3146 321 454 460 458 444 461 462 83 1 453 0 14 454 737 458 ?46
3 446 464 4 465 -0 0 463 446 19 81 1 460 2967 24 454 0 452 466 402 467 81 1 458
 3147 195 454 452 0 450 468 469 81 1 461 3148 321 463 440 468 452 470 471 83 1 4
62 0 14 463 742 468 ?472 454 473 4 474 -0 0 472 454 19 81 1 440 2965 24 463 0 46
1 434 466 475 81 1 468 3149 195 463 461 0 458 476 477 81 1 470 3150 321 472 402
 476 461 478 479 83 1 471 0 14 472 747 476 ?203 463 480 4 481 -0 0 203 463 19 81
 1 402 2968 24 472 0 470 460 398 482 81 1 476 3151 195 472 470 0 468 483 484 81
 1 478 3152 321 203 466 483 470 485 486 83 1 479 0 14 203 752 483 ?192 472 487 4
 488 -0 0 192 472 19 81 1 466 2966 24 203 0 478 440 460 489 81 1 483 3153 195 20
3 478 0 476 197 490 81 1 485 3154 321 192 491 197 478 196 492 83 1 486 0 81 1 49
1 3081 24 192 0 485 26 493 494 81 1 197 3155 195 192 485 0 483 190 495 81 1 196
 3156 321 189 413 190 485 496 497 83 1 492 0 81 1 413 2954 24 189 0 196 408 498
 499 81 1 496 3158 321 191 493 198 196 500 501 83 1 497 0 81 1 493 3082 24 191 0
 496 491 502 503 81 1 198 3159 195 191 496 0 190 504 505 81 1 500 3160 321 200 5
02 504 496 506 507 83 1 501 0 14 200 3037 504 ?508 191 509 4 510 +0 0 508 191 19
 81 1 502 3083 24 200 0 500 493 511 512 81 1 504 3161 195 200 500 0 198 513 514
 81 1 506 3162 321 508 511 513 500 515 516 83 1 507 0 14 508 3042 513 ?517 200 5
18 4 519 +0 0 517 200 19 81 1 511 3084 24 508 0 506 502 520 521 81 1 513 3163 19
5 508 506 0 504 522 523 81 1 515 3164 321 517 498 522 506 524 525 83 1 516 0 14
 517 654 522 ?526 508 527 4 528 -0 0 526 508 19 81 1 498 2955 24 517 0 515 413 5
29 530 81 1 522 3165 195 517 515 0 513 531 532 81 1 524 3166 321 526 529 531 515
 533 534 83 1 525 0 14 526 662 531 ?206 517 535 4 536 -0 0 206 517 19 81 1 529 2
956 24 526 0 524 498 346 537 81 1 531 3167 195 526 524 0 522 538 539 81 1 533 31
68 321 206 520 538 524 0 540 83 1 534 0 14 206 2996 538 ?0 526 541 4 205 -192 19
2 0 526 19 81 1 520 3085 24 206 0 533 511 0 542 81 1 538 3169 195 206 533 0 531
 0 543 83 1 540 0 83 3 543 .6 .6 .6 80 1 24 544 545 9000 1 1 1 1 1 1 1 1 0 FFFFT
FTFFFFFFF3 84 255 32 542 3479786f42f0c2e8589eacdc8fd326f779 255 15 545 UGS/Objec
tState15 541 634 0 177 206 546 50 205 616 0 192 536 194 0 +0 0 -.01555 0 0 1 1 0
 0 51 536 669 0 526 528 205 0 +0 0 -.0158 0 0 1 .002724 1 0 0 50 528 671 0 517 4
65 536 0 +0 0 -.0111 0 0 1 1 0 0 50 465 765 0 454 474 528 0 +.0075 0 -.0081 0 0
 1 1 0 0 51 474 766 0 463 481 465 0 -0 0 0 0 0 -1 .00685 -1 0 0 52 481 767 0 472
 488 474 0 -0 0 -.0093 0 0 -1 .00685 .5 .86602540378444 -1 0 0 51 488 768 0 203
 202 481 0 -0 0 0 0 0 -1 .007 -1 0 0 51 202 3052 0 191 510 488 0 -0 0 -.01575 0
 0 1 .006 1 0 0 51 510 3053 0 200 519 202 0 -0 0 -.01575 0 0 1 .002824 1 0 0 50
 519 3055 0 508 0 510 0 +0 0 -.01575 0 0 -1 -1 0 0 17 177 0 541 177 177 0 547 62
 0 0 +15 546 2994 0 40 206 0 17 40 0 546 40 40 0 548 38 0 0 +17 548 0 549 548 54
8 0 40 38 0 0 -15 549 3041 0 548 200 0 17 547 0 550 547 547 0 177 62 0 0 -15 550
 653 0 547 526 0 83 3 539 .6 .6 .6 81 1 346 2957 24 271 0 343 529 350 551 84 32
 537 25428d855ba35275552cda139c2fbdb881 1 350 2958 24 274 0 347 346 354 552 84 3
2 551 4329b3391ff6c118f86848617047878a81 1 354 2959 24 278 0 351 350 358 553 84
 32 552 8efd42c11591c58ff7a8f88d7437967e81 1 358 2960 24 269 0 355 354 429 554 8
4 32 553 fe9a9c72bfc8678a2d4983e2099e7a1084 32 554 7f2074a062e0ae0707d8397f4d5e9
6cc15 535 652 0 61 526 550 17 61 0 535 61 61 0 555 58 0 0 +17 555 0 527 555 555
 0 61 58 0 0 -15 527 657 0 555 517 0 83 3 532 .6 .6 .6 84 32 530 c328351a59614ca
011af8b0a987f29eb83 3 523 .6 .6 .6 84 32 521 8c6df5439f8c3274581cdb2c8f0cec4315
 518 3045 0 556 508 557 17 556 0 518 556 556 0 558 41 0 0 +15 557 3046 0 559 508
 0 17 559 0 557 559 559 0 560 36 0 0 -17 560 0 509 560 560 0 559 36 0 0 +16 36 3
024 25 ?560 17 41 34 0 0 1 81 1 25 3078 24 36 0 0 561 20 562 16 17 724 183 ?563
 42 36 6 0 0 1 16 41 3026 561 ?556 36 38 37 0 0 1 81 1 561 3077 24 41 0 0 362 25
 564 31 37 3059 0 41 0 34 0 +0 0 -.01575 0 0 -1 1 1224646799147352e-31 0 .006 81
 1 362 2976 24 265 0 359 386 561 565 84 32 564 7ddd2617611243f1781eb2b90d7b57e98
4 32 565 715183e992423f44e078ab20a959f1de81 1 183 2928 24 17 0 0 48 180 566 17 5
63 0 187 563 563 0 567 17 0 0 +15 187 1578 0 563 13 0 17 567 0 487 567 567 0 563
 17 0 0 -15 487 755 0 567 203 568 15 568 756 0 45 203 0 17 45 0 568 45 45 0 569
 42 0 0 +17 569 0 480 569 569 0 45 42 0 0 -15 480 750 0 569 472 570 15 570 751 0
 49 472 0 17 49 0 570 49 49 0 571 46 0 0 +17 571 0 473 571 571 0 49 46 0 0 -15 4
73 745 0 571 463 572 15 572 746 0 53 463 0 17 53 0 572 53 53 0 573 50 0 0 +17 57
3 0 464 573 573 0 53 50 0 0 -15 464 740 0 573 454 574 15 574 741 0 57 454 0 17 5
7 0 574 57 57 0 233 54 0 0 +81 1 48 2927 24 46 0 0 56 183 575 84 32 566 df0f9e13
e4ee5071c48bf833b479ba7981 1 56 2926 24 54 0 0 44 48 576 84 32 575 fba5b564087fb
a10ad590a3dcbe157d181 1 44 2925 24 42 0 0 52 56 577 84 32 576 ab9ba640cb334c9d82
3b610993c6315d81 1 52 2924 24 50 0 0 70 44 578 84 32 577 da4a70b3187f83a2cdf8398
03e45c69881 1 70 2923 24 67 0 0 82 52 579 84 32 578 09997ca74a4cfb5b2c861462fdc3
602281 1 82 2922 24 80 0 0 78 70 580 84 32 579 2106ed0bb29eec61671e8724bc21df238
1 1 78 2921 24 76 0 0 74 82 581 84 32 580 4a24c7e60fe786b6720d7dc4ee66fc8681 1 7
4 2920 24 72 0 0 118 78 582 84 32 581 1bcc40f8ab8baa0e2937486a9d87159981 1 118 2
919 24 110 0 0 122 74 583 84 32 582 a9645951fb74b9a78c7326d5660d2da081 1 122 291
8 24 120 0 0 126 118 584 84 32 583 2773153653625398b3cbdbe8dc25d24181 1 126 2917
 24 124 0 0 130 122 585 84 32 584 07d67829cdbcc2537946571c3955a10281 1 130 2916
 24 128 0 0 60 126 586 84 32 585 ba8ace001cfcdb3e717397643688a25381 1 60 2915 24
 58 0 0 65 130 587 84 32 586 0b855367d7c24a75f8c4b49e3540725281 1 65 2914 24 63
 0 0 135 60 588 84 32 587 9cdfc5d66a79780466e01c9cfbb12e8081 1 135 2913 24 133 0
 0 139 65 589 84 32 588 e2a99f0ae543c9d274c0196f0c2d988b81 1 139 2912 24 132 0 0
 147 135 590 84 32 589 1ff99dad29a8f4820929ed20757fbf0381 1 147 2911 24 137 0 0
 143 139 591 84 32 590 17a96111d2af75d0abe4541a4bf643d481 1 143 2910 24 141 0 0
 172 147 592 84 32 591 f4cadde7b59df7dce620bd3a2598710481 1 172 2909 24 32 0 0 3
0 143 593 84 32 592 3a585f1f7013efab826d64f89feaa9d381 1 30 2908 24 22 0 0 170 1
72 594 84 32 593 83db219fc2f2820c9297e002be91229981 1 170 2907 24 145 0 0 167 30
 595 84 32 594 2a1782e9d03004cebf86d781a112cc8281 1 167 2906 24 165 0 0 151 170
 596 84 32 595 aba2185886bc9259e57d4fd427bbf09181 1 151 2905 24 149 0 0 163 167
 597 84 32 596 0ddcaa2d2b9301bab7a9ee234f7712c681 1 163 2904 24 161 0 0 159 151
 598 84 32 597 b54199a711ff8857506f4b80c5e5e88181 1 159 2903 24 157 0 0 155 163
 599 84 32 598 a39ccd17ca21eefffd8373981a9c8cb881 1 155 2902 24 153 0 0 0 159 60
0 84 32 599 1823eff5518ba85ad4c507a993983d8684 32 600 063940745cf9d47eac9c6dd1f5
491c8a84 32 562 9d3fd62161c4a851aa562d17d3f39bf215 509 3040 0 560 200 549 17 558
 0 201 558 558 0 556 41 0 0 -15 201 3035 0 558 191 28 15 28 3036 0 21 191 0 83 3
 514 .6 .6 .6 84 32 512 74478fc2e658e806147d24880a0c995e83 3 505 .6 .6 .6 84 32
 503 a4631dcb1c7afb7f090ff0687387079f84 32 499 f86eb22c6205a68e34886748952d26cb8
3 3 495 .6 .6 .6 81 1 26 3080 24 38 0 0 20 491 601 84 32 494 15134bfd6f1623f0b9c
a799d0e49f3be84 32 601 7a6851df9078a55fc41c9bda1d839df983 3 490 .6 .6 .6 84 32 4
89 80b8f7d55be90f528e635e66e0ca463a83 3 484 .6 .6 .6 84 32 482 7a619a07d6e2c8e96
4591de5054f83bf83 3 477 .6 .6 .6 84 32 475 ee2f8f6bb30378547012e3a093a59d7a83 3
 469 .6 .6 .6 84 32 467 6097c444dc9a5b0a5609761d8860c44e83 3 459 .6 .6 .6 84 32
 457 5f7177f97ca86ee73deee60e1e5fb37815 455 566 0 75 446 602 51 456 570 0 446 44
8 256 0 +.0055 -156173415923117e-32 0 0 0 -1 9e-4 1 -1224646799147352e-31 0 50 4
48 571 0 437 439 456 0 +.0055 -156173415923117e-32 -6e-4 0 0 -1 1 -1224646799147
352e-31 0 50 256 488 0 249 456 251 0 +0 -.0055 -1e-5 0 0 -1 -1 0 0 51 439 572 0
 427 207 448 0 +.0055 -156173415923117e-32 -.004 0 0 -1 74e-5 1 -122464679914735
2e-31 0 50 207 573 0 419 194 439 0 +.0055 -156173415923117e-32 -.004 0 0 -1 1 -1
224646799147352e-31 0 17 75 0 455 75 75 0 603 72 0 0 +15 602 567 0 604 446 0 17
 604 0 602 604 604 0 71 67 0 0 -17 71 0 215 71 71 0 604 67 0 0 +15 215 536 0 71
 209 605 15 605 377 0 606 209 607 17 606 0 605 606 606 0 113 94 0 0 -15 607 289
 0 119 209 318 17 119 0 607 119 119 0 608 110 0 0 +17 608 0 609 608 608 0 119 11
0 0 0 -15 609 318 0 608 269 0 17 113 0 610 113 113 0 606 94 0 0 +15 610 402 0 11
3 265 0 17 603 0 611 603 603 0 75 72 0 0 -15 611 563 0 603 437 0 83 3 451 .6 .6
 .6 84 32 449 f96fe2975762f273506c4b398264dd9215 447 562 0 79 437 611 17 79 0 44
7 79 79 0 612 76 0 0 +17 612 0 613 612 612 0 79 76 0 0 -15 613 559 0 612 427 0 8
3 3 443 .6 .6 .6 84 32 441 44e4b91ea260a2d1dbefd1128d390fd815 438 558 0 83 427 6
13 17 83 0 438 83 83 0 614 80 0 0 +17 614 0 428 614 614 0 83 80 0 0 -15 428 555
 0 614 419 0 83 3 433 .6 .6 .6 84 32 431 5e6771aa0eafae6c8d5ffa10032c640b83 3 42
3 .6 .6 .6 81 1 370 2970 24 257 0 367 398 394 615 84 32 421 7fdec625e304f99f50a8
73bf26707f6784 32 615 f0148ed641ad476b145c0d059833f83e15 420 436 0 616 218 617 1
7 616 0 420 616 616 0 100 90 0 0 -15 617 253 0 140 218 0 17 140 0 617 140 140 0
 618 132 0 0 +17 618 0 619 618 618 0 140 132 0 0 -15 619 272 0 618 289 0 17 100
 0 620 100 100 0 616 90 0 0 +15 620 472 0 100 242 0 83 3 416 .6 .6 .6 84 32 414
 7a3e02831cf0a81bcb5764e8c6d4fff483 3 410 .6 .6 .6 81 1 378 2950 24 252 0 375 37
4 405 621 84 32 409 8064f7f57b2b08c8a8e88a6618d64ca981 1 374 2949 24 260 0 371 3
42 378 622 84 32 621 ae4cb8e9a2f83d0e3f3ad9cae238ba1f81 1 342 2948 24 15 0 338 3
37 374 623 84 32 622 f37cf9dc0850faf609299fa00364a0d081 1 337 2947 24 300 0 333
 332 342 624 84 32 623 a67acce47148d80c438a7a4fb3b782c481 1 332 2946 24 303 0 32
9 625 337 626 84 32 624 a2a465ba10c5ea8156173394e844047d81 1 625 2945 24 214 0 6
27 328 332 628 84 32 626 e54f71ac93535bbd929f1be86b5d9cb181 1 627 3090 321 214 6
25 225 629 224 630 81 1 328 2944 24 306 0 324 631 625 632 84 32 628 3bb2e0f9e182
8d2fe7a1cfa26da8f79881 1 631 2943 24 13 0 211 633 328 634 84 32 632 4e726ca07c93
17fe4b959f23d37d8b4f81 1 211 3086 321 13 631 208 0 629 635 81 1 633 2942 24 220
 0 224 636 631 637 84 32 634 1ec64f916279f30aed090dedfa9f83d381 1 224 3092 321 2
20 633 221 627 323 638 81 1 636 2941 24 209 0 629 639 633 640 84 32 637 bbf52b71
473b9b2b5a5da34e506547fe81 1 629 3088 321 209 636 212 211 627 641 81 1 639 2940
 24 222 0 323 322 636 642 84 32 640 92957277bf3108eef03bbb7e2b54216d81 1 323 309
4 321 222 639 226 224 313 643 81 1 322 2939 24 228 0 313 103 639 644 84 32 642 0
0266665a37b955ed213137f013c239a81 1 103 2938 24 101 0 0 87 322 645 84 32 644 cd9
ca3b2cb09c9e96ac1b62ad1f07db381 1 87 2937 24 85 0 0 115 103 646 84 32 645 9b5557
c63ebc1037fffe5e7c451b6bb481 1 115 2936 24 106 0 0 99 87 647 84 32 646 a6687a0a9
d54d2b6d61cb947fc60584d81 1 99 2935 24 90 0 0 108 115 648 84 32 647 bd0e284b92ac
e76e15148ab6a693b65b81 1 108 2934 24 105 0 0 92 99 649 84 32 648 6bde0ffe1c66c4f
952c330ef9770b99f81 1 92 2933 24 89 0 0 112 108 650 84 32 649 fbb526e65f1278e5fd
e0457b5dfa448781 1 112 2932 24 94 0 0 96 92 651 84 32 650 a879ae08cc64d6fc365826
152d7d5ace81 1 96 2931 24 84 0 0 176 112 652 84 32 651 ccadf714e9ce7b5bddd96a073
224b83581 1 176 2930 24 62 0 0 180 96 653 84 32 652 1e447cdd8ee13b3ca7863d883aed
5e7984 32 653 c53692955ad7631350edb3fa485976fc83 1 643 0 81 1 212 3089 195 209 6
29 0 208 225 654 83 1 641 0 81 1 225 3091 195 214 627 0 212 221 655 83 3 654 .6
 .6 .6 83 3 655 .6 .6 .6 83 1 638 0 83 1 635 0 83 1 630 0 83 3 404 .6 .6 .6 84 3
2 403 9478567719fe1b71a0566634475939a515 401 476 0 88 249 656 17 88 0 401 88 88
 0 254 85 0 0 +15 656 477 0 657 249 0 17 657 0 656 657 657 0 93 89 0 0 -17 93 0
 250 93 93 0 657 89 0 0 +15 250 471 0 93 242 620 17 254 0 243 254 254 0 88 85 0
 0 -83 3 397 .6 .6 .6 81 1 366 2973 24 261 0 363 391 382 658 84 32 395 5fd5260f4
774de09eea58aadaeea57d784 32 658 76adb5891e07a7e972919f852295a47784 32 390 52158
32cfeebe62cd28209646ad7314384 32 387 ef5907878cc91f4edc5da18cc32046a079 21 385 S
DL/TYSA_TRANSLUCENCY83 1 380 0 83 1 376 0 83 1 372 0 83 1 368 0 83 1 364 0 83 1
 360 0 83 1 356 0 83 1 352 0 83 1 348 0 83 1 344 0 15 341 199 0 659 15 660 17 65
9 0 341 659 659 0 31 22 0 0 -15 660 200 0 661 15 0 17 661 0 660 661 661 0 173 32
 0 0 -17 173 0 304 173 173 0 661 32 0 0 +15 304 175 0 173 300 0 17 31 0 307 31 3
1 0 659 22 0 0 +15 307 183 0 31 303 662 15 662 144 0 663 303 0 17 663 0 662 663
 663 0 171 145 0 0 -17 171 0 664 171 171 0 663 145 0 0 +15 664 117 0 171 214 0 8
3 1 339 0 83 1 334 0 83 1 330 0 83 3 326 .6 .6 .6 83 1 325 0 79 15 320 SDL/TYSA_
COLOUR15 310 85 0 168 306 665 17 168 0 310 168 168 0 666 165 0 0 +15 665 86 0 66
7 306 0 17 667 0 665 667 667 0 152 149 0 0 -17 152 0 231 152 152 0 667 149 0 0 +
15 231 79 0 152 214 664 17 666 0 229 666 666 0 168 165 0 0 -15 229 62 0 666 222
 319 15 299 237 0 144 252 668 17 144 0 299 144 144 0 669 141 0 0 +15 668 238 0 6
70 252 0 17 670 0 668 670 670 0 148 137 0 0 -17 148 0 253 148 148 0 670 137 0 0
 +15 253 219 0 148 217 671 15 671 370 0 116 217 0 17 116 0 671 116 116 0 672 106
 0 0 +17 672 0 673 672 672 0 116 106 0 0 -15 673 407 0 672 261 0 17 669 0 296 66
9 669 0 144 141 0 0 -15 296 231 0 669 260 0 15 293 271 0 136 289 619 17 136 0 29
3 136 136 0 674 133 0 0 +17 674 0 290 674 674 0 136 133 0 0 -15 290 265 0 674 28
6 0 15 285 317 0 123 269 609 17 123 0 285 123 123 0 675 120 0 0 +17 675 0 676 67
5 675 0 123 120 0 0 -15 676 314 0 675 278 0 15 282 313 0 127 278 676 17 127 0 28
2 127 127 0 677 124 0 0 +17 677 0 678 677 677 0 127 124 0 0 -15 678 310 0 677 27
4 0 15 279 309 0 131 274 678 17 131 0 279 131 131 0 679 128 0 0 +17 679 0 275 67
9 679 0 131 128 0 0 -15 275 306 0 679 271 0 15 270 401 0 104 265 610 17 104 0 27
0 104 104 0 680 101 0 0 +17 680 0 262 680 680 0 104 101 0 0 -15 262 411 0 680 25
7 681 15 681 412 0 109 257 0 17 109 0 681 109 109 0 682 105 0 0 +17 682 0 266 68
2 682 0 109 105 0 0 -15 266 406 0 682 261 673 83 3 248 .6 .6 .6 83 3 227 .6 .6 .
6 83 3 213 .6 .6 .6 17 66 0 193 66 66 0 683 63 0 0 +17 683 0 684 683 683 0 66 63
 0 0 -15 684 602 0 683 192 0 15 204 3003 0 29 192 684 17 29 0 204 29 29 0 21 8 0
 0 -83 3 199 .6 .6 .6 84 32 184 2a746f94c5dc476b6d095a310ddc8bb884 32 27 f2d87d6
c97bd2a1541ec894064f0837819 14 5 0 1 0 7 4 S0 74 4 CI16 index_map_offset0 0 1 dC
CZ20 12 5 0 0 520 10 533 538 2 0 0 0 0 0 0 0 0 0 0 0 0 0 0 0 81 2 10 3076 685 1
 0 2 0 0 686 687 80 2 685 688 689 8004 0 0 0 0 3 5 0 0 0 FFTFFFFFFFFFFF2 3 83 1
 686 .001 84 8 687 Kg/Cu M 79 16 689 SDL/TYSA_DENSITY80 1 9 690 691 9000 0 0 0 0
 3 5 0 0 0 FFTFFFFFFFFFFF1 82 255 1 11 87 79 24 691 UG2/BODY_COLOR_ATTRIBUTE1 0
 
