**ABCDEFGHIJKLMNOPQRSTUVWXYZabcdefghijklmnopqrstuvwxyz**************************
**PARASOLID !"#$%&'()*+,-./:;<=>?@[\]^_`{|}~0123456789**************************
**PART1;
MC=x64/Windows NT;
MC_MODEL=genuineintel family 6 model 10 stepping 5, intel(r) xeon(r) cpu           w3550  @ 3.07ghz;
MC_ID=pc1401;
OS=windows nt (x64);
OS_RELEASE=6.1 windows 7 professional (build 7601) service pack 1;
FRU=mdc_ugii_v7.0_djl_can_vrh;
APPL=unigraphics;
SITE=unknown;
USER=huge;
FORMAT=text;
GUISE=transmit;
KEY=15-A_flange_b;
FILE=D:\Daten-Huge\PLM_Export\A_Internet_Modelle\Getriebe\15-x\15-A\15-A_flange_b.x_t;
DATE=22-aug-2016;
**PART2;
SCH=SCH_2701211_26105;
USFLD_SIZE=0;
**PART3;
**END_OF_HEADER*****************************************************************
T51 : TRANSMIT FILE created by modeller version 270121123 SCH_2701211_26105_1300
6200 0 12 30 CCCCCCCCCCCCCDI5 owner1040 0 CCCCCCCCCA13 boundary_mesh1006 0 A16 i
ndex_map_offset0 0 1 dA9 index_map82 0 A17 node_id_index_map82 0 A20 schema_embe
dding_map82 0 A5 child12 0 A14 lowest_node_id0 0 1 dZ1 1208 2 3 0 0 0 0 1e3 1e-8
 0 0 0 1 0 1 1 4 5 6 7 8 9 10 0 0 0 0 0 0 0 81 255 2 2 1185 11 1 12 0 0 0 13 14
 70 11 CI9 list_type0 0 1 uI10 notransmit0 0 1 lCCCDCCDI12 finger_index0 0 1 dI1
2 finger_block1012 0 CZ3 0 4 T1 0 0 5 20 1 15 15 13 255 4 3 0 1 0 16 0 0 17 0 52
 255 5 826 0 18 19 0 0 +0 0 0 0 0 1 .00745 .707106781186545 .70710678118655 1 0
 0 31 255 6 810 0 9 20 0 0 +0 0 5e-5 0 0 1 1 0 0 .0075 29 255 7 681 0 10 21 0 -.
003037536977519085 .004011255574920655 -.000998752343432792 19 8 CCCCCCCA5 owner
12 0 Z8 55 0 1 17 0 22 V0 16 255 9 807 23 ?24 0 25 6 0 0 1 18 255 10 679 0 26 0
 27 7 96661710775223e-20 1 17 255 26 0 28 29 30 10 31 32 33 34 +18 27 675 0 29 1
0 35 21 ?1 17 29 0 28 36 26 27 34 37 0 38 -18 35 671 0 39 27 40 41 ?1 29 21 678
 0 27 41 7 -.00309192250793719 .00412949615241026 0 29 41 674 0 35 42 21 -.00292
8419371585475 .003875064559417685 0 29 42 549 0 40 43 41 -.00193874194370427 .00
460510773505182 -.000998752343432793 18 40 547 0 44 35 45 42 857538172641113e-21
 1 29 43 546 0 45 46 42 -.001892257665966905 .004475983987984425 0 18 45 543 0 4
7 40 48 43 ?1 29 46 542 0 48 49 43 -.002031772570201405 .0047441174463287 0 18 4
8 541 0 36 45 50 46 ?1 29 49 644 0 50 51 46 -.001955810901067305 .00463750825550
446 -.000998752343432793 18 50 610 0 52 48 53 49 857538172641113e-21 1 29 51 777
 0 53 0 49 -.00301667369605457 .00397845488211677 -.000998752343432792 18 53 742
 0 30 50 0 51 96661710775223e-20 1 17 30 0 28 26 54 53 55 56 0 31 +15 255 28 680
 0 54 57 58 17 54 0 28 30 47 35 59 60 0 55 +17 55 0 61 62 31 35 30 56 0 0 -16 56
 688 63 ?30 25 37 64 0 0 1 17 31 0 61 55 34 53 26 32 65 0 -15 61 747 0 55 66 0 1
7 34 0 61 31 62 10 29 37 0 0 +16 32 683 67 96661710775223e-20 26 37 68 0 0 0 1 1
33 255 65 768 0 31 69 70 0 +70 -.003037536977519085 .004011255574920655 -.000998
752343432792 -.00301667369605457 .00397845488211677 -.000998752343432792 0 1 31
 69 775 0 71 72 65 0 +-.002900055247967185 .004073043034235955 1598785535245425e
-33 -612303176911189e-31 -308148791101958e-47 1 .90630778703665 .422618261740699
5 55493513726189e-30 2e-4 137 255 70 767 0 1 65 73 74 +75 76 0 ?31 73 643 0 1 70
 77 78 +-.002123480763027105 .00452848157349321 -.000998752343432793 0 0 1 -1 12
24646799147352e-31 0 2e-4 141 255 74 65 74 74 70 67 255 75 764 0 66 0 79 80 +72
 -.0409064263825332 -.0286429881142703 .998752343432793 .0001995012487024995 134
 255 76 0 0 0 0 0 0 +81 82 136 255 81 1 2 2 2 5 FFF1 83 84 85 135 255 82 2 0 45
 255 4 83 3.174437190092005 0 3.369112791722915 0 127 255 2 84 2 2 128 255 2 85
 0 1 14 255 66 750 86 ?18 87 61 4 75 +0 0 18 87 22 67 79 632 0 87 75 88 89 +73 .
0452587685385203 .02110451036817655 .998752343432793 .000199501248702499 141 80
 90 91 92 75 31 72 776 0 1 0 69 93 +-.00285914882158465 .004101686022350225 -.00
0998752343432792 -612303176911189e-31 -308148791101958e-47 1 .90630778703665 .42
26182617406995 55493513726189e-30 2e-4 141 93 75 93 93 72 38 255 90 687 0 1 94 9
5 96 -97 75 98 99 100 141 91 70 92 80 75 141 92 95 80 91 75 38 95 690 0 1 90 33
 101 +97 75 102 103 104 133 33 711 0 26 95 105 0 +105 -.00301667369605457 .00397
845488211677 -.000998752343432792 -.003037536977519085 .004011255574920655 -.000
998752343432792 1 0 141 101 64 101 101 95 51 255 97 488 0 57 88 106 107 --.0025
 .0043301270189222 0 0 0 -1 625e-6 -1 0 0 40 255 5 102 0 1 5 171797822796997e-19
 .3497652250503065 ??-.002928419371585615 .003875064559417725 -607153216591882e-
32 -.002949058544215775 .00389541858345448 -.0003979841717038655 -.0029790979006
44595 .003928766580424755 -.000775196485562136 -.003000674025678335 .00395602740
6540105 -.000935801477743435 -.003016673696054565 .003978454882116765 -.00099875
2343432795 41 255 1 103 L-.002928419371585615 .003875064559417725 -6071532165918
82e-32 41 1 104 L-.003016673696054565 .003978454882116765 -.000998752343432795 1
4 57 475 108 ?109 110 28 4 97 -0 0 109 110 22 50 255 88 490 0 109 79 97 0 +-.002
5 .0043301270189222 -.0013 0 0 -1 -1 0 0 50 106 436 0 110 97 111 0 +-.0025 .0043
301270189222 .0018 0 0 -1 -1 0 0 141 107 112 113 114 97 38 112 555 0 1 115 116 1
17 +97 79 118 119 120 141 113 105 121 107 97 141 114 116 107 122 97 38 116 558 0
 1 112 123 124 -97 79 125 126 127 141 122 128 114 129 97 137 128 580 0 1 123 130
 131 -97 132 0 ?141 129 90 122 121 97 141 121 95 129 113 97 133 123 579 0 44 116
 128 0 +128 -.001955810901067305 .00463750825550446 -.000998752343432793 -.00193
874194370427 .00460510773505182 -.000998752343432793 1 0 133 130 582 0 133 128 9
4 0 +112 -.00193874194370427 .00460510773505182 -.000998752343432793 -.001892257
665966905 .004475983987984425 -433680868994202e-33 0 .00100957152911124 141 131
 123 131 131 128 134 132 0 0 0 0 0 0 +134 135 136 134 1 2 2 2 5 FFF1 136 137 138
 135 135 1 0 45 4 136 2.686028338779085 .000998752343432793 2.62742536172024 .00
0998752343432793 127 2 137 2 2 128 2 138 0 1 16 133 554 139 ?47 68 140 130 0 0 1
 133 94 583 0 68 130 90 0 +116 -.00195581090106731 .00463750825550446 -.00099875
2343432795 -.00203177257020728 .00474411744633208 794720192431875e-31 .001011840
372916408 0 16 68 556 141 ?142 32 133 94 0 0 1 81 1 141 1011 143 68 0 0 67 139 1
44 17 142 0 145 146 147 48 52 68 0 0 +15 145 615 0 142 87 0 17 146 0 145 148 142
 45 149 150 0 0 -17 147 0 145 142 148 50 44 140 151 0 -17 52 0 28 44 36 50 142 6
8 0 147 -17 44 0 28 47 52 40 147 140 123 148 +17 36 0 28 52 29 48 38 152 0 149 +
17 38 0 153 39 149 27 36 152 0 62 -16 152 676 154 ?36 60 155 156 60 60 1 17 149
 0 153 38 59 48 146 150 0 142 +15 153 456 0 38 16 0 17 59 0 153 149 39 45 54 60
 0 146 -16 150 601 157 ?149 158 71 77 0 0 1 81 1 157 1016 143 150 0 0 154 159 16
0 16 158 413 161 ?162 163 150 164 0 0 1 16 71 723 159 ?39 150 0 69 0 0 1 31 77 6
42 0 150 73 151 0 +-.002078221994488585 .00454958608386138 0 0 0 1 -1 1224646799
147352e-31 0 2e-4 133 151 636 0 147 77 165 0 +165 -.00193874194370427 .004605107
73505182 -.000998752343432793 -.001955810901067305 .00463750825550446 -.00099875
2343432793 0 1 137 165 635 0 1 151 166 167 +79 168 0 ?31 166 438 0 163 165 164 0
 +-.0025 .0043301270189222 .0018 0 0 -1 183697019872103e-30 -1 0 25e-5 141 167 1
51 167 167 165 134 168 0 0 0 0 0 0 +169 170 136 169 1 2 2 2 5 FFF1 171 172 173 1
35 170 2 0 45 4 171 3.534776019554285 0 3.718140894305565 0 127 2 172 2 2 128 2
 173 0 1 16 163 417 174 ?175 176 158 166 0 0 1 31 164 437 0 158 166 177 0 +-.002
5 .0043301270189222 .0019 0 0 -1 183697019872103e-30 -1 0 25e-5 31 177 386 0 178
 164 179 0 +.005 -612303176911189e-33 8e-4 0 0 -1 -612282954248701e-31 -1 0 .001
6 16 178 359 180 ?181 182 176 177 0 0 1 31 179 385 0 176 177 183 0 +.005 -612303
176911189e-33 .0019 0 0 -1 -612282954248701e-31 -1 0 .0016 16 176 358 184 ?185 1
78 163 179 0 0 1 31 183 274 0 186 179 187 0 +-.005 0 8e-4 0 0 -1 -61232339957367
7e-31 1 0 .0016 16 186 247 188 ?189 190 191 183 0 0 1 31 187 273 0 191 183 192 0
 +-.005 0 .0019 0 0 -1 -612323399573677e-31 1 0 .0016 16 191 246 193 ?194 186 19
5 187 0 0 1 31 192 218 0 196 187 197 0 --.005 0 0 0 0 1 1 0 0 85e-5 16 196 197 1
98 ?199 200 190 192 0 0 1 31 197 111 0 200 192 201 0 +0 0 .0095 0 0 -1 -1 0 0 .0
0724641016151378 16 200 57 202 ?203 204 196 197 0 0 1 31 201 112 0 204 197 205 0
 +0 0 .0089 0 0 -1 -1 0 0 .0069 16 204 59 206 ?207 208 200 201 0 0 1 31 205 113
 0 208 201 209 0 +0 0 .0081 0 0 -1 -1 0 0 .0069 16 208 64 210 ?211 212 204 205 0
 0 1 31 209 114 0 212 205 213 0 +0 0 .00792679491924311 0 0 -1 -1 0 0 .007 16 21
2 69 214 ?215 216 208 209 0 0 1 31 213 115 0 216 209 217 0 +0 0 .0019 0 0 -1 -1
 0 0 .007 16 216 74 218 ?219 220 212 213 0 0 1 31 217 116 0 220 213 221 0 +0 0 .
0019 0 0 -1 -1 0 0 .003 16 220 79 222 ?223 224 216 217 0 0 1 31 221 117 0 224 21
7 225 0 +0 0 0 0 0 -1 -1 0 0 .003 16 224 84 226 ?227 155 220 221 0 0 1 31 225 11
9 0 155 221 228 0 +0 0 .0095 0 0 -1 -1 0 0 .0075 16 155 94 229 ?230 152 224 225
 0 0 1 31 228 230 0 190 225 231 0 +-.005 0 8e-4 0 0 -1 -1 0 0 85e-5 16 190 245 2
32 ?233 196 186 228 0 0 1 31 231 294 0 195 228 234 0 -.005 -612303176911189e-33
 0 0 0 1 1 0 0 85e-5 16 195 308 235 ?236 191 182 231 0 0 1 31 234 344 0 182 231
 156 0 +.005 -612303176911189e-33 8e-4 0 0 -1 -1 0 0 85e-5 16 182 357 237 ?238 1
95 178 234 0 0 1 31 156 457 0 60 234 239 0 --.0025 .0043301270189222 0 0 0 1 1 0
 0 625e-6 16 60 454 240 ?54 241 152 156 152 152 1 31 239 504 0 241 156 115 0 +-.
0025 .0043301270189222 -.0013 0 0 -1 -1 0 0 325e-6 16 241 501 242 ?243 244 60 23
9 0 0 1 31 115 510 0 244 239 112 0 --.0025 .0043301270189222 -.001 0 0 -1 -1 0 0
 625e-6 16 244 507 245 ?246 140 241 115 0 0 1 81 1 245 988 143 244 0 0 247 242 2
48 17 246 0 58 246 246 0 249 244 0 0 +16 140 551 250 857538172641113e-21 44 133
 244 0 0 0 1 81 1 250 1013 143 140 0 0 139 240 251 80 255 1 143 252 253 9000 1 1
 1 1 1 1 1 1 0 FFFFTFTFFFFFFF3 81 1 139 1012 143 133 0 0 141 250 254 81 1 240 10
14 143 60 0 0 250 154 255 84 255 32 251 10c7882a2eb05ad4d72d6104ad328c2381 1 154
 1015 143 152 0 0 240 157 256 84 32 255 460c3768e98bb34ac8d1a1a7279c7f2484 32 25
6 6f2c88a1c66008a4321b0265682b66ee84 32 254 d8d3446636adb3f04b9376fdd5fbc0bf79 2
55 15 253 UGS/ObjectState15 58 508 0 246 57 0 17 249 0 257 249 249 0 246 244 0 0
 -15 257 520 0 249 258 259 14 258 519 260 ?87 109 257 4 19 +0 0 87 109 22 15 259
 521 0 261 258 0 17 261 0 259 261 261 0 243 241 0 0 -17 243 0 262 243 243 0 261
 241 0 0 +15 262 502 0 243 109 0 14 109 480 263 ?258 57 262 4 88 +0 0 258 57 22
 81 1 263 1204 264 109 265 0 108 260 266 13 22 54 0 0 0 0 0 0 8 16 14 16 92 267
 ?268 0 269 4 270 -0 0 268 0 22 81 1 267 1186 264 16 271 0 0 272 273 14 268 82 2
72 ?274 16 275 4 276 -0 0 274 16 22 15 269 802 0 277 16 278 50 270 108 0 16 279
 280 0 +0 .0075 0 0 0 1 1 0 0 51 279 107 0 281 276 270 0 +0 0 0 0 0 -1 .003 -1 0
 0 51 280 109 0 282 270 283 0 -0 0 0 0 0 -1 .0075 -1 0 0 14 282 97 284 ?281 274
 285 4 280 -0 0 281 274 22 50 283 110 0 274 280 19 0 +0 .00724641016151378 .0095
 0 0 -1 -1 0 0 14 274 100 286 ?282 268 287 4 283 -0 0 282 268 22 52 19 526 0 258
 283 5 0 +-.0025 .0043301270189222 -.0013 0 0 1 325e-6 .707106781186547 .7071067
81186548 1 0 0 81 1 286 1188 264 274 288 0 272 284 289 15 287 174 0 290 274 291
 17 290 0 287 290 290 0 230 155 0 0 -15 291 99 0 203 274 0 17 203 0 291 203 203
 0 292 200 0 0 +17 292 0 293 292 292 0 203 200 0 0 -15 293 166 0 292 294 295 14
 294 62 296 ?297 298 293 4 299 -0 0 297 298 22 15 295 61 0 207 294 0 17 207 0 29
5 207 207 0 300 204 0 0 +17 300 0 301 300 300 0 207 204 0 0 -15 301 167 0 300 29
8 302 14 298 67 303 ?294 304 301 4 305 -0 0 294 304 22 15 302 66 0 211 298 0 17
 211 0 302 211 211 0 306 208 0 0 +17 306 0 307 306 306 0 211 208 0 0 -15 307 168
 0 306 304 308 14 304 72 309 ?298 310 307 4 311 -0 0 298 310 22 15 308 71 0 215
 304 0 17 215 0 308 215 215 0 312 212 0 0 +17 312 0 313 312 312 0 215 212 0 0 -1
5 313 169 0 312 310 314 14 310 77 315 ?304 281 313 4 316 -0 0 304 281 22 15 314
 76 0 219 310 0 17 219 0 314 219 219 0 317 216 0 0 +17 317 0 318 317 317 0 219 2
16 0 0 -15 318 170 0 317 268 319 15 319 402 0 162 268 0 17 162 0 319 162 162 0 3
20 158 0 0 +17 320 0 321 320 320 0 162 158 0 0 -15 321 423 0 320 322 0 14 322 41
9 323 ?110 324 325 4 111 +0 0 110 324 22 81 1 323 1201 264 322 326 0 327 328 329
 14 110 424 328 ?57 322 330 4 106 -0 0 57 322 22 14 324 371 327 ?322 331 332 4 3
33 -0 0 322 331 22 15 325 422 0 175 322 321 51 111 434 0 322 106 333 0 --.0025 .
0043301270189222 .0018 0 0 1 25e-5 1 0 0 50 333 383 0 324 111 334 0 +.005 -61230
3176911189e-33 8e-4 0 0 -1 1 -1224606353822376e-31 0 51 334 381 0 331 333 335 0
 -.005 -612303176911189e-33 8e-4 0 0 1 .0016 -1 1224606353822376e-31 0 14 331 36
7 336 ?324 337 338 4 334 +0 0 324 337 22 51 335 326 0 337 334 339 0 -.005 -61230
3176911189e-33 -.0231 0 0 1 85e-5 -1 1224606353822376e-31 0 14 337 314 340 ?331
 341 342 4 335 +0 0 331 341 22 50 339 271 0 341 335 343 0 +-.005 0 8e-4 0 0 -1 -
1 0 0 14 341 259 344 ?337 345 346 4 339 -0 0 337 345 22 51 343 269 0 345 339 347
 0 --.005 0 8e-4 0 0 1 .0016 1 0 0 14 345 255 348 ?341 297 349 4 343 +0 0 341 29
7 22 51 347 215 0 297 343 299 0 --.005 0 -.0231 0 0 1 85e-5 1 0 0 14 297 203 350
 ?345 294 351 4 347 +0 0 345 294 22 52 299 102 0 294 347 305 0 +0 0 .0089 0 0 1
 .0069 .5 .866025403784439 1 0 0 51 305 103 0 298 299 311 0 +0 0 0 0 0 -1 .0069
 -1 0 0 52 311 104 0 304 305 316 0 +0 0 .00792679491924311 0 0 -1 .007 .5 .86602
5403784439 -1 0 0 51 316 105 0 310 311 276 0 +0 0 0 0 0 -1 .007 -1 0 0 50 276 10
6 0 268 316 279 0 +0 .003 .0019 0 0 -1 -1 0 0 81 1 350 1195 264 297 352 0 296 34
8 353 15 351 229 0 354 297 355 17 354 0 351 354 354 0 233 190 0 0 -15 355 202 0
 199 297 0 17 199 0 355 199 199 0 356 196 0 0 +17 356 0 357 356 356 0 199 196 0
 0 -15 357 189 0 356 16 153 17 233 0 346 233 233 0 354 190 0 0 +15 346 261 0 233
 341 358 15 358 262 0 359 341 0 17 359 0 358 359 359 0 189 186 0 0 -17 189 0 349
 189 189 0 359 186 0 0 +15 349 257 0 189 345 360 15 360 258 0 361 345 0 17 361 0
 360 361 361 0 194 191 0 0 -17 194 0 362 194 194 0 361 191 0 0 +15 362 237 0 194
 268 363 15 363 81 0 223 268 318 17 223 0 363 223 223 0 364 220 0 0 +17 364 0 36
5 364 364 0 223 220 0 0 -15 365 171 0 364 281 366 14 281 87 367 ?310 282 365 4 2
79 -0 0 310 282 22 15 366 86 0 227 281 0 17 227 0 366 227 227 0 368 224 0 0 +17
 368 0 369 368 368 0 227 224 0 0 -15 369 172 0 368 16 357 81 1 367 1190 264 281
 370 0 284 315 371 80 1 264 0 372 8001 0 0 0 0 3 5 0 0 0 FFFFTFTFFFFFFF2 81 1 37
0 1166 143 281 373 367 374 375 376 81 1 284 1189 264 282 374 0 286 367 377 81 1
 315 1191 264 310 375 0 367 309 378 83 255 3 371 .6 .6 .6 81 1 375 1167 143 310
 379 315 370 380 381 81 1 309 1192 264 304 380 0 315 303 382 83 3 378 .6 .6 .6 8
1 1 380 1168 143 304 383 309 375 384 385 81 1 303 1193 264 298 384 0 309 296 386
 83 3 382 .6 .6 .6 81 1 384 1169 143 298 387 303 380 388 389 81 1 296 1194 264 2
94 388 0 303 350 390 83 3 386 .6 .6 .6 81 1 388 1170 143 294 391 296 384 352 392
 83 3 390 .6 .6 .6 81 1 391 906 393 294 0 388 387 394 395 81 1 352 1171 143 297
 394 350 388 396 397 84 32 392 0e002272027867bb04075d3dabc2cf3381 1 394 908 393
 297 0 352 391 398 399 81 1 396 1172 143 345 398 348 352 400 401 84 32 397 a022d
1387f50f4b8f172595d8c7db58681 1 398 910 393 345 0 396 394 402 403 81 1 348 1196
 264 345 396 0 350 344 404 81 1 400 1173 143 341 402 344 396 405 406 84 32 401 9
8aa90badf4190c04e49d4ccd806e98481 1 402 912 393 341 0 400 398 407 408 81 1 344 1
197 264 341 400 0 348 340 409 81 1 405 1174 143 337 407 340 400 410 411 84 32 40
6 5f70c80981ecb1fb58a045a35e52cdc981 1 407 914 393 337 0 405 402 412 413 81 1 34
0 1198 264 337 405 0 344 336 414 81 1 410 1175 143 331 412 336 405 415 416 84 32
 411 2f92d65c134cedc5fb50ee894449813081 1 412 916 393 331 0 410 407 417 418 81 1
 336 1199 264 331 410 0 340 327 419 81 1 415 1176 143 324 417 327 410 326 420 84
 32 416 a53468a63a3358150426e97a7173c98a81 1 417 918 393 324 0 415 412 421 422 8
1 1 327 1200 264 324 415 0 336 323 423 81 1 326 1177 143 322 421 323 415 424 425
 84 32 420 63c51f4e4cbb3d143137d3d95a68339981 1 421 920 393 322 0 326 417 426 42
7 81 1 424 1178 143 110 426 328 326 428 429 84 32 425 bf5cec7317816d48bcd215f240
f33a5c81 1 426 922 393 110 0 424 421 430 431 81 1 328 1202 264 110 424 0 323 108
 432 81 1 428 1179 143 57 430 108 424 265 433 84 32 429 b51fb6945503d3e3ef05a059
1101f9dc81 1 430 924 393 57 0 428 426 434 435 81 1 108 1203 264 57 428 0 328 263
 436 81 1 265 1180 143 109 434 263 428 437 438 84 32 433 0f1439fce3096ec3470784a
c1c8f942f81 1 434 926 393 109 0 265 430 439 440 81 1 437 1181 143 258 439 260 26
5 441 442 84 32 438 3d4455d65391309767910120e5a866a681 1 439 928 393 258 0 437 4
34 443 444 81 1 260 1205 264 258 437 0 263 445 446 81 1 441 1182 143 87 443 445
 437 447 448 84 32 442 f3dfb5e4d77ae3c94520ae2cf9c2898b14 87 620 445 ?66 258 145
 4 79 +0 0 66 258 22 81 1 443 930 393 87 0 441 439 449 450 81 1 445 1206 264 87
 441 0 260 86 451 81 1 447 1183 143 66 449 86 441 452 453 84 32 448 724432969403
70b4f157fe9d67754df681 1 449 932 393 66 0 447 443 454 455 81 1 86 1207 264 66 44
7 0 445 456 457 81 1 452 1184 143 18 454 456 447 0 458 84 32 453 1fff5bb7bb31e8d
9b7da02acebd62a7014 18 819 456 ?0 66 459 4 5 +0 0 0 66 22 81 1 454 934 393 18 0
 452 449 0 460 81 1 456 1208 264 18 452 0 86 0 461 84 32 458 1c53a399d7dc8a0ff10
6c487438b73c383 3 461 .6 .6 .6 80 1 393 462 463 8015 0 0 0 0 3 5 0 0 0 FFFFTFFFF
FFFFF2 83 1 460 0 79 21 463 SDL/TYSA_TRANSLUCENCY15 459 820 0 464 18 465 17 464
 0 459 464 464 0 24 9 0 0 -15 465 821 0 466 18 0 17 466 0 465 466 466 0 277 25 0
 0 -17 277 0 269 277 277 0 466 25 0 0 +16 25 801 247 ?277 9 56 20 0 0 1 81 1 247
 987 143 25 0 0 23 245 467 31 20 804 0 25 64 6 0 -0 0 0 0 0 1 1 0 0 .00745 133 6
4 715 0 56 468 20 0 +95 -.002928419371585615 .003875064559417725 -60715321659188
2e-32 -.003016673696054565 .003978454882116765 -.000998752343432795 0 .001012401
553147482 133 468 714 0 37 105 64 0 +90 -.00309192250793719 .00412949615241026 1
084202172485504e-33 -.003037536977519085 .004011255574920655 -.00099875234343279
2 .00100665964105228 0 16 37 686 469 ?34 56 32 468 0 0 1 137 105 712 0 1 33 468
 470 -97 471 0 ?141 470 33 470 470 105 134 471 0 0 0 0 0 0 +472 473 136 472 1 2
 2 2 5 FFF1 474 475 476 135 473 1 0 45 4 474 5.74777460525384 .00099875234343279
2 5.68556670847284 .000998752343432792 127 2 475 2 2 128 2 476 0 1 81 1 469 1009
 143 37 0 0 63 67 477 81 1 63 1008 143 56 0 0 161 469 478 81 1 67 1010 143 32 0
 0 469 141 479 84 32 477 20167bfd9cfbcc14241353fbec08064084 32 479 838558fd60b19
b422215c0fcae32b13181 1 161 1007 143 158 0 0 174 63 480 84 32 478 7a246586264811
14a721eb1cc3eeec1781 1 174 1006 143 163 0 0 184 161 481 84 32 480 427dcdbd59d50d
db6e749ce511a5bdf381 1 184 1005 143 176 0 0 180 174 482 84 32 481 5a9005a696a78b
a3f201b5531d6fdad981 1 180 1004 143 178 0 0 237 184 483 84 32 482 e35f13977d9078
f98018548754dace1c81 1 237 1003 143 182 0 0 235 180 484 84 32 483 1eccc6831a470e
4e2e4602446404933681 1 235 1002 143 195 0 0 193 237 485 84 32 484 afa950e713eef4
3be6bb12e14779151e81 1 193 1001 143 191 0 0 188 235 486 84 32 485 73e2fc93647b95
b8b95b601152ee71db81 1 188 1000 143 186 0 0 232 193 487 84 32 486 e39ca6fd9d2fe4
2429fe78ff444e079681 1 232 999 143 190 0 0 198 188 488 84 32 487 f2c7c0c46490b54
ab76259e638aa96f181 1 198 998 143 196 0 0 202 232 489 84 32 488 174a0ece113db175
6b7b5641fcf0315381 1 202 997 143 200 0 0 206 198 490 84 32 489 c12ec4a56110c4d72
3c0f6ec8b1c079381 1 206 996 143 204 0 0 210 202 491 84 32 490 fb44e434389dc673ec
14d7e8152c340381 1 210 995 143 208 0 0 214 206 492 84 32 491 bc59a5ebc68a7120b76
372842e6549b081 1 214 994 143 212 0 0 218 210 493 84 32 492 7b02c35a2ceaa12d2c59
d81ef5e6fdbe81 1 218 993 143 216 0 0 222 214 494 84 32 493 bd296facf4b41042641c8
4c0be9ad75881 1 222 992 143 220 0 0 226 218 495 84 32 494 fb69c1aa36e636edc186e1
c7662791d381 1 226 991 143 224 0 0 229 222 496 84 32 495 dd22be74db6b6edd4ac68ee
83ae7c44981 1 229 990 143 155 0 0 242 226 497 84 32 496 7a784f48b8258db43564ea3b
884467c581 1 242 989 143 241 0 0 245 229 498 84 32 497 5853a118d47f90675439efae7
9d244b484 32 498 5b31a163a44722f7773acb7d1a11dca481 1 23 986 143 9 0 0 0 247 499
 84 32 467 8c20e625f3a9ecfda7471be4d3277e0384 32 499 895153368b599e9b26a81d99dd4
9fb6a17 24 0 285 24 24 0 464 9 0 0 +15 285 808 0 24 282 500 15 500 96 0 230 282
 0 17 230 0 500 230 230 0 290 155 0 0 +83 3 457 .6 .6 .6 83 1 455 0 83 3 451 .6
 .6 .6 83 1 450 0 83 3 446 .6 .6 .6 83 1 444 0 83 1 440 0 83 3 436 .6 .6 .6 83 1
 435 0 83 3 432 .6 .6 .6 83 1 431 0 83 1 427 0 83 3 423 .6 .6 .6 83 1 422 0 83 3
 419 .6 .6 .6 83 1 418 0 83 3 414 .6 .6 .6 83 1 413 0 83 3 409 .6 .6 .6 83 1 408
 0 83 3 404 .6 .6 .6 83 1 403 0 83 1 399 0 81 1 387 904 393 298 0 384 383 391 50
1 83 1 395 0 81 1 383 902 393 304 0 380 379 387 502 83 1 501 0 81 1 379 900 393
 310 0 375 373 383 503 83 1 502 0 81 1 373 898 393 281 0 370 504 379 505 83 1 50
3 0 81 1 504 896 393 282 0 374 506 373 507 83 1 505 0 81 1 374 1165 143 282 504
 284 508 370 509 81 1 506 894 393 274 0 288 510 504 511 83 1 507 0 81 1 288 1020
 143 274 506 286 159 271 512 81 1 510 892 393 268 0 508 513 506 514 83 1 511 0 8
1 1 508 1164 143 268 510 272 271 374 515 81 1 513 890 393 16 0 271 0 510 516 83
 1 514 0 81 1 271 1163 143 16 513 267 288 508 517 83 1 516 0 84 32 517 f6451e2a7
8c53d3f29ae6cad9a0e652681 1 272 1187 264 268 508 0 267 286 518 84 32 515 3694760
1a8a268d509124f4961d77a2a83 3 518 .6 .6 .6 81 1 159 1017 143 71 0 0 157 288 519
 84 32 512 7b1147d478c7cea689f2a5741ba7a86784 32 519 23cb22909c36bf1e3b53d6d12ef
9484b84 32 509 367c9244ac985029e78fc243544672d884 32 389 faa2ead5b6caabf570a1459
472eef65e84 32 385 2bf6c4bf5e189d979f2597ca1c5dfc5b84 32 381 4475dabc0d9b4b97bf6
25755fac7dc2d83 3 377 .6 .6 .6 84 32 376 d75a8e9b59d822d7ab49d4706bb1429279 15 3
72 SDL/TYSA_COLOUR83 3 353 .6 .6 .6 15 342 343 0 520 337 521 17 520 0 342 520 52
0 0 238 182 0 0 -15 521 313 0 236 337 0 17 236 0 521 236 236 0 522 195 0 0 +17 5
22 0 278 522 522 0 236 195 0 0 -15 278 293 0 522 16 369 17 238 0 332 238 238 0 5
20 182 0 0 +15 332 373 0 238 324 523 15 523 374 0 524 324 0 17 524 0 523 524 524
 0 181 178 0 0 -17 181 0 338 181 181 0 524 178 0 0 +15 338 369 0 181 331 525 15
 525 370 0 526 331 0 17 526 0 525 526 526 0 185 176 0 0 -17 185 0 275 185 185 0
 526 176 0 0 +15 275 349 0 185 268 362 17 175 0 325 175 175 0 527 163 0 0 +17 52
7 0 330 527 527 0 175 163 0 0 -15 330 427 0 527 110 0 83 3 329 .6 .6 .6 83 3 289
 .6 .6 .6 83 3 273 .6 .6 .6 83 3 266 .6 .6 .6 84 32 248 fda9c7b05fb58b94f33e94a2
909ffdc217 39 0 153 59 38 35 62 71 0 54 +17 62 0 61 34 55 27 39 71 0 0 -84 32 16
0 1269130c3523ce5e6fd470115729931317 47 0 28 54 44 45 148 133 0 59 +17 148 0 145
 147 146 40 47 133 0 0 -84 32 144 54f9a49c874e1e466315410050aeeba0141 124 94 124
 124 116 40 6 125 0 1 6 1475165851433916e-20 .2378985074419665 ??-.0020317725702
0728 .00474411744633208 794720192431875e-31 -.002014470816797435 .00472368312960
867 -.0003981379620669205 -.00199032222827426 .00469186389706199 -.0007578833077
86144 -.001972481731013085 .00466531275232716 -.000919693584398421 -.00195971666
679406 .0046443226901391 -.00098668367298322 -.00195581090106731 .00463750825550
446 -.000998752343432795 41 1 126 L-.00203177257020728 .00474411744633208 794720
192431875e-31 41 1 127 L-.00195581090106731 .00463750825550446 -.000998752343432
795 141 117 130 117 117 112 40 5 118 0 1 5 338121541411187e-19 .399249027583739
 ??-.00193874194370427 .00460510773505182 -.000998752343432793 -.001925342693668
935 .00457587888621997 -.000922617300339495 -.001906104104918155 .00452483876947
914 -.000607457057033283 -.001897923673430225 .004497844331636965 -.000321908499
1233815 -.001892257665966905 .004475983987984425 -433680868994202e-33 41 1 119 L
-.00193874194370427 .00460510773505182 -.000998752343432793 41 1 120 L-.00189225
7665966905 .004475983987984425 -433680868994202e-33 141 96 468 96 96 90 40 5 98
 0 1 5 227616894121829e-19 .381703620764137 ??-.003037536977519085 .004011255574
920655 -.000998752343432792 -.003053281127029615 .00403942959121975 -.0009176324
71241155 -.003067533696665705 .004068343705591125 -.000751760110484894 -.0030827
31599860325 .00410418702130792 -.0003992332224389215 -.00309192250793719 .004129
49615241026 1084202172485504e-33 41 1 99 L-.003037536977519085 .0040112555749206
55 -.000998752343432792 41 1 100 L-.00309192250793719 .00412949615241026 1084202
172485504e-33 141 89 112 528 529 79 141 528 165 529 89 79 141 529 116 89 528 79
 141 78 79 78 78 73 19 17 1 0 1 0 8 4 S0 74 4 CI16 index_map_offset0 0 1 dCCZ20
 15 5 0 0 454 456 12 452 2 0 0 0 0 0 0 0 0 0 0 0 0 0 0 0 81 1 12 936 530 1 0 2 0
 0 531 80 1 530 532 533 9000 0 0 0 0 3 5 0 0 0 FFTFFFFFFFFFFF1 82 255 1 531 87 7
9 24 533 UG2/BODY_COLOR_ATTRIBUTE80 2 11 534 535 8004 0 0 0 0 3 5 0 0 0 FFTFFFFF
FFFFFF2 3 83 1 13 .001 84 8 14 Kg/Cu M 79 16 535 SDL/TYSA_DENSITY1 0 
