**ABCDEFGHIJKLMNOPQRSTUVWXYZabcdefghijklmnopqrstuvwxyz**************************
**PARASOLID !"#$%&'()*+,-./:;<=>?@[\]^_`{|}~0123456789**************************
**PART1;
MC=x64/Windows NT;
MC_MODEL=genuineintel family 6 model 10 stepping 5, intel(r) xeon(r) cpu           w3550  @ 3.07ghz;
MC_ID=pc1401;
OS=windows nt (x64);
OS_RELEASE=6.1 windows 7 professional (build 7601) service pack 1;
FRU=mdc_ugii_v7.0_djl_can_vrh;
APPL=unigraphics;
SITE=unknown;
USER=huge;
FORMAT=text;
GUISE=transmit;
KEY=15-A_1;
FILE=D:\Daten-Huge\PLM_Export\A_Internet_Modelle\Getriebe\15-x\15-A\15-A_1.x_t;
DATE=19-aug-2016;
**PART2;
SCH=SCH_2701211_26105;
USFLD_SIZE=0;
**PART3;
**END_OF_HEADER*****************************************************************
T51 : TRANSMIT FILE created by modeller version 270121123 SCH_2701211_26105_1300
6200 0 12 30 CCCCCCCCCCCCCDI5 owner1040 0 CCCCCCCCCA13 boundary_mesh1006 0 A16 i
ndex_map_offset0 0 1 dA9 index_map82 0 A17 node_id_index_map82 0 A20 schema_embe
dding_map82 0 A5 child12 0 A14 lowest_node_id0 0 1 dZ1 3172 2 3 0 0 0 0 1e3 1e-8
 0 0 0 1 0 1 1 4 5 6 0 7 8 0 0 0 0 0 0 0 0 81 255 1 2 3172 9 1 10 0 0 0 11 70 11
 CI9 list_type0 0 1 uI10 notransmit0 0 1 lCCCDCCDI12 finger_index0 0 1 dI12 fing
er_block1012 0 CZ3 0 4 T1 0 0 5 20 1 12 12 13 255 4 3 0 1 0 13 0 0 14 0 52 255 5
 209 0 15 16 0 0 +0 0 .0126 0 0 -1 .0013601077025535 .4226182617406995 .90630778
703665 -1 0 0 133 255 6 819 0 17 18 0 0 +18 -.0059037401206902 -.003761097258427
77 -.0122 -.0059037401206902 -.00376109725842777 -.0122 5.71595330028143 11.9991
3860746102 19 8 CCCCCCCA5 owner12 0 Z7 1 0 1 14 0 19 V0 16 255 8 3003 20 ?21 0 2
2 23 0 0 1 81 1 20 3081 24 8 0 0 25 26 27 17 255 21 0 28 21 21 0 29 8 0 0 +16 22
 186 30 ?31 8 32 33 0 0 1 31 255 23 3059 0 8 34 35 0 +0 0 -.01195 0 0 -1 1 12246
46799147352e-31 0 .006 31 34 3060 0 36 37 23 0 +0 0 -.01215 0 0 -1 1 12246467991
47352e-31 0 .002824 31 35 3058 0 38 23 39 0 +0 0 -.01195 0 0 -1 1 12246467991473
52e-31 0 .002824 16 38 3030 26 ?40 41 0 35 0 0 1 31 39 772 0 42 35 43 0 +0 0 -.0
0595980762113533 0 0 -1 -1 0 0 .007 16 42 721 44 ?45 46 17 39 0 0 1 31 43 771 0
 46 39 47 0 +0 0 -.0057 0 0 -1 -1 0 0 .00685 16 46 719 48 ?49 50 42 43 0 0 1 31
 47 770 0 50 43 51 0 +0 0 -.0045 0 0 -1 -1 0 0 .00685 16 50 717 52 ?53 54 46 47
 0 0 1 31 51 769 0 54 47 55 0 +0 0 -.0045 0 0 -1 -1 0 0 .0075 16 54 713 56 ?57 5
8 50 51 0 0 1 31 55 672 0 58 51 59 0 +0 0 -.0075 0 0 1 1 0 0 .002724 16 58 646 6
0 ?61 62 54 55 0 0 1 31 59 617 0 63 55 64 0 +0 0 -.01195 0 0 1 1 0 0 .0064 16 63
 596 65 ?66 67 68 59 0 0 1 31 64 577 0 67 59 69 0 +.0055 -156173415923117e-32 0
 0 0 -1 1 -1224646799147352e-31 0 9e-4 16 67 548 70 ?71 72 63 64 0 0 1 31 69 576
 0 72 64 73 0 +.0055 -156173415923117e-32 -6e-4 0 0 -1 1 -1224646799147352e-31 0
 9e-4 16 72 547 74 ?75 76 67 69 0 0 1 31 73 575 0 76 69 77 0 +.0055 -15617341592
3117e-32 -6e-4 0 0 -1 1 -1224646799147352e-31 0 74e-5 16 76 546 78 ?79 80 72 73
 0 0 1 31 77 574 0 80 73 81 0 +.0055 -156173415923117e-32 -.004 0 0 -1 1 -122464
6799147352e-31 0 74e-5 16 80 545 82 ?83 84 76 77 0 0 1 31 81 527 0 84 77 85 0 +-
.0055 888178419700125e-33 0 0 0 -1 -1 0 0 9e-4 16 84 498 86 ?87 88 80 81 0 0 1 3
1 85 526 0 88 81 89 0 +-.0055 888178419700125e-33 -6e-4 0 0 -1 -1 0 0 9e-4 16 88
 497 90 ?91 92 84 85 0 0 1 31 89 525 0 92 85 93 0 +-.0055 888178419700125e-33 -6
e-4 0 0 -1 -1 0 0 74e-5 16 92 496 94 ?95 96 88 89 0 0 1 31 93 524 0 96 89 97 0 +
-.0055 888178419700125e-33 -.004 0 0 -1 -1 0 0 74e-5 16 96 495 98 ?99 100 92 93
 0 0 1 31 97 440 0 101 93 102 0 -0 -.0055 -1e-5 0 0 -1 1 1224646799147352e-31 0
 .0016 16 101 405 103 ?104 105 106 97 0 0 1 31 102 439 0 105 97 107 0 -0 -.0055
 -1e-5 0 0 -1 1 1224646799147352e-31 0 .00155 16 105 403 108 ?109 110 101 102 0
 0 1 31 107 438 0 100 102 111 0 +0 -.0055 0 0 0 -1 1 1224646799147352e-31 0 .001
6 16 100 399 112 ?113 106 96 107 0 0 1 31 111 437 0 106 107 114 0 +0 -.0055 0 0
 0 -1 1 1224646799147352e-31 0 .00155 16 106 407 115 ?116 101 100 111 0 0 1 31 1
14 375 0 117 111 118 0 -0 .0055 -1e-5 0 0 1 1 0 0 .0016 16 117 334 119 ?120 121
 122 114 0 0 1 31 118 374 0 121 114 123 0 -0 .0055 -1e-5 0 0 1 1 0 0 .00155 16 1
21 340 124 ?125 126 117 118 0 0 1 31 123 373 0 110 118 127 0 +0 .0055 0 0 0 1 1
 0 0 .0016 16 110 342 128 ?129 122 105 123 0 0 1 31 127 372 0 122 123 130 0 +0 .
0055 0 0 0 1 1 0 0 .00155 16 122 336 131 ?132 117 110 127 0 0 1 31 130 284 0 133
 127 134 0 +2224492873652695e-38 -.0055 -.004 0 0 -1 1 -1224606353822376e-31 0 8
e-4 16 133 266 135 ?136 137 126 130 0 0 1 31 134 283 0 126 130 138 0 +2224492873
652695e-38 -.0055 0 0 0 -1 1 -1224606353822376e-31 0 8e-4 16 126 267 139 ?140 13
3 121 134 0 0 1 31 138 250 0 141 134 142 0 +-673555739531044e-33 .0055 -.004 0 0
 -1 -1 0 0 8e-4 16 141 232 143 ?144 145 137 138 0 0 1 31 142 249 0 137 138 146 0
 +-673555739531044e-33 .0055 0 0 0 -1 -1 0 0 8e-4 16 137 233 147 ?148 141 133 14
2 0 0 1 31 146 93 0 149 142 150 0 +433680868994202e-33 0 .0026 0 0 1 1 0 0 .003
 16 149 71 151 ?152 153 145 146 0 0 1 31 150 57 0 153 146 154 0 +0 0 .001 0 0 -1
 -1 0 0 .0035 16 153 41 155 ?156 157 149 150 0 0 1 31 154 10 0 157 150 158 0 +0
 0 0 0 0 -1 -1 0 0 .0075 16 157 6 159 ?160 161 153 154 0 0 1 31 158 33 0 161 154
 162 0 +0 0 0 0 0 1 1 0 0 .0035 16 161 30 163 ?164 165 157 158 0 0 1 31 162 63 0
 165 158 166 0 +433680868994202e-33 0 .001 0 0 1 1 0 0 .003 16 165 60 167 ?168 3
2 161 162 0 0 1 31 166 121 0 145 162 169 0 -0 0 .0026 0 0 1 1 0 0 .0015 16 145 1
31 170 ?171 149 141 166 0 0 1 31 169 181 0 32 166 33 0 +0 0 .0126 0 0 1 1 0 0 .0
013601077025535 16 32 178 172 ?173 22 165 169 0 0 1 31 33 189 0 22 169 174 0 -0
 0 .0123 0 0 1 1 0 0 .0015 31 174 635 0 62 33 175 0 +0 0 -.01195 0 0 1 1 0 0 .00
2724 16 62 645 176 ?177 68 58 174 0 0 1 31 175 806 0 1 174 178 179 +0 0 -.0122 0
 0 1 1 0 0 .0064 133 178 810 0 68 175 18 0 +175 -.00624829444556758 -.0013852135
29203856 -.0122 -.00624829444556758 -.001385213529203856 -.0122 3.35975881008908
5 9.64294411726867 141 255 179 178 179 179 175 16 68 597 180 ?181 63 62 178 0 0
 1 31 18 815 0 1 178 6 182 +0 0 -.0122 0 0 -1 -1 0 0 .007 141 182 6 182 182 18 8
1 1 180 2928 24 68 0 0 183 176 184 17 181 0 185 181 181 0 186 68 0 0 +15 255 185
 2897 0 181 13 187 17 186 0 188 186 186 0 181 68 0 0 -15 188 610 0 186 189 0 14
 255 189 606 190 ?191 192 193 4 194 -0 0 191 192 19 81 1 190 3159 195 189 196 0
 197 198 199 14 191 3034 198 ?200 189 201 4 202 -0 0 200 189 19 14 192 598 197 ?
189 203 204 4 205 -206 206 189 203 19 15 193 609 0 66 189 188 51 255 194 613 0 1
89 205 207 0 +0 0 -.0122 0 0 1 .0064 1 0 0 13 19 4 0 0 0 0 0 0 7 13 14 13 15 208
 ?209 0 185 4 210 +0 0 209 0 19 81 1 208 3089 195 13 211 0 0 212 213 14 209 391
 212 ?214 13 215 4 216 +217 218 214 13 19 50 255 210 17 0 13 216 16 0 +0 0 -.012
2 0 0 -1 -1 0 0 50 216 11 0 218 219 210 0 +0 0 0 0 0 1 1 0 0 51 16 18 0 220 210
 5 0 +0 0 0 0 0 -1 .0075 -1 0 0 14 220 2 221 ?222 214 223 4 16 +0 0 222 214 19 8
1 1 221 3095 195 220 224 0 225 226 227 14 222 43 226 ?228 220 229 4 230 +0 0 228
 220 19 14 214 77 225 ?220 209 231 4 232 +0 0 220 209 19 15 223 695 0 233 220 23
4 17 233 0 223 233 233 0 57 54 0 0 -15 234 7 0 160 220 0 17 160 0 234 160 160 0
 235 157 0 0 +17 235 0 236 235 235 0 160 157 0 0 -15 236 8 0 235 209 237 15 237
 389 0 113 209 0 17 113 0 237 113 113 0 238 100 0 0 +17 238 0 239 238 238 0 113
 100 0 0 -15 239 415 0 238 240 0 14 240 411 241 ?242 217 243 4 244 +0 0 242 217
 19 81 1 241 3121 195 240 245 0 246 247 248 14 242 416 247 ?249 240 250 4 251 -0
 0 249 240 19 14 217 320 246 ?240 252 253 4 216 +218 209 240 252 19 15 243 414 0
 254 240 239 51 244 433 0 240 251 255 0 -0 -.0055 -1e-5 0 0 1 .0016 1 0 0 51 251
 434 0 242 256 244 0 -0 -.0055 -1e-5 0 0 1 .00155 1 0 0 50 255 371 0 257 244 258
 0 +0 .0055 -1e-5 0 0 1 1 0 0 14 257 356 259 ?260 261 262 4 255 +0 0 260 261 19
 51 258 369 0 261 255 263 0 +0 .0055 -1e-5 0 0 1 .00155 1 0 0 14 261 351 264 ?25
7 265 266 4 258 +0 0 257 265 19 51 263 368 0 265 258 267 0 +0 .0055 -1e-5 0 0 1
 .0016 1 0 0 14 265 346 268 ?261 15 269 4 263 -0 0 261 15 19 50 267 282 0 270 26
3 271 0 +2224492873652695e-38 -.0055 -.004 0 0 -1 1 -1224606353822376e-31 0 14 2
70 268 272 ?273 249 274 4 267 -0 0 273 249 19 51 271 280 0 273 267 275 0 +222449
2873652695e-38 -.0055 0 0 0 -1 8e-4 1 -1224606353822376e-31 0 14 273 274 276 ?21
8 270 277 4 271 -0 0 218 270 19 50 275 248 0 260 271 278 0 +-673555739531044e-33
 .0055 -.004 0 0 -1 -1 0 0 14 260 234 279 ?252 257 280 4 275 -0 0 252 257 19 51
 278 246 0 252 275 281 0 +-673555739531044e-33 .0055 0 0 0 -1 8e-4 -1 0 0 14 252
 240 282 ?217 260 283 4 278 -0 0 217 260 19 50 281 162 0 284 278 285 0 +0 0 .012
6 0 0 1 1 0 0 14 284 148 286 ?15 287 288 4 281 +0 0 15 287 19 51 285 160 0 287 2
81 232 0 -0 0 .0126 0 0 -1 .0015 -1 0 0 14 287 142 289 ?284 290 291 4 285 -0 0 2
84 290 19 50 232 91 0 214 285 292 0 +433680868994202e-33 0 .0026 0 0 1 1 0 0 51
 292 89 0 290 232 230 0 +433680868994202e-33 0 0 0 0 1 .003 1 0 0 14 290 83 293
 ?287 228 294 4 292 +0 0 287 228 19 50 230 55 0 222 292 219 0 +0 0 .001 0 0 1 1
 0 0 51 219 54 0 228 230 216 0 +0 0 0 0 0 1 .0035 1 0 0 14 228 48 295 ?290 222 2
96 4 219 +0 0 290 222 19 81 1 295 3099 195 228 297 0 226 293 298 15 296 50 0 156
 228 299 17 156 0 296 156 156 0 300 153 0 0 +15 299 51 0 164 228 0 17 164 0 299
 164 164 0 301 161 0 0 +17 301 0 302 301 301 0 164 161 0 0 -15 302 32 0 301 209
 236 17 300 0 303 300 300 0 156 153 0 0 -15 303 45 0 300 222 0 80 255 1 195 0 30
4 8001 0 0 0 0 3 5 0 0 0 FFFFTFTFFFFFFF2 81 1 297 3098 305 228 306 295 307 308 3
09 81 1 226 3097 195 222 307 0 221 295 310 81 1 293 3101 195 290 308 0 295 289 3
11 83 255 3 298 .6 .6 .6 81 1 308 3100 305 290 312 293 297 313 314 81 1 289 3103
 195 287 313 0 293 286 315 83 3 311 .6 .6 .6 81 1 313 3102 305 287 316 289 308 3
17 318 81 1 286 3105 195 284 317 0 289 319 320 83 3 315 .6 .6 .6 81 1 317 3104 3
05 284 321 286 313 322 323 81 1 319 3107 195 15 322 0 286 268 324 83 3 320 .6 .6
 .6 14 15 202 319 ?265 284 325 4 5 +0 0 265 284 19 81 1 322 3106 305 15 326 319
 317 327 328 81 1 268 3109 195 265 327 0 319 264 329 83 3 324 .6 .6 .6 81 1 327
 3108 305 265 330 268 322 331 332 81 1 264 3111 195 261 331 0 268 259 333 83 3 3
29 .6 .6 .6 81 1 331 3110 305 261 334 264 327 335 336 81 1 259 3113 195 257 335
 0 264 279 337 83 3 333 .6 .6 .6 81 1 335 3112 305 257 338 259 331 339 340 81 1
 279 3115 195 260 339 0 259 282 341 83 3 337 .6 .6 .6 81 1 339 3114 305 260 342
 279 335 343 344 81 1 282 3117 195 252 343 0 279 246 345 83 3 341 .6 .6 .6 81 1
 343 3116 305 252 346 282 339 347 348 81 1 246 3119 195 217 347 0 282 241 349 83
 3 345 .6 .6 .6 81 1 347 3118 305 217 350 246 343 245 351 83 3 349 .6 .6 .6 80 1
 305 352 353 8015 0 0 0 0 3 5 0 0 0 FFFFTFFFFFFFFF2 81 1 350 2968 24 217 0 347 3
54 355 356 81 1 245 3120 305 240 355 241 347 357 358 83 1 351 0 81 1 355 2969 24
 240 0 245 350 330 359 81 1 357 3122 305 242 360 247 245 361 362 83 1 358 0 81 1
 360 2973 24 242 0 357 338 334 363 81 1 247 3123 195 242 357 0 241 364 365 81 1
 361 3124 305 249 366 364 357 367 368 83 1 362 0 14 249 421 364 ?270 242 369 4 2
56 -0 0 270 242 19 81 1 366 2971 24 249 0 361 330 338 370 81 1 364 3125 195 249
 361 0 247 272 371 81 1 367 3126 305 270 372 272 361 373 374 83 1 368 0 81 1 372
 2950 24 270 0 367 346 375 376 81 1 272 3127 195 270 367 0 364 276 377 81 1 373
 3128 305 273 375 276 367 378 379 83 1 374 0 81 1 375 2951 24 273 0 373 372 380
 381 81 1 276 3129 195 273 373 0 272 382 383 81 1 378 3130 305 218 384 382 373 3
85 386 83 1 379 0 14 218 9 382 ?387 273 388 4 216 +209 217 387 273 19 81 1 384 2
975 24 218 0 378 334 389 390 81 1 382 3131 195 218 378 0 276 391 392 81 1 385 31
32 305 387 393 391 378 394 395 83 1 386 0 14 387 502 391 ?396 218 397 4 398 -0 0
 396 218 19 81 1 393 2956 24 387 0 385 399 400 401 81 1 391 3133 195 387 385 0 3
82 402 403 81 1 394 3134 305 396 400 402 385 404 405 83 1 395 0 14 396 505 402 ?
406 387 407 4 408 -0 0 406 387 19 81 1 400 2957 24 396 0 394 393 409 410 81 1 40
2 3135 195 396 394 0 391 411 412 81 1 404 3136 305 406 409 411 394 413 414 83 1
 405 0 14 406 509 411 ?415 396 416 4 417 -0 0 415 396 19 81 1 409 2958 24 406 0
 404 400 418 419 81 1 411 3137 195 406 404 0 402 420 421 81 1 413 3138 305 415 4
18 420 404 422 423 83 1 414 0 14 415 513 420 ?424 406 425 4 426 -0 0 424 406 19
 81 1 418 2959 24 415 0 413 409 427 428 81 1 420 3139 195 415 413 0 411 429 430
 81 1 422 3140 305 424 431 429 413 432 433 83 1 423 0 14 424 552 429 ?434 415 43
5 4 207 -0 0 434 415 19 81 1 431 2961 24 424 0 422 427 436 437 81 1 429 3141 195
 424 422 0 420 438 439 81 1 432 3142 305 434 440 438 422 441 442 83 1 433 0 14 4
34 555 438 ?443 424 444 4 445 -0 0 443 424 19 81 1 440 2963 24 434 0 432 436 446
 447 81 1 438 3143 195 434 432 0 429 448 449 81 1 441 3144 305 443 436 448 432 4
50 451 83 1 442 0 14 443 559 448 ?452 434 453 4 454 -0 0 452 434 19 81 1 436 296
2 24 443 0 441 431 440 455 81 1 448 3145 195 443 441 0 438 456 457 81 1 450 3146
 305 452 427 456 441 458 459 83 1 451 0 14 452 563 456 ?460 443 461 4 462 -0 0 4
60 443 19 81 1 427 2960 24 452 0 450 418 431 463 81 1 456 3147 195 452 450 0 448
 464 465 81 1 458 3148 305 460 466 464 450 467 468 83 1 459 0 14 460 736 464 ?46
9 452 470 4 471 -0 0 469 452 19 81 1 466 2966 24 460 0 458 472 354 473 81 1 464
 3149 195 460 458 0 456 474 475 81 1 467 3150 305 469 446 474 458 476 477 83 1 4
68 0 14 469 741 474 ?478 460 479 4 480 -0 0 478 460 19 81 1 446 2964 24 469 0 46
7 440 472 481 81 1 474 3151 195 469 467 0 464 482 483 81 1 476 3152 305 478 354
 482 467 484 485 83 1 477 0 14 478 746 482 ?203 469 486 4 487 -0 0 203 469 19 81
 1 354 2967 24 478 0 476 466 350 488 81 1 482 3153 195 478 476 0 474 489 490 81
 1 484 3154 305 203 472 489 476 491 492 83 1 485 0 14 203 751 489 ?192 478 493 4
 494 -0 0 192 478 19 81 1 472 2965 24 203 0 484 446 466 495 81 1 489 3155 195 20
3 484 0 482 197 496 81 1 491 3156 305 192 497 197 484 196 498 83 1 492 0 81 1 49
7 3083 24 192 0 491 26 499 500 81 1 197 3157 195 192 491 0 489 190 501 81 1 196
 3158 305 189 380 190 491 502 503 83 1 498 0 81 1 380 2953 24 189 0 196 375 504
 505 81 1 502 3160 305 191 499 198 196 506 507 83 1 503 0 81 1 499 3084 24 191 0
 502 497 508 509 81 1 198 3161 195 191 502 0 190 510 511 81 1 506 3162 305 200 5
08 510 502 512 513 83 1 507 0 14 200 3039 510 ?514 191 515 4 516 +0 0 514 191 19
 81 1 508 3085 24 200 0 506 499 517 518 81 1 510 3163 195 200 506 0 198 519 520
 81 1 512 3164 305 514 517 519 506 521 522 83 1 513 0 14 514 3044 519 ?523 200 5
24 4 525 +0 0 523 200 19 81 1 517 3086 24 514 0 512 508 526 527 81 1 519 3165 19
5 514 512 0 510 528 529 81 1 521 3166 305 523 504 528 512 530 531 83 1 522 0 14
 523 653 528 ?532 514 533 4 534 -0 0 532 514 19 81 1 504 2954 24 523 0 521 380 3
99 535 81 1 528 3167 195 523 521 0 519 536 537 81 1 530 3168 305 532 399 536 521
 538 539 83 1 531 0 14 532 661 536 ?206 523 540 4 541 -0 0 206 523 19 81 1 399 2
955 24 532 0 530 504 393 542 81 1 536 3169 195 532 530 0 528 543 544 81 1 538 31
70 305 206 526 543 530 0 545 83 1 539 0 14 206 2998 543 ?0 532 546 4 205 -192 19
2 0 532 19 81 1 526 3087 24 206 0 538 517 0 547 81 1 543 3171 195 206 538 0 536
 0 548 83 1 545 0 83 3 548 .6 .6 .6 80 1 24 549 550 9000 1 1 1 1 1 1 1 1 0 FFFFT
FTFFFFFFF3 84 255 32 547 af77160193ce6779b9ff0f70d52c71d479 255 15 550 UGS/Objec
tState15 546 633 0 177 206 551 50 205 615 0 192 541 194 0 +0 0 -.01195 0 0 1 1 0
 0 51 541 668 0 532 534 205 0 +0 0 -.0122 0 0 1 .002724 1 0 0 50 534 670 0 523 4
71 541 0 +0 0 -.0075 0 0 1 1 0 0 50 471 764 0 460 480 534 0 +.0075 0 -.0045 0 0
 1 1 0 0 51 480 765 0 469 487 471 0 -0 0 0 0 0 -1 .00685 -1 0 0 52 487 766 0 478
 494 480 0 -0 0 -.0057 0 0 -1 .00685 .5 .866025403784438 -1 0 0 51 494 767 0 203
 202 487 0 -0 0 0 0 0 -1 .007 -1 0 0 51 202 3054 0 191 516 494 0 -0 0 -.01215 0
 0 1 .006 1 0 0 51 516 3055 0 200 525 202 0 -0 0 -.01215 0 0 1 .002824 1 0 0 50
 525 3057 0 514 0 516 0 +0 0 -.01215 0 0 -1 -1 0 0 17 177 0 546 177 177 0 552 62
 0 0 +15 551 2996 0 40 206 0 17 40 0 551 40 40 0 553 38 0 0 +17 553 0 554 553 55
3 0 40 38 0 0 -15 554 3043 0 553 200 0 17 552 0 555 552 552 0 177 62 0 0 -15 555
 652 0 552 532 0 83 3 544 .6 .6 .6 84 32 542 0dce4dce8e56257065202258950e9bc915
 540 651 0 61 532 555 17 61 0 540 61 61 0 556 58 0 0 +17 556 0 533 556 556 0 61
 58 0 0 -15 533 656 0 556 523 0 83 3 537 .6 .6 .6 84 32 535 e41cf4e8f82e9a26dd84
40a6f807310d83 3 529 .6 .6 .6 84 32 527 2019569158bd9d6566fe3e600afda38415 524 3
047 0 557 514 558 17 557 0 524 557 557 0 559 41 0 0 +15 558 3048 0 560 514 0 17
 560 0 558 560 560 0 561 36 0 0 -17 561 0 515 561 561 0 560 36 0 0 +16 36 3026 2
5 ?561 17 41 34 0 0 1 81 1 25 3080 24 36 0 0 389 20 562 16 17 723 183 ?563 42 36
 6 0 0 1 16 41 3028 389 ?557 36 38 37 0 0 1 81 1 389 3079 24 41 0 0 384 25 564 3
1 37 3061 0 41 0 34 0 +0 0 -.01215 0 0 -1 1 1224646799147352e-31 0 .006 84 32 56
4 777b4cc89249f28a3c61e099c3a6460a81 1 183 2927 24 17 0 0 48 180 565 17 563 0 18
7 563 563 0 566 17 0 0 +15 187 1577 0 563 13 0 17 566 0 493 566 566 0 563 17 0 0
 -15 493 754 0 566 203 567 15 567 755 0 45 203 0 17 45 0 567 45 45 0 568 42 0 0
 +17 568 0 486 568 568 0 45 42 0 0 -15 486 749 0 568 478 569 15 569 750 0 49 478
 0 17 49 0 569 49 49 0 570 46 0 0 +17 570 0 479 570 570 0 49 46 0 0 -15 479 744
 0 570 469 571 15 571 745 0 53 469 0 17 53 0 571 53 53 0 572 50 0 0 +17 572 0 47
0 572 572 0 53 50 0 0 -15 470 739 0 572 460 573 15 573 740 0 57 460 0 17 57 0 57
3 57 57 0 233 54 0 0 +81 1 48 2926 24 46 0 0 56 183 574 84 32 565 216b7e1ef1101c
99e00205448ccee93281 1 56 2925 24 54 0 0 44 48 575 84 32 574 cffbe488742c971f6f7
1bdcae3f7b99d81 1 44 2924 24 42 0 0 52 56 576 84 32 575 875e0ce9c9cd9c9adbbd5f83
b254211081 1 52 2923 24 50 0 0 70 44 577 84 32 576 a0ce2befb562488150238b960da31
ef281 1 70 2922 24 67 0 0 82 52 578 84 32 577 095a6887783f6b454656fc156d69d08981
 1 82 2921 24 80 0 0 78 70 579 84 32 578 2106ed0bb29eec61671e8724bc21df2381 1 78
 2920 24 76 0 0 74 82 580 84 32 579 4a24c7e60fe786b6720d7dc4ee66fc8681 1 74 2919
 24 72 0 0 86 78 581 84 32 580 1bcc40f8ab8baa0e2937486a9d87159981 1 86 2918 24 8
4 0 0 90 74 582 84 32 581 a9645951fb74b9a78c7326d5660d2da081 1 90 2917 24 88 0 0
 94 86 583 84 32 582 2773153653625398b3cbdbe8dc25d24181 1 94 2916 24 92 0 0 98 9
0 584 84 32 583 07d67829cdbcc2537946571c3955a10281 1 98 2915 24 96 0 0 60 94 585
 84 32 584 ba8ace001cfcdb3e717397643688a25381 1 60 2914 24 58 0 0 65 98 586 84 3
2 585 0b855367d7c24a75f8c4b49e3540725281 1 65 2913 24 63 0 0 135 60 587 84 32 58
6 a1994fc63c5a6f975c5ffef42aa9e81981 1 135 2912 24 133 0 0 139 65 588 84 32 587
 cf79a645b5f56db3b5096eba5242de3081 1 139 2911 24 126 0 0 147 135 589 84 32 588
 1ff99dad29a8f4820929ed20757fbf0381 1 147 2910 24 137 0 0 143 139 590 84 32 589
 17a96111d2af75d0abe4541a4bf643d481 1 143 2909 24 141 0 0 172 147 591 84 32 590
 f4cadde7b59df7dce620bd3a2598710481 1 172 2908 24 32 0 0 30 143 592 84 32 591 3a
585f1f7013efab826d64f89feaa9d381 1 30 2907 24 22 0 0 170 172 593 84 32 592 83db2
19fc2f2820c9297e002be91229981 1 170 2906 24 145 0 0 167 30 594 84 32 593 2a1782e
9d03004cebf86d781a112cc8281 1 167 2905 24 165 0 0 151 170 595 84 32 594 aba21858
86bc9259e57d4fd427bbf09181 1 151 2904 24 149 0 0 163 167 596 84 32 595 0ddcaa2d2
b9301bab7a9ee234f7712c681 1 163 2903 24 161 0 0 159 151 597 84 32 596 b54199a711
ff8857506f4b80c5e5e88181 1 159 2902 24 157 0 0 155 163 598 84 32 597 a39ccd17ca2
1eefffd8373981a9c8cb881 1 155 2901 24 153 0 0 0 159 599 84 32 598 1823eff5518ba8
5ad4c507a993983d8684 32 599 063940745cf9d47eac9c6dd1f5491c8a84 32 562 6e5e7b1890
e24d2b719274de6b25737015 515 3042 0 561 200 554 17 559 0 201 559 559 0 557 41 0
 0 -15 201 3037 0 559 191 28 15 28 3038 0 21 191 0 83 3 520 .6 .6 .6 84 32 518 8
e8818babd26d91dd2b13bca6fd8137283 3 511 .6 .6 .6 84 32 509 75f614d2ee248591ebe49
7a594cf2c3384 32 505 0118d90169a52b938ac43dec2ccdd6d483 3 501 .6 .6 .6 81 1 26 3
082 24 38 0 0 20 497 600 84 32 500 831b201e707c5bb16ca06163a1231d9b84 32 600 b48
41a898ad451a1e6237e58349a2ced83 3 496 .6 .6 .6 84 32 495 2e276b38c1c800b1aa9d99d
326eef1ea83 3 490 .6 .6 .6 84 32 488 14150d0f562be57f23d4326ed9c0b12683 3 483 .6
 .6 .6 84 32 481 29499f859a8f6545b4f6f2f45c8fbc3683 3 475 .6 .6 .6 84 32 473 ffc
f61f8341f468569664981e00c4d6883 3 465 .6 .6 .6 84 32 463 5f7177f97ca86ee73deee60
e1e5fb37815 461 565 0 75 452 601 51 462 569 0 452 454 398 0 +.0055 -156173415923
117e-32 0 0 0 -1 9e-4 1 -1224646799147352e-31 0 50 454 570 0 443 445 462 0 +.005
5 -156173415923117e-32 -6e-4 0 0 -1 1 -1224646799147352e-31 0 50 398 522 0 387 4
62 408 0 +-.0055 888178419700125e-33 -.004 0 0 -1 -1 0 0 51 408 521 0 396 398 41
7 0 +-.0055 888178419700125e-33 -.004 0 0 -1 74e-5 -1 0 0 50 417 520 0 406 408 4
26 0 +-.0055 888178419700125e-33 -6e-4 0 0 -1 -1 0 0 51 426 519 0 415 417 256 0
 +-.0055 888178419700125e-33 0 0 0 -1 9e-4 -1 0 0 50 256 436 0 249 426 251 0 +0
 -.0055 -1e-5 0 0 -1 -1 0 0 51 445 571 0 434 207 454 0 +.0055 -156173415923117e-
32 -.004 0 0 -1 74e-5 1 -1224646799147352e-31 0 50 207 572 0 424 194 445 0 +.005
5 -156173415923117e-32 -.004 0 0 -1 1 -1224646799147352e-31 0 17 75 0 461 75 75
 0 602 72 0 0 +15 601 566 0 603 452 0 17 603 0 601 603 603 0 71 67 0 0 -17 71 0
 215 71 71 0 603 67 0 0 +15 215 535 0 71 209 604 15 604 485 0 87 209 605 17 87 0
 604 87 87 0 606 84 0 0 +15 605 325 0 607 209 302 17 607 0 605 607 607 0 129 110
 0 0 -17 129 0 608 129 129 0 607 110 0 0 +15 608 350 0 129 265 0 17 606 0 609 60
6 606 0 87 84 0 0 -15 609 516 0 606 415 0 17 602 0 610 602 602 0 75 72 0 0 -15 6
10 562 0 602 443 0 83 3 457 .6 .6 .6 84 32 455 f96fe2975762f273506c4b398264dd921
5 453 561 0 79 443 610 17 79 0 453 79 79 0 611 76 0 0 +17 611 0 612 611 611 0 79
 76 0 0 -15 612 558 0 611 434 0 83 3 449 .6 .6 .6 84 32 447 44e4b91ea260a2d1dbef
d1128d390fd815 444 557 0 83 434 612 17 83 0 444 83 83 0 613 80 0 0 +17 613 0 435
 613 613 0 83 80 0 0 -15 435 554 0 613 424 0 83 3 439 .6 .6 .6 84 32 437 5e6771a
a0eafae6c8d5ffa10032c640b83 3 430 .6 .6 .6 84 32 428 7f2074a062e0ae0707d8397f4d5
e96cc15 425 515 0 91 415 609 17 91 0 425 91 91 0 614 88 0 0 +17 614 0 615 614 61
4 0 91 88 0 0 -15 615 512 0 614 406 0 83 3 421 .6 .6 .6 84 32 419 fe9a9c72bfc867
8a2d4983e2099e7a1015 416 511 0 95 406 615 17 95 0 416 95 95 0 616 92 0 0 +17 616
 0 617 616 616 0 95 92 0 0 -15 617 508 0 616 396 0 83 3 412 .6 .6 .6 84 32 410 8
efd42c11591c58ff7a8f88d7437967e15 407 507 0 99 396 617 17 99 0 407 99 99 0 618 9
6 0 0 +17 618 0 397 618 618 0 99 96 0 0 -15 397 504 0 618 387 0 83 3 403 .6 .6 .
6 84 32 401 4329b3391ff6c118f86848617047878a83 3 392 .6 .6 .6 81 1 334 2974 24 2
61 0 331 360 384 619 84 32 390 7fdec625e304f99f50a873bf26707f6784 32 619 76adb58
91e07a7e972919f852295a47715 388 384 0 620 218 621 17 620 0 388 620 620 0 116 106
 0 0 -15 621 258 0 140 218 0 17 140 0 621 140 140 0 622 126 0 0 +17 622 0 623 62
2 622 0 140 126 0 0 -15 623 277 0 622 273 0 17 116 0 624 116 116 0 620 106 0 0 +
15 624 420 0 116 242 0 83 3 383 .6 .6 .6 84 32 381 7a3e02831cf0a81bcb5764e8c6d4f
ff483 3 377 .6 .6 .6 81 1 346 2949 24 252 0 343 342 372 625 84 32 376 8064f7f57b
2b08c8a8e88a6618d64ca981 1 342 2948 24 260 0 339 326 346 626 84 32 625 ae4cb8e9a
2f83d0e3f3ad9cae238ba1f81 1 326 2947 24 15 0 322 321 342 627 84 32 626 f37cf9dc0
850faf609299fa00364a0d081 1 321 2946 24 284 0 317 316 326 628 84 32 627 a67acce4
7148d80c438a7a4fb3b782c481 1 316 2945 24 287 0 313 629 321 630 84 32 628 a2a465b
a10c5ea8156173394e844047d81 1 629 2944 24 214 0 631 312 316 632 84 32 630 e54f71
ac93535bbd929f1be86b5d9cb181 1 631 3092 305 214 629 225 633 224 634 81 1 312 294
3 24 290 0 308 635 629 636 84 32 632 3bb2e0f9e1828d2fe7a1cfa26da8f79881 1 635 29
42 24 13 0 211 637 312 638 84 32 636 4e726ca07c9317fe4b959f23d37d8b4f81 1 211 30
88 305 13 635 208 0 633 639 81 1 637 2941 24 220 0 224 640 635 641 84 32 638 ede
aa04c30609eaa7e331cfe9c49bd7c81 1 224 3094 305 220 637 221 631 307 642 81 1 640
 2940 24 209 0 633 643 637 644 84 32 641 32b934fc331862d0703ef7872bea2c7881 1 63
3 3090 305 209 640 212 211 631 645 81 1 643 2939 24 222 0 307 306 640 646 84 32
 644 92957277bf3108eef03bbb7e2b54216d81 1 307 3096 305 222 643 226 224 297 647 8
1 1 306 2938 24 228 0 297 124 643 648 84 32 646 00266665a37b955ed213137f013c239a
81 1 124 2937 24 121 0 0 108 306 649 84 32 648 cd9ca3b2cb09c9e96ac1b62ad1f07db38
1 1 108 2936 24 105 0 0 128 124 650 84 32 649 fbb526e65f1278e5fde0457b5dfa448781
 1 128 2935 24 110 0 0 112 108 651 84 32 650 a879ae08cc64d6fc365826152d7d5ace81
 1 112 2934 24 100 0 0 131 128 652 84 32 651 ccadf714e9ce7b5bddd96a073224b83581
 1 131 2933 24 122 0 0 115 112 653 84 32 652 1e447cdd8ee13b3ca7863d883aed5e7981
 1 115 2932 24 106 0 0 119 131 654 84 32 653 bd0e284b92ace76e15148ab6a693b65b81
 1 119 2931 24 117 0 0 103 115 655 84 32 654 6bde0ffe1c66c4f952c330ef9770b99f81
 1 103 2930 24 101 0 0 176 119 656 84 32 655 9b5557c63ebc1037fffe5e7c451b6bb481
 1 176 2929 24 62 0 0 180 103 657 84 32 656 a6687a0a9d54d2b6d61cb947fc60584d84 3
2 657 72e6b5b5073c593b3f6451b64b09f93083 1 647 0 81 1 212 3091 195 209 633 0 208
 225 658 83 1 645 0 81 1 225 3093 195 214 631 0 212 221 659 83 3 658 .6 .6 .6 83
 3 659 .6 .6 .6 83 1 642 0 83 1 639 0 83 1 634 0 83 3 371 .6 .6 .6 81 1 330 2970
 24 265 0 327 355 366 660 81 1 338 2972 24 257 0 335 366 360 661 84 32 370 94785
67719fe1b71a0566634475939a584 32 661 f0148ed641ad476b145c0d059833f83e84 32 660 7
15183e992423f44e078ab20a959f1de15 369 424 0 104 249 662 17 104 0 369 104 104 0 2
54 101 0 0 +15 662 425 0 663 249 0 17 663 0 662 663 663 0 109 105 0 0 -17 109 0
 250 109 109 0 663 105 0 0 +15 250 419 0 109 242 624 17 254 0 243 254 254 0 104
 101 0 0 -83 3 365 .6 .6 .6 84 32 363 5fd5260f4774de09eea58aadaeea57d784 32 359
 5215832cfeebe62cd28209646ad7314384 32 356 ef5907878cc91f4edc5da18cc32046a079 21
 353 SDL/TYSA_TRANSLUCENCY83 1 348 0 83 1 344 0 83 1 340 0 83 1 336 0 83 1 332 0
 83 1 328 0 15 325 203 0 664 15 665 17 664 0 325 664 664 0 31 22 0 0 -15 665 204
 0 666 15 0 17 666 0 665 666 666 0 173 32 0 0 -17 173 0 288 173 173 0 666 32 0 0
 +15 288 179 0 173 284 0 17 31 0 291 31 31 0 664 22 0 0 +15 291 187 0 31 287 667
 15 667 146 0 668 287 0 17 668 0 667 668 668 0 171 145 0 0 -17 171 0 669 171 171
 0 668 145 0 0 +15 669 119 0 171 214 0 83 1 323 0 83 1 318 0 83 1 314 0 83 3 310
 .6 .6 .6 83 1 309 0 79 15 304 SDL/TYSA_COLOUR15 294 85 0 168 290 670 17 168 0 2
94 168 168 0 671 165 0 0 +15 670 86 0 672 290 0 17 672 0 670 672 672 0 152 149 0
 0 -17 152 0 231 152 152 0 672 149 0 0 +15 231 79 0 152 214 669 17 671 0 229 671
 671 0 168 165 0 0 -15 229 62 0 671 222 303 15 283 242 0 144 252 673 17 144 0 28
3 144 144 0 674 141 0 0 +15 673 243 0 675 252 0 17 675 0 673 675 675 0 148 137 0
 0 -17 148 0 253 148 148 0 675 137 0 0 +15 253 224 0 148 217 676 15 676 318 0 13
2 217 0 17 132 0 676 132 132 0 677 122 0 0 +17 677 0 678 677 677 0 132 122 0 0 -
15 678 355 0 677 261 0 17 674 0 280 674 674 0 144 141 0 0 -15 280 236 0 674 260
 0 15 277 276 0 136 273 623 17 136 0 277 136 136 0 679 133 0 0 +17 679 0 274 679
 679 0 136 133 0 0 -15 274 270 0 679 270 0 15 269 349 0 120 265 608 17 120 0 269
 120 120 0 680 117 0 0 +17 680 0 262 680 680 0 120 117 0 0 -15 262 359 0 680 257
 681 15 681 360 0 125 257 0 17 125 0 681 125 125 0 682 121 0 0 +17 682 0 266 682
 682 0 125 121 0 0 -15 266 354 0 682 261 678 83 3 248 .6 .6 .6 83 3 227 .6 .6 .6
 83 3 213 .6 .6 .6 17 66 0 193 66 66 0 683 63 0 0 +17 683 0 684 683 683 0 66 63
 0 0 -15 684 601 0 683 192 0 15 204 3005 0 29 192 684 17 29 0 204 29 29 0 21 8 0
 0 -83 3 199 .6 .6 .6 84 32 184 cc622c52d06d9a5cad9dfaba8159b7d284 32 27 0547678
5abd5582f108a3aae41da070519 14 5 0 1 0 7 4 S0 74 4 CI16 index_map_offset0 0 1 dC
CZ20 12 5 0 0 526 10 538 543 2 0 0 0 0 0 0 0 0 0 0 0 0 0 0 0 81 2 10 3078 685 1
 0 2 0 0 686 687 80 2 685 688 689 8004 0 0 0 0 3 5 0 0 0 FFTFFFFFFFFFFF2 3 83 1
 686 .001 84 8 687 Kg/Cu M 79 16 689 SDL/TYSA_DENSITY80 1 9 690 691 9000 0 0 0 0
 3 5 0 0 0 FFTFFFFFFFFFFF1 82 255 1 11 87 79 24 691 UG2/BODY_COLOR_ATTRIBUTE1 0
 
