**ABCDEFGHIJKLMNOPQRSTUVWXYZabcdefghijklmnopqrstuvwxyz**************************
**PARASOLID !"#$%&'()*+,-./:;<=>?@[\]^_`{|}~0123456789**************************
**PART1;
MC=x64/Windows NT;
MC_MODEL=genuineintel family 6 model 10 stepping 5, intel(r) xeon(r) cpu           w3550  @ 3.07ghz;
MC_ID=pc1401;
OS=windows nt (x64);
OS_RELEASE=6.1 windows 7 professional (build 7601) service pack 1;
FRU=mdc_ugii_v7.0_djl_can_vrh;
APPL=unigraphics;
SITE=unknown;
USER=huge;
FORMAT=text;
GUISE=transmit;
KEY=15-A_4;
FILE=D:\Daten-Huge\PLM_Export\A_Internet_Modelle\Getriebe\15-x\15-A\15-A_4.x_t;
DATE=19-aug-2016;
**PART2;
SCH=SCH_2701211_26105;
USFLD_SIZE=0;
**PART3;
**END_OF_HEADER*****************************************************************
T51 : TRANSMIT FILE created by modeller version 270121123 SCH_2701211_26105_1300
6200 0 12 30 CCCCCCCCCCCCCDI5 owner1040 0 CCCCCCCCCA13 boundary_mesh1006 0 A16 i
ndex_map_offset0 0 1 dA9 index_map82 0 A17 node_id_index_map82 0 A20 schema_embe
dding_map82 0 A5 child12 0 A14 lowest_node_id0 0 1 dZ1 3167 2 3 0 0 0 0 1e3 1e-8
 0 0 0 1 0 1 1 4 5 6 0 7 8 0 0 0 0 0 0 0 0 81 255 1 2 3167 9 1 10 0 0 0 11 70 11
 CI9 list_type0 0 1 uI10 notransmit0 0 1 lCCCDCCDI12 finger_index0 0 1 dI12 fing
er_block1012 0 CZ3 0 4 T1 0 0 5 20 1 12 12 13 255 4 3 0 1 0 13 0 0 14 0 52 255 5
 205 0 15 16 0 0 +0 0 .0126 0 0 -1 .0013601077025535 .4226182617406995 .90630778
703665 -1 0 0 133 255 6 814 0 17 18 0 0 +18 -.0059037401206902 -.003761097258427
77 -.023 -.0059037401206902 -.00376109725842777 -.023 5.71595330028143 11.999138
60746102 19 8 CCCCCCCA5 owner12 0 Z7 1 0 1 14 0 19 V0 16 255 8 2998 20 ?21 0 22
 23 0 0 1 81 1 20 3076 24 8 0 0 25 26 27 17 255 21 0 28 21 21 0 29 8 0 0 +16 22
 182 30 ?31 8 32 33 0 0 1 31 255 23 3054 0 8 34 35 0 +0 0 -.02275 0 0 -1 1 12246
46799147352e-31 0 .006 31 34 3055 0 36 37 23 0 +0 0 -.02295 0 0 -1 1 12246467991
47352e-31 0 .002824 31 35 3053 0 38 23 39 0 +0 0 -.02275 0 0 -1 1 12246467991473
52e-31 0 .002824 16 38 3025 26 ?40 41 0 35 0 0 1 31 39 767 0 42 35 43 0 +0 0 -.0
1675980762113535 0 0 -1 -1 0 0 .007 16 42 716 44 ?45 46 17 39 0 0 1 31 43 766 0
 46 39 47 0 +0 0 -.0165 0 0 -1 -1 0 0 .00685 16 46 714 48 ?49 50 42 43 0 0 1 31
 47 765 0 50 43 51 0 +0 0 -.0153 0 0 -1 -1 0 0 .00685 16 50 712 52 ?53 54 46 47
 0 0 1 31 51 764 0 54 47 55 0 +0 0 -.0153 0 0 -1 -1 0 0 .0075 16 54 708 56 ?57 5
8 50 51 0 0 1 31 55 667 0 58 51 59 0 +0 0 -.0183 0 0 1 1 0 0 .002724 16 58 641 6
0 ?61 62 54 55 0 0 1 31 59 612 0 63 55 64 0 +0 0 -.02275 0 0 1 1 0 0 .0064 16 63
 591 65 ?66 67 68 59 0 0 1 31 64 572 0 67 59 69 0 +.0055 -156173415923117e-32 0
 0 0 -1 1 -1224646799147352e-31 0 9e-4 16 67 543 70 ?71 72 63 64 0 0 1 31 69 571
 0 72 64 73 0 +.0055 -156173415923117e-32 -6e-4 0 0 -1 1 -1224646799147352e-31 0
 9e-4 16 72 542 74 ?75 76 67 69 0 0 1 31 73 570 0 76 69 77 0 +.0055 -15617341592
3117e-32 -6e-4 0 0 -1 1 -1224646799147352e-31 0 74e-5 16 76 541 78 ?79 80 72 73
 0 0 1 31 77 569 0 80 73 81 0 +.0055 -156173415923117e-32 -.004 0 0 -1 1 -122464
6799147352e-31 0 74e-5 16 80 540 82 ?83 84 76 77 0 0 1 31 81 522 0 84 77 85 0 +-
.0055 888178419700125e-33 0 0 0 -1 -1 0 0 9e-4 16 84 493 86 ?87 88 80 81 0 0 1 3
1 85 521 0 88 81 89 0 +-.0055 888178419700125e-33 -6e-4 0 0 -1 -1 0 0 9e-4 16 88
 492 90 ?91 92 84 85 0 0 1 31 89 520 0 92 85 93 0 +-.0055 888178419700125e-33 -6
e-4 0 0 -1 -1 0 0 74e-5 16 92 491 94 ?95 96 88 89 0 0 1 31 93 519 0 96 89 97 0 +
-.0055 888178419700125e-33 -.004 0 0 -1 -1 0 0 74e-5 16 96 490 98 ?99 100 92 93
 0 0 1 31 97 435 0 101 93 102 0 -0 -.0055 -1e-5 0 0 -1 1 1224646799147352e-31 0
 .0016 16 101 400 103 ?104 105 106 97 0 0 1 31 102 434 0 105 97 107 0 -0 -.0055
 -1e-5 0 0 -1 1 1224646799147352e-31 0 .00155 16 105 398 108 ?109 110 101 102 0
 0 1 31 107 433 0 100 102 111 0 +0 -.0055 0 0 0 -1 1 1224646799147352e-31 0 .001
6 16 100 394 112 ?113 106 96 107 0 0 1 31 111 432 0 106 107 114 0 +0 -.0055 0 0
 0 -1 1 1224646799147352e-31 0 .00155 16 106 402 115 ?116 101 100 111 0 0 1 31 1
14 370 0 117 111 118 0 -0 .0055 -1e-5 0 0 1 1 0 0 .0016 16 117 329 119 ?120 121
 122 114 0 0 1 31 118 369 0 121 114 123 0 -0 .0055 -1e-5 0 0 1 1 0 0 .00155 16 1
21 335 124 ?125 126 117 118 0 0 1 31 123 368 0 110 118 127 0 +0 .0055 0 0 0 1 1
 0 0 .0016 16 110 337 128 ?129 122 105 123 0 0 1 31 127 367 0 122 123 130 0 +0 .
0055 0 0 0 1 1 0 0 .00155 16 122 331 131 ?132 117 110 127 0 0 1 31 130 279 0 133
 127 134 0 +2224492873652695e-38 -.0055 -.004 0 0 -1 1 -1224606353822376e-31 0 8
e-4 16 133 261 135 ?136 137 126 130 0 0 1 31 134 278 0 126 130 138 0 +2224492873
652695e-38 -.0055 0 0 0 -1 1 -1224606353822376e-31 0 8e-4 16 126 262 139 ?140 13
3 121 134 0 0 1 31 138 245 0 141 134 142 0 +-673555739531044e-33 .0055 -.004 0 0
 -1 -1 0 0 8e-4 16 141 227 143 ?144 145 137 138 0 0 1 31 142 244 0 137 138 146 0
 +-673555739531044e-33 .0055 0 0 0 -1 -1 0 0 8e-4 16 137 228 147 ?148 141 133 14
2 0 0 1 31 146 93 0 149 142 150 0 +433680868994202e-33 0 .0026 0 0 1 1 0 0 .003
 16 149 71 151 ?152 153 145 146 0 0 1 31 150 57 0 153 146 154 0 +0 0 .001 0 0 -1
 -1 0 0 .0035 16 153 41 155 ?156 157 149 150 0 0 1 31 154 10 0 157 150 158 0 +0
 0 0 0 0 -1 -1 0 0 .0075 16 157 6 159 ?160 161 153 154 0 0 1 31 158 33 0 161 154
 162 0 +0 0 0 0 0 1 1 0 0 .0035 16 161 30 163 ?164 165 157 158 0 0 1 31 162 63 0
 165 158 166 0 +433680868994202e-33 0 .001 0 0 1 1 0 0 .003 16 165 60 167 ?168 3
2 161 162 0 0 1 31 166 119 0 145 162 169 0 -0 0 .0026 0 0 1 1 0 0 .0015 16 145 1
29 170 ?171 149 141 166 0 0 1 31 169 177 0 32 166 33 0 +0 0 .0126 0 0 1 1 0 0 .0
013601077025535 16 32 174 172 ?173 22 165 169 0 0 1 31 33 185 0 22 169 174 0 -0
 0 .0123 0 0 1 1 0 0 .0015 31 174 630 0 62 33 175 0 +0 0 -.02275 0 0 1 1 0 0 .00
2724 16 62 640 176 ?177 68 58 174 0 0 1 31 175 801 0 1 174 178 179 +0 0 -.023 0
 0 1 1 0 0 .0064 133 178 805 0 68 175 18 0 +175 -.00624829444556758 -.0013852135
29203856 -.023 -.00624829444556758 -.001385213529203856 -.023 3.359758810089085
 9.64294411726867 141 255 179 178 179 179 175 16 68 592 180 ?181 63 62 178 0 0 1
 31 18 810 0 1 178 6 182 +0 0 -.023 0 0 -1 -1 0 0 .007 141 182 6 182 182 18 81 1
 180 2923 24 68 0 0 183 176 184 17 181 0 185 181 181 0 186 68 0 0 +15 255 185 28
92 0 181 13 187 17 186 0 188 186 186 0 181 68 0 0 -15 188 605 0 186 189 0 14 255
 189 601 190 ?191 192 193 4 194 -0 0 191 192 19 81 1 190 3154 195 189 196 0 197
 198 199 14 191 3029 198 ?200 189 201 4 202 -0 0 200 189 19 14 192 593 197 ?189
 203 204 4 205 -206 206 189 203 19 15 193 604 0 66 189 188 51 255 194 608 0 189
 205 207 0 +0 0 -.023 0 0 1 .0064 1 0 0 13 19 4 0 0 0 0 0 0 7 13 14 13 15 208 ?2
09 0 185 4 210 +0 0 209 0 19 81 1 208 3084 195 13 211 0 0 212 213 14 209 386 212
 ?214 13 215 4 216 +217 218 214 13 19 50 255 210 17 0 13 216 16 0 +0 0 -.023 0 0
 -1 -1 0 0 50 216 11 0 218 219 210 0 +0 0 0 0 0 1 1 0 0 51 16 18 0 220 210 5 0 +
0 0 0 0 0 -1 .0075 -1 0 0 14 220 2 221 ?222 214 223 4 16 +0 0 222 214 19 81 1 22
1 3090 195 220 224 0 225 226 227 14 222 43 226 ?228 220 229 4 230 +0 0 228 220 1
9 14 214 77 225 ?220 209 231 4 232 +0 0 220 209 19 15 223 690 0 233 220 234 17 2
33 0 223 233 233 0 57 54 0 0 -15 234 7 0 160 220 0 17 160 0 234 160 160 0 235 15
7 0 0 +17 235 0 236 235 235 0 160 157 0 0 -15 236 8 0 235 209 237 15 237 384 0 1
13 209 0 17 113 0 237 113 113 0 238 100 0 0 +17 238 0 239 238 238 0 113 100 0 0
 -15 239 410 0 238 240 0 14 240 406 241 ?242 217 243 4 244 +0 0 242 217 19 81 1
 241 3116 195 240 245 0 246 247 248 14 242 411 247 ?249 240 250 4 251 -0 0 249 2
40 19 14 217 315 246 ?240 252 253 4 216 +218 209 240 252 19 15 243 409 0 254 240
 239 51 244 428 0 240 251 255 0 -0 -.0055 -1e-5 0 0 1 .0016 1 0 0 51 251 429 0 2
42 256 244 0 -0 -.0055 -1e-5 0 0 1 .00155 1 0 0 50 255 366 0 257 244 258 0 +0 .0
055 -1e-5 0 0 1 1 0 0 14 257 351 259 ?260 261 262 4 255 +0 0 260 261 19 51 258 3
64 0 261 255 263 0 +0 .0055 -1e-5 0 0 1 .00155 1 0 0 14 261 346 264 ?257 265 266
 4 258 +0 0 257 265 19 51 263 363 0 265 258 267 0 +0 .0055 -1e-5 0 0 1 .0016 1 0
 0 14 265 341 268 ?261 15 269 4 263 -0 0 261 15 19 50 267 277 0 270 263 271 0 +2
224492873652695e-38 -.0055 -.004 0 0 -1 1 -1224606353822376e-31 0 14 270 263 272
 ?273 249 274 4 267 -0 0 273 249 19 51 271 275 0 273 267 275 0 +2224492873652695
e-38 -.0055 0 0 0 -1 8e-4 1 -1224606353822376e-31 0 14 273 269 276 ?218 270 277
 4 271 -0 0 218 270 19 50 275 243 0 260 271 278 0 +-673555739531044e-33 .0055 -.
004 0 0 -1 -1 0 0 14 260 229 279 ?252 257 280 4 275 -0 0 252 257 19 51 278 241 0
 252 275 281 0 +-673555739531044e-33 .0055 0 0 0 -1 8e-4 -1 0 0 14 252 235 282 ?
217 260 283 4 278 -0 0 217 260 19 50 281 160 0 284 278 285 0 +0 0 .0126 0 0 1 1
 0 0 14 284 146 286 ?15 287 288 4 281 +0 0 15 287 19 51 285 158 0 287 281 232 0
 -0 0 .0126 0 0 -1 .0015 -1 0 0 14 287 140 289 ?284 290 291 4 285 -0 0 284 290 1
9 50 232 91 0 214 285 292 0 +433680868994202e-33 0 .0026 0 0 1 1 0 0 51 292 89 0
 290 232 230 0 +433680868994202e-33 0 0 0 0 1 .003 1 0 0 14 290 83 293 ?287 228
 294 4 292 +0 0 287 228 19 50 230 55 0 222 292 219 0 +0 0 .001 0 0 1 1 0 0 51 21
9 54 0 228 230 216 0 +0 0 0 0 0 1 .0035 1 0 0 14 228 48 295 ?290 222 296 4 219 +
0 0 290 222 19 81 1 295 3094 195 228 297 0 226 293 298 15 296 50 0 156 228 299 1
7 156 0 296 156 156 0 300 153 0 0 +15 299 51 0 164 228 0 17 164 0 299 164 164 0
 301 161 0 0 +17 301 0 302 301 301 0 164 161 0 0 -15 302 32 0 301 209 236 17 300
 0 303 300 300 0 156 153 0 0 -15 303 45 0 300 222 0 80 255 1 195 0 304 8001 0 0
 0 0 3 5 0 0 0 FFFFTFTFFFFFFF2 81 1 297 3093 305 228 306 295 307 308 309 81 1 22
6 3092 195 222 307 0 221 295 310 81 1 293 3096 195 290 308 0 295 289 311 83 255
 3 298 .6 .6 .6 81 1 308 3095 305 290 312 293 297 313 314 81 1 289 3098 195 287
 313 0 293 286 315 83 3 311 .6 .6 .6 81 1 313 3097 305 287 316 289 308 317 318 8
1 1 286 3100 195 284 317 0 289 319 320 83 3 315 .6 .6 .6 81 1 317 3099 305 284 3
21 286 313 322 323 81 1 319 3102 195 15 322 0 286 268 324 83 3 320 .6 .6 .6 14 1
5 198 319 ?265 284 325 4 5 +0 0 265 284 19 81 1 322 3101 305 15 326 319 317 327
 328 81 1 268 3104 195 265 327 0 319 264 329 83 3 324 .6 .6 .6 81 1 327 3103 305
 265 330 268 322 331 332 81 1 264 3106 195 261 331 0 268 259 333 83 3 329 .6 .6
 .6 81 1 331 3105 305 261 334 264 327 335 336 81 1 259 3108 195 257 335 0 264 27
9 337 83 3 333 .6 .6 .6 81 1 335 3107 305 257 338 259 331 339 340 81 1 279 3110
 195 260 339 0 259 282 341 83 3 337 .6 .6 .6 81 1 339 3109 305 260 342 279 335 3
43 344 81 1 282 3112 195 252 343 0 279 246 345 83 3 341 .6 .6 .6 81 1 343 3111 3
05 252 346 282 339 347 348 81 1 246 3114 195 217 347 0 282 241 349 83 3 345 .6 .
6 .6 81 1 347 3113 305 217 350 246 343 245 351 83 3 349 .6 .6 .6 80 1 305 352 35
3 8015 0 0 0 0 3 5 0 0 0 FFFFTFFFFFFFFF2 81 1 350 2970 24 217 0 347 338 354 355
 81 1 245 3115 305 240 356 241 347 357 358 83 1 351 0 81 1 356 2966 24 240 0 245
 359 330 360 81 1 357 3117 305 242 361 247 245 362 363 83 1 358 0 81 1 361 2963
 24 242 0 357 364 334 365 81 1 247 3118 195 242 357 0 241 366 367 81 1 362 3119
 305 249 368 366 357 369 370 83 1 363 0 14 249 416 366 ?270 242 371 4 256 -0 0 2
70 242 19 81 1 368 2968 24 249 0 362 330 338 372 81 1 366 3120 195 249 362 0 247
 272 373 81 1 369 3121 305 270 374 272 362 375 376 83 1 370 0 81 1 374 2945 24 2
70 0 369 346 377 378 81 1 272 3122 195 270 369 0 366 276 379 81 1 375 3123 305 2
73 377 276 369 380 381 83 1 376 0 81 1 377 2946 24 273 0 375 374 382 383 81 1 27
6 3124 195 273 375 0 272 384 385 81 1 380 3125 305 218 359 384 375 386 387 83 1
 381 0 14 218 9 384 ?388 273 389 4 216 +209 217 388 273 19 81 1 359 2965 24 218
 0 380 334 356 390 81 1 384 3126 195 218 380 0 276 391 392 81 1 386 3127 305 388
 393 391 380 394 395 83 1 387 0 14 388 497 391 ?396 218 397 4 398 -0 0 396 218 1
9 81 1 393 2951 24 388 0 386 399 400 401 81 1 391 3128 195 388 386 0 384 402 403
 81 1 394 3129 305 396 400 402 386 404 405 83 1 395 0 14 396 500 402 ?406 388 40
7 4 408 -0 0 406 388 19 81 1 400 2952 24 396 0 394 393 409 410 81 1 402 3130 195
 396 394 0 391 411 412 81 1 404 3131 305 406 409 411 394 413 414 83 1 405 0 14 4
06 504 411 ?415 396 416 4 417 -0 0 415 396 19 81 1 409 2953 24 406 0 404 400 418
 419 81 1 411 3132 195 406 404 0 402 420 421 81 1 413 3133 305 415 418 420 404 4
22 423 83 1 414 0 14 415 508 420 ?424 406 425 4 426 -0 0 424 406 19 81 1 418 295
4 24 415 0 413 409 427 428 81 1 420 3134 195 415 413 0 411 429 430 81 1 422 3135
 305 424 431 429 413 432 433 83 1 423 0 14 424 547 429 ?434 415 435 4 207 -0 0 4
34 415 19 81 1 431 2956 24 424 0 422 427 436 437 81 1 429 3136 195 424 422 0 420
 438 439 81 1 432 3137 305 434 440 438 422 441 442 83 1 433 0 14 434 550 438 ?44
3 424 444 4 445 -0 0 443 424 19 81 1 440 2958 24 434 0 432 436 446 447 81 1 438
 3138 195 434 432 0 429 448 449 81 1 441 3139 305 443 436 448 432 450 451 83 1 4
42 0 14 443 554 448 ?452 434 453 4 454 -0 0 452 434 19 81 1 436 2957 24 443 0 44
1 431 440 455 81 1 448 3140 195 443 441 0 438 456 457 81 1 450 3141 305 452 427
 456 441 458 459 83 1 451 0 14 452 558 456 ?460 443 461 4 462 -0 0 460 443 19 81
 1 427 2955 24 452 0 450 418 431 463 81 1 456 3142 195 452 450 0 448 464 465 81
 1 458 3143 305 460 466 464 450 467 468 83 1 459 0 14 460 731 464 ?469 452 470 4
 471 -0 0 469 452 19 81 1 466 2961 24 460 0 458 472 364 473 81 1 464 3144 195 46
0 458 0 456 474 475 81 1 467 3145 305 469 446 474 458 476 477 83 1 468 0 14 469
 736 474 ?478 460 479 4 480 -0 0 478 460 19 81 1 446 2959 24 469 0 467 440 472 4
81 81 1 474 3146 195 469 467 0 464 482 483 81 1 476 3147 305 478 364 482 467 484
 485 83 1 477 0 14 478 741 482 ?203 469 486 4 487 -0 0 203 469 19 81 1 364 2962
 24 478 0 476 466 361 488 81 1 482 3148 195 478 476 0 474 489 490 81 1 484 3149
 305 203 472 489 476 491 492 83 1 485 0 14 203 746 489 ?192 478 493 4 494 -0 0 1
92 478 19 81 1 472 2960 24 203 0 484 446 466 495 81 1 489 3150 195 203 484 0 482
 197 496 81 1 491 3151 305 192 497 197 484 196 498 83 1 492 0 81 1 497 3078 24 1
92 0 491 26 499 500 81 1 197 3152 195 192 491 0 489 190 501 81 1 196 3153 305 18
9 382 190 491 502 503 83 1 498 0 81 1 382 2948 24 189 0 196 377 504 505 81 1 502
 3155 305 191 499 198 196 506 507 83 1 503 0 81 1 499 3079 24 191 0 502 497 508
 509 81 1 198 3156 195 191 502 0 190 510 511 81 1 506 3157 305 200 508 510 502 5
12 513 83 1 507 0 14 200 3034 510 ?514 191 515 4 516 +0 0 514 191 19 81 1 508 30
80 24 200 0 506 499 517 518 81 1 510 3158 195 200 506 0 198 519 520 81 1 512 315
9 305 514 517 519 506 521 522 83 1 513 0 14 514 3039 519 ?523 200 524 4 525 +0 0
 523 200 19 81 1 517 3081 24 514 0 512 508 526 527 81 1 519 3160 195 514 512 0 5
10 528 529 81 1 521 3161 305 523 504 528 512 530 531 83 1 522 0 14 523 648 528 ?
532 514 533 4 534 -0 0 532 514 19 81 1 504 2949 24 523 0 521 382 399 535 81 1 52
8 3162 195 523 521 0 519 536 537 81 1 530 3163 305 532 399 536 521 538 539 83 1
 531 0 14 532 656 536 ?206 523 540 4 541 -0 0 206 523 19 81 1 399 2950 24 532 0
 530 504 393 542 81 1 536 3164 195 532 530 0 528 543 544 81 1 538 3165 305 206 5
26 543 530 0 545 83 1 539 0 14 206 2993 543 ?0 532 546 4 205 -192 192 0 532 19 8
1 1 526 3082 24 206 0 538 517 0 547 81 1 543 3166 195 206 538 0 536 0 548 83 1 5
45 0 83 3 548 .6 .6 .6 80 1 24 549 550 9000 1 1 1 1 1 1 1 1 0 FFFFTFTFFFFFFF3 84
 255 32 547 2de516d0f03417f5fda2b17be86fe0bf79 255 15 550 UGS/ObjectState15 546
 628 0 177 206 551 50 205 610 0 192 541 194 0 +0 0 -.02275 0 0 1 1 0 0 51 541 66
3 0 532 534 205 0 +0 0 -.023 0 0 1 .002724 1 0 0 50 534 665 0 523 471 541 0 +0 0
 -.0183 0 0 1 1 0 0 50 471 759 0 460 480 534 0 +.0075 0 -.0153 0 0 1 1 0 0 51 48
0 760 0 469 487 471 0 -0 0 0 0 0 -1 .00685 -1 0 0 52 487 761 0 478 494 480 0 -0
 0 -.0165 0 0 -1 .00685 .5 .866025403784439 -1 0 0 51 494 762 0 203 202 487 0 -0
 0 0 0 0 -1 .007 -1 0 0 51 202 3049 0 191 516 494 0 -0 0 -.02295 0 0 1 .006 1 0
 0 51 516 3050 0 200 525 202 0 -0 0 -.02295 0 0 1 .002824 1 0 0 50 525 3052 0 51
4 0 516 0 +0 0 -.02295 0 0 -1 -1 0 0 17 177 0 546 177 177 0 552 62 0 0 +15 551 2
991 0 40 206 0 17 40 0 551 40 40 0 553 38 0 0 +17 553 0 554 553 553 0 40 38 0 0
 -15 554 3038 0 553 200 0 17 552 0 555 552 552 0 177 62 0 0 -15 555 647 0 552 53
2 0 83 3 544 .6 .6 .6 84 32 542 06d19719c972df584c08e7b83f54add715 540 646 0 61
 532 555 17 61 0 540 61 61 0 556 58 0 0 +17 556 0 533 556 556 0 61 58 0 0 -15 53
3 651 0 556 523 0 83 3 537 .6 .6 .6 84 32 535 0358691d462436354c5b119d5390f3ab83
 3 529 .6 .6 .6 84 32 527 c206a01446f82f4eedca55c7c3f777ad15 524 3042 0 557 514
 558 17 557 0 524 557 557 0 559 41 0 0 +15 558 3043 0 560 514 0 17 560 0 558 560
 560 0 561 36 0 0 -17 561 0 515 561 561 0 560 36 0 0 +16 36 3021 25 ?561 17 41 3
4 0 0 1 81 1 25 3075 24 36 0 0 354 20 562 16 17 718 183 ?563 42 36 6 0 0 1 16 41
 3023 354 ?557 36 38 37 0 0 1 81 1 354 3074 24 41 0 0 350 25 564 31 37 3056 0 41
 0 34 0 +0 0 -.02295 0 0 -1 1 1224646799147352e-31 0 .006 84 32 564 c5f7f1047f78
b58c834aab494343654681 1 183 2922 24 17 0 0 48 180 565 17 563 0 187 563 563 0 56
6 17 0 0 +15 187 1572 0 563 13 0 17 566 0 493 566 566 0 563 17 0 0 -15 493 749 0
 566 203 567 15 567 750 0 45 203 0 17 45 0 567 45 45 0 568 42 0 0 +17 568 0 486
 568 568 0 45 42 0 0 -15 486 744 0 568 478 569 15 569 745 0 49 478 0 17 49 0 569
 49 49 0 570 46 0 0 +17 570 0 479 570 570 0 49 46 0 0 -15 479 739 0 570 469 571
 15 571 740 0 53 469 0 17 53 0 571 53 53 0 572 50 0 0 +17 572 0 470 572 572 0 53
 50 0 0 -15 470 734 0 572 460 573 15 573 735 0 57 460 0 17 57 0 573 57 57 0 233
 54 0 0 +81 1 48 2921 24 46 0 0 56 183 574 84 32 565 37cd25ab17c44277403d51cb3f4
1554c81 1 56 2920 24 54 0 0 44 48 575 84 32 574 dd61c60f07f4e05d42a5c22655983467
81 1 44 2919 24 42 0 0 52 56 576 84 32 575 2734b2af9130112743e7b4150e672c6d81 1
 52 2918 24 50 0 0 70 44 577 84 32 576 f4c443e110fd2eec30c4078db68a9af381 1 70 2
917 24 67 0 0 82 52 578 84 32 577 d20023ab2a315efcf134380281fd98e581 1 82 2916 2
4 80 0 0 78 70 579 84 32 578 2106ed0bb29eec61671e8724bc21df2381 1 78 2915 24 76
 0 0 74 82 580 84 32 579 4a24c7e60fe786b6720d7dc4ee66fc8681 1 74 2914 24 72 0 0
 86 78 581 84 32 580 1bcc40f8ab8baa0e2937486a9d87159981 1 86 2913 24 84 0 0 90 7
4 582 84 32 581 a9645951fb74b9a78c7326d5660d2da081 1 90 2912 24 88 0 0 94 86 583
 84 32 582 2773153653625398b3cbdbe8dc25d24181 1 94 2911 24 92 0 0 98 90 584 84 3
2 583 07d67829cdbcc2537946571c3955a10281 1 98 2910 24 96 0 0 60 94 585 84 32 584
 ba8ace001cfcdb3e717397643688a25381 1 60 2909 24 58 0 0 65 98 586 84 32 585 0b85
5367d7c24a75f8c4b49e3540725281 1 65 2908 24 63 0 0 135 60 587 84 32 586 1e4326cb
2796b93484501783f761c20781 1 135 2907 24 133 0 0 139 65 588 84 32 587 acc361d2ac
50c8716dc050f0126299c081 1 139 2906 24 126 0 0 147 135 589 84 32 588 1ff99dad29a
8f4820929ed20757fbf0381 1 147 2905 24 137 0 0 143 139 590 84 32 589 17a96111d2af
75d0abe4541a4bf643d481 1 143 2904 24 141 0 0 172 147 591 84 32 590 f4cadde7b59df
7dce620bd3a2598710481 1 172 2903 24 32 0 0 30 143 592 84 32 591 3a585f1f7013efab
826d64f89feaa9d381 1 30 2902 24 22 0 0 170 172 593 84 32 592 83db219fc2f2820c929
7e002be91229981 1 170 2901 24 145 0 0 167 30 594 84 32 593 2a1782e9d03004cebf86d
781a112cc8281 1 167 2900 24 165 0 0 151 170 595 84 32 594 aba2185886bc9259e57d4f
d427bbf09181 1 151 2899 24 149 0 0 163 167 596 84 32 595 0ddcaa2d2b9301bab7a9ee2
34f7712c681 1 163 2898 24 161 0 0 159 151 597 84 32 596 b54199a711ff8857506f4b80
c5e5e88181 1 159 2897 24 157 0 0 155 163 598 84 32 597 a39ccd17ca21eefffd8373981
a9c8cb881 1 155 2896 24 153 0 0 0 159 599 84 32 598 1823eff5518ba85ad4c507a99398
3d8684 32 599 063940745cf9d47eac9c6dd1f5491c8a84 32 562 49e80d36bb28b49420b3f00b
57f2be0c15 515 3037 0 561 200 554 17 559 0 201 559 559 0 557 41 0 0 -15 201 3032
 0 559 191 28 15 28 3033 0 21 191 0 83 3 520 .6 .6 .6 84 32 518 fcbd5e8fa7abae0e
c7193fe209f7a27a83 3 511 .6 .6 .6 84 32 509 c0643091dd3ae1377163191bdbe0998b84 3
2 505 757c27915cac1220533598967c456a9e83 3 501 .6 .6 .6 81 1 26 3077 24 38 0 0 2
0 497 600 84 32 500 b18fa07f2733b35eff5273f0fa7c8dcc84 32 600 d2f1c4d487acd3d1b3
62130a66c37dd083 3 496 .6 .6 .6 84 32 495 ff6b01e5eb465cc8e3469b989458ff4f83 3 4
90 .6 .6 .6 84 32 488 298368ebd39766950b59f54cfaebc83e83 3 483 .6 .6 .6 84 32 48
1 827177f0d14f77c5798ffc2d8de8775e83 3 475 .6 .6 .6 84 32 473 0cb8c8c045314d9b4b
7767ce6771d48b83 3 465 .6 .6 .6 84 32 463 5f7177f97ca86ee73deee60e1e5fb37815 461
 560 0 75 452 601 51 462 564 0 452 454 398 0 +.0055 -156173415923117e-32 0 0 0 -
1 9e-4 1 -1224646799147352e-31 0 50 454 565 0 443 445 462 0 +.0055 -156173415923
117e-32 -6e-4 0 0 -1 1 -1224646799147352e-31 0 50 398 517 0 388 462 408 0 +-.005
5 888178419700125e-33 -.004 0 0 -1 -1 0 0 51 408 516 0 396 398 417 0 +-.0055 888
178419700125e-33 -.004 0 0 -1 74e-5 -1 0 0 50 417 515 0 406 408 426 0 +-.0055 88
8178419700125e-33 -6e-4 0 0 -1 -1 0 0 51 426 514 0 415 417 256 0 +-.0055 8881784
19700125e-33 0 0 0 -1 9e-4 -1 0 0 50 256 431 0 249 426 251 0 +0 -.0055 -1e-5 0 0
 -1 -1 0 0 51 445 566 0 434 207 454 0 +.0055 -156173415923117e-32 -.004 0 0 -1 7
4e-5 1 -1224646799147352e-31 0 50 207 567 0 424 194 445 0 +.0055 -15617341592311
7e-32 -.004 0 0 -1 1 -1224646799147352e-31 0 17 75 0 461 75 75 0 602 72 0 0 +15
 601 561 0 603 452 0 17 603 0 601 603 603 0 71 67 0 0 -17 71 0 215 71 71 0 603 6
7 0 0 +15 215 530 0 71 209 604 15 604 480 0 87 209 605 17 87 0 604 87 87 0 606 8
4 0 0 +15 605 320 0 607 209 302 17 607 0 605 607 607 0 129 110 0 0 -17 129 0 608
 129 129 0 607 110 0 0 +15 608 345 0 129 265 0 17 606 0 609 606 606 0 87 84 0 0
 -15 609 511 0 606 415 0 17 602 0 610 602 602 0 75 72 0 0 -15 610 557 0 602 443
 0 83 3 457 .6 .6 .6 84 32 455 f96fe2975762f273506c4b398264dd9215 453 556 0 79 4
43 610 17 79 0 453 79 79 0 611 76 0 0 +17 611 0 612 611 611 0 79 76 0 0 -15 612
 553 0 611 434 0 83 3 449 .6 .6 .6 84 32 447 44e4b91ea260a2d1dbefd1128d390fd815
 444 552 0 83 434 612 17 83 0 444 83 83 0 613 80 0 0 +17 613 0 435 613 613 0 83
 80 0 0 -15 435 549 0 613 424 0 83 3 439 .6 .6 .6 84 32 437 5e6771aa0eafae6c8d5f
fa10032c640b83 3 430 .6 .6 .6 84 32 428 7f2074a062e0ae0707d8397f4d5e96cc15 425 5
10 0 91 415 609 17 91 0 425 91 91 0 614 88 0 0 +17 614 0 615 614 614 0 91 88 0 0
 -15 615 507 0 614 406 0 83 3 421 .6 .6 .6 84 32 419 fe9a9c72bfc8678a2d4983e2099
e7a1015 416 506 0 95 406 615 17 95 0 416 95 95 0 616 92 0 0 +17 616 0 617 616 61
6 0 95 92 0 0 -15 617 503 0 616 396 0 83 3 412 .6 .6 .6 84 32 410 8efd42c11591c5
8ff7a8f88d7437967e15 407 502 0 99 396 617 17 99 0 407 99 99 0 618 96 0 0 +17 618
 0 397 618 618 0 99 96 0 0 -15 397 499 0 618 388 0 83 3 403 .6 .6 .6 84 32 401 4
329b3391ff6c118f86848617047878a83 3 392 .6 .6 .6 81 1 334 2964 24 261 0 331 361
 359 619 84 32 390 7fdec625e304f99f50a873bf26707f6784 32 619 76adb5891e07a7e9729
19f852295a47715 389 379 0 620 218 621 17 620 0 389 620 620 0 116 106 0 0 -15 621
 253 0 140 218 0 17 140 0 621 140 140 0 622 126 0 0 +17 622 0 623 622 622 0 140
 126 0 0 -15 623 272 0 622 273 0 17 116 0 624 116 116 0 620 106 0 0 +15 624 415
 0 116 242 0 83 3 385 .6 .6 .6 84 32 383 7a3e02831cf0a81bcb5764e8c6d4fff483 3 37
9 .6 .6 .6 81 1 346 2944 24 252 0 343 342 374 625 84 32 378 8064f7f57b2b08c8a8e8
8a6618d64ca981 1 342 2943 24 260 0 339 326 346 626 84 32 625 ae4cb8e9a2f83d0e3f3
ad9cae238ba1f81 1 326 2942 24 15 0 322 321 342 627 84 32 626 f37cf9dc0850faf6092
99fa00364a0d081 1 321 2941 24 284 0 317 316 326 628 84 32 627 a67acce47148d80c43
8a7a4fb3b782c481 1 316 2940 24 287 0 313 629 321 630 84 32 628 a2a465ba10c5ea815
6173394e844047d81 1 629 2939 24 214 0 631 312 316 632 84 32 630 e54f71ac93535bbd
929f1be86b5d9cb181 1 631 3087 305 214 629 225 633 224 634 81 1 312 2938 24 290 0
 308 635 629 636 84 32 632 3bb2e0f9e1828d2fe7a1cfa26da8f79881 1 635 2937 24 13 0
 211 637 312 638 84 32 636 4e726ca07c9317fe4b959f23d37d8b4f81 1 211 3083 305 13
 635 208 0 633 639 81 1 637 2936 24 220 0 224 640 635 641 84 32 638 8ef2c9dd22a6
31c7e8ded045bb8a0f3f81 1 224 3089 305 220 637 221 631 307 642 81 1 640 2935 24 2
09 0 633 643 637 644 84 32 641 eca308a3a433b12f99a0038a62d0030e81 1 633 3085 305
 209 640 212 211 631 645 81 1 643 2934 24 222 0 307 306 640 646 84 32 644 929572
77bf3108eef03bbb7e2b54216d81 1 307 3091 305 222 643 226 224 297 647 81 1 306 293
3 24 228 0 297 128 643 648 84 32 646 00266665a37b955ed213137f013c239a81 1 128 29
32 24 110 0 0 119 306 649 84 32 648 cd9ca3b2cb09c9e96ac1b62ad1f07db381 1 119 293
1 24 117 0 0 103 128 650 84 32 649 ccadf714e9ce7b5bddd96a073224b83581 1 103 2930
 24 101 0 0 131 119 651 84 32 650 9b5557c63ebc1037fffe5e7c451b6bb481 1 131 2929
 24 122 0 0 108 103 652 84 32 651 a6687a0a9d54d2b6d61cb947fc60584d81 1 108 2928
 24 105 0 0 112 131 653 84 32 652 bd0e284b92ace76e15148ab6a693b65b81 1 112 2927
 24 100 0 0 124 108 654 84 32 653 a879ae08cc64d6fc365826152d7d5ace81 1 124 2926
 24 121 0 0 115 112 655 84 32 654 1e447cdd8ee13b3ca7863d883aed5e7981 1 115 2925
 24 106 0 0 176 124 656 84 32 655 fbb526e65f1278e5fde0457b5dfa448781 1 176 2924
 24 62 0 0 180 115 657 84 32 656 6bde0ffe1c66c4f952c330ef9770b99f84 32 657 a581f
23132381f43a1f4ad4a451894fd83 1 647 0 81 1 212 3086 195 209 633 0 208 225 658 83
 1 645 0 81 1 225 3088 195 214 631 0 212 221 659 83 3 658 .6 .6 .6 83 3 659 .6 .
6 .6 83 1 642 0 83 1 639 0 83 1 634 0 83 3 373 .6 .6 .6 81 1 330 2967 24 265 0 3
27 356 368 660 81 1 338 2969 24 257 0 335 368 350 661 84 32 372 9478567719fe1b71
a0566634475939a584 32 661 f0148ed641ad476b145c0d059833f83e84 32 660 715183e99242
3f44e078ab20a959f1de15 371 419 0 104 249 662 17 104 0 371 104 104 0 254 101 0 0
 +15 662 420 0 663 249 0 17 663 0 662 663 663 0 109 105 0 0 -17 109 0 250 109 10
9 0 663 105 0 0 +15 250 414 0 109 242 624 17 254 0 243 254 254 0 104 101 0 0 -83
 3 367 .6 .6 .6 84 32 365 5fd5260f4774de09eea58aadaeea57d784 32 360 5215832cfeeb
e62cd28209646ad7314384 32 355 ef5907878cc91f4edc5da18cc32046a079 21 353 SDL/TYSA
_TRANSLUCENCY83 1 348 0 83 1 344 0 83 1 340 0 83 1 336 0 83 1 332 0 83 1 328 0 1
5 325 199 0 664 15 665 17 664 0 325 664 664 0 31 22 0 0 -15 665 200 0 666 15 0 1
7 666 0 665 666 666 0 173 32 0 0 -17 173 0 288 173 173 0 666 32 0 0 +15 288 175
 0 173 284 0 17 31 0 291 31 31 0 664 22 0 0 +15 291 183 0 31 287 667 15 667 144
 0 668 287 0 17 668 0 667 668 668 0 171 145 0 0 -17 171 0 669 171 171 0 668 145
 0 0 +15 669 117 0 171 214 0 83 1 323 0 83 1 318 0 83 1 314 0 83 3 310 .6 .6 .6
 83 1 309 0 79 15 304 SDL/TYSA_COLOUR15 294 85 0 168 290 670 17 168 0 294 168 16
8 0 671 165 0 0 +15 670 86 0 672 290 0 17 672 0 670 672 672 0 152 149 0 0 -17 15
2 0 231 152 152 0 672 149 0 0 +15 231 79 0 152 214 669 17 671 0 229 671 671 0 16
8 165 0 0 -15 229 62 0 671 222 303 15 283 237 0 144 252 673 17 144 0 283 144 144
 0 674 141 0 0 +15 673 238 0 675 252 0 17 675 0 673 675 675 0 148 137 0 0 -17 14
8 0 253 148 148 0 675 137 0 0 +15 253 219 0 148 217 676 15 676 313 0 132 217 0 1
7 132 0 676 132 132 0 677 122 0 0 +17 677 0 678 677 677 0 132 122 0 0 -15 678 35
0 0 677 261 0 17 674 0 280 674 674 0 144 141 0 0 -15 280 231 0 674 260 0 15 277
 271 0 136 273 623 17 136 0 277 136 136 0 679 133 0 0 +17 679 0 274 679 679 0 13
6 133 0 0 -15 274 265 0 679 270 0 15 269 344 0 120 265 608 17 120 0 269 120 120
 0 680 117 0 0 +17 680 0 262 680 680 0 120 117 0 0 -15 262 354 0 680 257 681 15
 681 355 0 125 257 0 17 125 0 681 125 125 0 682 121 0 0 +17 682 0 266 682 682 0
 125 121 0 0 -15 266 349 0 682 261 678 83 3 248 .6 .6 .6 83 3 227 .6 .6 .6 83 3
 213 .6 .6 .6 17 66 0 193 66 66 0 683 63 0 0 +17 683 0 684 683 683 0 66 63 0 0 -
15 684 596 0 683 192 0 15 204 3000 0 29 192 684 17 29 0 204 29 29 0 21 8 0 0 -83
 3 199 .6 .6 .6 84 32 184 0edef9c75edfe4d14bdf6afac7dce6b384 32 27 106106db8120e
4db794692d5b537f6e019 14 5 0 1 0 7 4 S0 74 4 CI16 index_map_offset0 0 1 dCCZ20 1
2 5 0 0 526 10 538 543 2 0 0 0 0 0 0 0 0 0 0 0 0 0 0 0 81 2 10 3073 685 1 0 2 0
 0 686 687 80 2 685 688 689 8004 0 0 0 0 3 5 0 0 0 FFTFFFFFFFFFFF2 3 83 1 686 .0
01 84 8 687 Kg/Cu M 79 16 689 SDL/TYSA_DENSITY80 1 9 690 691 9000 0 0 0 0 3 5 0
 0 0 FFTFFFFFFFFFFF1 82 255 1 11 87 79 24 691 UG2/BODY_COLOR_ATTRIBUTE1 0 
