**ABCDEFGHIJKLMNOPQRSTUVWXYZabcdefghijklmnopqrstuvwxyz**************************
**PARASOLID !"#$%&'()*+,-./:;<=>?@[\]^_`{|}~0123456789**************************
**PART1;
MC=x64/Windows NT;
MC_MODEL=genuineintel family 6 model 10 stepping 5, intel(r) xeon(r) cpu           w3550  @ 3.07ghz;
MC_ID=pc1401;
OS=windows nt (x64);
OS_RELEASE=6.1 windows 7 professional (build 7601) service pack 1;
FRU=mdc_ugii_v7.0_djl_can_vrh;
APPL=unigraphics;
SITE=unknown;
USER=huge;
FORMAT=text;
GUISE=transmit;
KEY=15-A_6;
FILE=D:\Daten-Huge\PLM_Export\A_Internet_Modelle\Getriebe\15-x\15-A\15-A_6.x_t;
DATE=19-aug-2016;
**PART2;
SCH=SCH_2701211_26105;
USFLD_SIZE=0;
**PART3;
**END_OF_HEADER*****************************************************************
T51 : TRANSMIT FILE created by modeller version 270121123 SCH_2701211_26105_1300
6200 0 12 30 CCCCCCCCCCCCCDI5 owner1040 0 CCCCCCCCCA13 boundary_mesh1006 0 A16 i
ndex_map_offset0 0 1 dA9 index_map82 0 A17 node_id_index_map82 0 A20 schema_embe
dding_map82 0 A5 child12 0 A14 lowest_node_id0 0 1 dZ1 3167 2 3 0 0 0 0 1e3 1e-8
 0 0 0 1 0 1 1 4 5 6 0 7 8 0 0 0 0 0 0 0 0 81 255 1 2 3167 9 1 10 0 0 0 11 70 11
 CI9 list_type0 0 1 uI10 notransmit0 0 1 lCCCDCCDI12 finger_index0 0 1 dI12 fing
er_block1012 0 CZ3 0 4 T1 0 0 5 20 1 12 12 13 255 4 3 0 1 0 13 0 0 14 0 52 255 5
 205 0 15 16 0 0 +0 0 .0126 0 0 -1 .0013601077025535 .4226182617406995 .90630778
703665 -1 0 0 133 255 6 814 0 17 18 0 0 +18 -.0059037401206902 -.003761097258427
77 -.0302 -.0059037401206902 -.00376109725842777 -.0302 5.71595330028143 11.9991
3860746102 19 8 CCCCCCCA5 owner12 0 Z7 1 0 1 14 0 19 V0 16 255 8 2998 20 ?21 0 2
2 23 0 0 1 81 1 20 3076 24 8 0 0 25 26 27 17 255 21 0 28 21 21 0 29 8 0 0 +16 22
 182 30 ?31 8 32 33 0 0 1 31 255 23 3054 0 8 34 35 0 +0 0 -.02995 0 0 -1 1 12246
46799147352e-31 0 .006 31 34 3055 0 36 37 23 0 +0 0 -.03015 0 0 -1 1 12246467991
47352e-31 0 .002824 31 35 3053 0 38 23 39 0 +0 0 -.02995 0 0 -1 1 12246467991473
52e-31 0 .002824 16 38 3025 26 ?40 41 0 35 0 0 1 31 39 767 0 42 35 43 0 +0 0 -.0
2395980762113535 0 0 -1 -1 0 0 .007 16 42 716 44 ?45 46 17 39 0 0 1 31 43 766 0
 46 39 47 0 +0 0 -.0237 0 0 -1 -1 0 0 .00685 16 46 714 48 ?49 50 42 43 0 0 1 31
 47 765 0 50 43 51 0 +0 0 -.0225 0 0 -1 -1 0 0 .00685 16 50 712 52 ?53 54 46 47
 0 0 1 31 51 764 0 54 47 55 0 +0 0 -.0225 0 0 -1 -1 0 0 .0075 16 54 708 56 ?57 5
8 50 51 0 0 1 31 55 667 0 58 51 59 0 +0 0 -.0255 0 0 1 1 0 0 .002724 16 58 641 6
0 ?61 62 54 55 0 0 1 31 59 612 0 63 55 64 0 +0 0 -.02995 0 0 1 1 0 0 .0064 16 63
 591 65 ?66 67 68 59 0 0 1 31 64 572 0 67 59 69 0 +.0055 -156173415923117e-32 0
 0 0 -1 1 -1224646799147352e-31 0 9e-4 16 67 543 70 ?71 72 63 64 0 0 1 31 69 571
 0 72 64 73 0 +.0055 -156173415923117e-32 -6e-4 0 0 -1 1 -1224646799147352e-31 0
 9e-4 16 72 542 74 ?75 76 67 69 0 0 1 31 73 570 0 76 69 77 0 +.0055 -15617341592
3117e-32 -6e-4 0 0 -1 1 -1224646799147352e-31 0 74e-5 16 76 541 78 ?79 80 72 73
 0 0 1 31 77 569 0 80 73 81 0 +.0055 -156173415923117e-32 -.004 0 0 -1 1 -122464
6799147352e-31 0 74e-5 16 80 540 82 ?83 84 76 77 0 0 1 31 81 522 0 84 77 85 0 +-
.0055 888178419700125e-33 0 0 0 -1 -1 0 0 9e-4 16 84 493 86 ?87 88 80 81 0 0 1 3
1 85 521 0 88 81 89 0 +-.0055 888178419700125e-33 -6e-4 0 0 -1 -1 0 0 9e-4 16 88
 492 90 ?91 92 84 85 0 0 1 31 89 520 0 92 85 93 0 +-.0055 888178419700125e-33 -6
e-4 0 0 -1 -1 0 0 74e-5 16 92 491 94 ?95 96 88 89 0 0 1 31 93 519 0 96 89 97 0 +
-.0055 888178419700125e-33 -.004 0 0 -1 -1 0 0 74e-5 16 96 490 98 ?99 100 92 93
 0 0 1 31 97 435 0 101 93 102 0 -0 -.0055 -1e-5 0 0 -1 1 1224646799147352e-31 0
 .0016 16 101 400 103 ?104 105 106 97 0 0 1 31 102 434 0 105 97 107 0 -0 -.0055
 -1e-5 0 0 -1 1 1224646799147352e-31 0 .00155 16 105 398 108 ?109 110 101 102 0
 0 1 31 107 433 0 100 102 111 0 +0 -.0055 0 0 0 -1 1 1224646799147352e-31 0 .001
6 16 100 394 112 ?113 106 96 107 0 0 1 31 111 432 0 106 107 114 0 +0 -.0055 0 0
 0 -1 1 1224646799147352e-31 0 .00155 16 106 402 115 ?116 101 100 111 0 0 1 31 1
14 370 0 117 111 118 0 -0 .0055 -1e-5 0 0 1 1 0 0 .0016 16 117 329 119 ?120 121
 122 114 0 0 1 31 118 369 0 121 114 123 0 -0 .0055 -1e-5 0 0 1 1 0 0 .00155 16 1
21 335 124 ?125 126 117 118 0 0 1 31 123 368 0 110 118 127 0 +0 .0055 0 0 0 1 1
 0 0 .0016 16 110 337 128 ?129 122 105 123 0 0 1 31 127 367 0 122 123 130 0 +0 .
0055 0 0 0 1 1 0 0 .00155 16 122 331 131 ?132 117 110 127 0 0 1 31 130 279 0 133
 127 134 0 +2224492873652695e-38 -.0055 -.004 0 0 -1 1 -1224606353822376e-31 0 8
e-4 16 133 261 135 ?136 137 126 130 0 0 1 31 134 278 0 126 130 138 0 +2224492873
652695e-38 -.0055 0 0 0 -1 1 -1224606353822376e-31 0 8e-4 16 126 262 139 ?140 13
3 121 134 0 0 1 31 138 245 0 141 134 142 0 +-673555739531044e-33 .0055 -.004 0 0
 -1 -1 0 0 8e-4 16 141 227 143 ?144 145 137 138 0 0 1 31 142 244 0 137 138 146 0
 +-673555739531044e-33 .0055 0 0 0 -1 -1 0 0 8e-4 16 137 228 147 ?148 141 133 14
2 0 0 1 31 146 93 0 149 142 150 0 +433680868994202e-33 0 .0026 0 0 1 1 0 0 .003
 16 149 71 151 ?152 153 145 146 0 0 1 31 150 57 0 153 146 154 0 +0 0 .001 0 0 -1
 -1 0 0 .0035 16 153 41 155 ?156 157 149 150 0 0 1 31 154 10 0 157 150 158 0 +0
 0 0 0 0 -1 -1 0 0 .0075 16 157 6 159 ?160 161 153 154 0 0 1 31 158 33 0 161 154
 162 0 +0 0 0 0 0 1 1 0 0 .0035 16 161 30 163 ?164 165 157 158 0 0 1 31 162 63 0
 165 158 166 0 +433680868994202e-33 0 .001 0 0 1 1 0 0 .003 16 165 60 167 ?168 3
2 161 162 0 0 1 31 166 119 0 145 162 169 0 -0 0 .0026 0 0 1 1 0 0 .0015 16 145 1
29 170 ?171 149 141 166 0 0 1 31 169 177 0 32 166 33 0 +0 0 .0126 0 0 1 1 0 0 .0
013601077025535 16 32 174 172 ?173 22 165 169 0 0 1 31 33 185 0 22 169 174 0 -0
 0 .0123 0 0 1 1 0 0 .0015 31 174 630 0 62 33 175 0 +0 0 -.02995 0 0 1 1 0 0 .00
2724 16 62 640 176 ?177 68 58 174 0 0 1 31 175 801 0 1 174 178 179 +0 0 -.0302 0
 0 1 1 0 0 .0064 133 178 805 0 68 175 18 0 +175 -.00624829444556758 -.0013852135
29203856 -.0302 -.00624829444556758 -.001385213529203856 -.0302 3.35975881008908
5 9.64294411726867 141 255 179 178 179 179 175 16 68 592 180 ?181 63 62 178 0 0
 1 31 18 810 0 1 178 6 182 +0 0 -.0302 0 0 -1 -1 0 0 .007 141 182 6 182 182 18 8
1 1 180 2923 24 68 0 0 183 176 184 17 181 0 185 181 181 0 186 68 0 0 +15 255 185
 2892 0 181 13 187 17 186 0 188 186 186 0 181 68 0 0 -15 188 605 0 186 189 0 14
 255 189 601 190 ?191 192 193 4 194 -0 0 191 192 19 81 1 190 3154 195 189 196 0
 197 198 199 14 191 3029 198 ?200 189 201 4 202 -0 0 200 189 19 14 192 593 197 ?
189 203 204 4 205 -206 206 189 203 19 15 193 604 0 66 189 188 51 255 194 608 0 1
89 205 207 0 +0 0 -.0302 0 0 1 .0064 1 0 0 13 19 4 0 0 0 0 0 0 7 13 14 13 15 208
 ?209 0 185 4 210 +0 0 209 0 19 81 1 208 3084 195 13 211 0 0 212 213 14 209 386
 212 ?214 13 215 4 216 +217 218 214 13 19 50 255 210 17 0 13 216 16 0 +0 0 -.030
2 0 0 -1 -1 0 0 50 216 11 0 218 219 210 0 +0 0 0 0 0 1 1 0 0 51 16 18 0 220 210
 5 0 +0 0 0 0 0 -1 .0075 -1 0 0 14 220 2 221 ?222 214 223 4 16 +0 0 222 214 19 8
1 1 221 3090 195 220 224 0 225 226 227 14 222 43 226 ?228 220 229 4 230 +0 0 228
 220 19 14 214 77 225 ?220 209 231 4 232 +0 0 220 209 19 15 223 690 0 233 220 23
4 17 233 0 223 233 233 0 57 54 0 0 -15 234 7 0 160 220 0 17 160 0 234 160 160 0
 235 157 0 0 +17 235 0 236 235 235 0 160 157 0 0 -15 236 8 0 235 209 237 15 237
 384 0 113 209 0 17 113 0 237 113 113 0 238 100 0 0 +17 238 0 239 238 238 0 113
 100 0 0 -15 239 410 0 238 240 0 14 240 406 241 ?242 217 243 4 244 +0 0 242 217
 19 81 1 241 3116 195 240 245 0 246 247 248 14 242 411 247 ?249 240 250 4 251 -0
 0 249 240 19 14 217 315 246 ?240 252 253 4 216 +218 209 240 252 19 15 243 409 0
 254 240 239 51 244 428 0 240 251 255 0 -0 -.0055 -1e-5 0 0 1 .0016 1 0 0 51 251
 429 0 242 256 244 0 -0 -.0055 -1e-5 0 0 1 .00155 1 0 0 50 255 366 0 257 244 258
 0 +0 .0055 -1e-5 0 0 1 1 0 0 14 257 351 259 ?260 261 262 4 255 +0 0 260 261 19
 51 258 364 0 261 255 263 0 +0 .0055 -1e-5 0 0 1 .00155 1 0 0 14 261 346 264 ?25
7 265 266 4 258 +0 0 257 265 19 51 263 363 0 265 258 267 0 +0 .0055 -1e-5 0 0 1
 .0016 1 0 0 14 265 341 268 ?261 15 269 4 263 -0 0 261 15 19 50 267 277 0 270 26
3 271 0 +2224492873652695e-38 -.0055 -.004 0 0 -1 1 -1224606353822376e-31 0 14 2
70 263 272 ?273 249 274 4 267 -0 0 273 249 19 51 271 275 0 273 267 275 0 +222449
2873652695e-38 -.0055 0 0 0 -1 8e-4 1 -1224606353822376e-31 0 14 273 269 276 ?21
8 270 277 4 271 -0 0 218 270 19 50 275 243 0 260 271 278 0 +-673555739531044e-33
 .0055 -.004 0 0 -1 -1 0 0 14 260 229 279 ?252 257 280 4 275 -0 0 252 257 19 51
 278 241 0 252 275 281 0 +-673555739531044e-33 .0055 0 0 0 -1 8e-4 -1 0 0 14 252
 235 282 ?217 260 283 4 278 -0 0 217 260 19 50 281 160 0 284 278 285 0 +0 0 .012
6 0 0 1 1 0 0 14 284 146 286 ?15 287 288 4 281 +0 0 15 287 19 51 285 158 0 287 2
81 232 0 -0 0 .0126 0 0 -1 .0015 -1 0 0 14 287 140 289 ?284 290 291 4 285 -0 0 2
84 290 19 50 232 91 0 214 285 292 0 +433680868994202e-33 0 .0026 0 0 1 1 0 0 51
 292 89 0 290 232 230 0 +433680868994202e-33 0 0 0 0 1 .003 1 0 0 14 290 83 293
 ?287 228 294 4 292 +0 0 287 228 19 50 230 55 0 222 292 219 0 +0 0 .001 0 0 1 1
 0 0 51 219 54 0 228 230 216 0 +0 0 0 0 0 1 .0035 1 0 0 14 228 48 295 ?290 222 2
96 4 219 +0 0 290 222 19 81 1 295 3094 195 228 297 0 226 293 298 15 296 50 0 156
 228 299 17 156 0 296 156 156 0 300 153 0 0 +15 299 51 0 164 228 0 17 164 0 299
 164 164 0 301 161 0 0 +17 301 0 302 301 301 0 164 161 0 0 -15 302 32 0 301 209
 236 17 300 0 303 300 300 0 156 153 0 0 -15 303 45 0 300 222 0 80 255 1 195 0 30
4 8001 0 0 0 0 3 5 0 0 0 FFFFTFTFFFFFFF2 81 1 297 3093 305 228 306 295 307 308 3
09 81 1 226 3092 195 222 307 0 221 295 310 81 1 293 3096 195 290 308 0 295 289 3
11 83 255 3 298 .6 .6 .6 81 1 308 3095 305 290 312 293 297 313 314 81 1 289 3098
 195 287 313 0 293 286 315 83 3 311 .6 .6 .6 81 1 313 3097 305 287 316 289 308 3
17 318 81 1 286 3100 195 284 317 0 289 319 320 83 3 315 .6 .6 .6 81 1 317 3099 3
05 284 321 286 313 322 323 81 1 319 3102 195 15 322 0 286 268 324 83 3 320 .6 .6
 .6 14 15 198 319 ?265 284 325 4 5 +0 0 265 284 19 81 1 322 3101 305 15 326 319
 317 327 328 81 1 268 3104 195 265 327 0 319 264 329 83 3 324 .6 .6 .6 81 1 327
 3103 305 265 330 268 322 331 332 81 1 264 3106 195 261 331 0 268 259 333 83 3 3
29 .6 .6 .6 81 1 331 3105 305 261 334 264 327 335 336 81 1 259 3108 195 257 335
 0 264 279 337 83 3 333 .6 .6 .6 81 1 335 3107 305 257 338 259 331 339 340 81 1
 279 3110 195 260 339 0 259 282 341 83 3 337 .6 .6 .6 81 1 339 3109 305 260 342
 279 335 343 344 81 1 282 3112 195 252 343 0 279 246 345 83 3 341 .6 .6 .6 81 1
 343 3111 305 252 346 282 339 347 348 81 1 246 3114 195 217 347 0 282 241 349 83
 3 345 .6 .6 .6 81 1 347 3113 305 217 350 246 343 245 351 83 3 349 .6 .6 .6 80 1
 305 352 353 8015 0 0 0 0 3 5 0 0 0 FFFFTFFFFFFFFF2 81 1 350 2963 24 217 0 347 3
54 355 356 81 1 245 3115 305 240 355 241 347 357 358 83 1 351 0 81 1 355 2964 24
 240 0 245 350 330 359 81 1 357 3117 305 242 360 247 245 361 362 83 1 358 0 81 1
 360 2969 24 242 0 357 363 334 364 81 1 247 3118 195 242 357 0 241 365 366 81 1
 361 3119 305 249 367 365 357 368 369 83 1 362 0 14 249 416 365 ?270 242 370 4 2
56 -0 0 270 242 19 81 1 367 2966 24 249 0 361 330 338 371 81 1 365 3120 195 249
 361 0 247 272 372 81 1 368 3121 305 270 373 272 361 374 375 83 1 369 0 81 1 373
 2945 24 270 0 368 346 376 377 81 1 272 3122 195 270 368 0 365 276 378 81 1 374
 3123 305 273 376 276 368 379 380 83 1 375 0 81 1 376 2946 24 273 0 374 373 381
 382 81 1 276 3124 195 273 374 0 272 383 384 81 1 379 3125 305 218 363 383 374 3
85 386 83 1 380 0 14 218 9 383 ?387 273 388 4 216 +209 217 387 273 19 81 1 363 2
968 24 218 0 379 338 360 389 81 1 383 3126 195 218 379 0 276 390 391 81 1 385 31
27 305 387 392 390 379 393 394 83 1 386 0 14 387 497 390 ?395 218 396 4 397 -0 0
 395 218 19 81 1 392 2951 24 387 0 385 398 399 400 81 1 390 3128 195 387 385 0 3
83 401 402 81 1 393 3129 305 395 399 401 385 403 404 83 1 394 0 14 395 500 401 ?
405 387 406 4 407 -0 0 405 387 19 81 1 399 2952 24 395 0 393 392 408 409 81 1 40
1 3130 195 395 393 0 390 410 411 81 1 403 3131 305 405 408 410 393 412 413 83 1
 404 0 14 405 504 410 ?414 395 415 4 416 -0 0 414 395 19 81 1 408 2953 24 405 0
 403 399 417 418 81 1 410 3132 195 405 403 0 401 419 420 81 1 412 3133 305 414 4
17 419 403 421 422 83 1 413 0 14 414 508 419 ?423 405 424 4 425 -0 0 423 405 19
 81 1 417 2954 24 414 0 412 408 426 427 81 1 419 3134 195 414 412 0 410 428 429
 81 1 421 3135 305 423 430 428 412 431 432 83 1 422 0 14 423 547 428 ?433 414 43
4 4 207 -0 0 433 414 19 81 1 430 2956 24 423 0 421 426 435 436 81 1 428 3136 195
 423 421 0 419 437 438 81 1 431 3137 305 433 439 437 421 440 441 83 1 432 0 14 4
33 550 437 ?442 423 443 4 444 -0 0 442 423 19 81 1 439 2958 24 433 0 431 435 445
 446 81 1 437 3138 195 433 431 0 428 447 448 81 1 440 3139 305 442 435 447 431 4
49 450 83 1 441 0 14 442 554 447 ?451 433 452 4 453 -0 0 451 433 19 81 1 435 295
7 24 442 0 440 430 439 454 81 1 447 3140 195 442 440 0 437 455 456 81 1 449 3141
 305 451 426 455 440 457 458 83 1 450 0 14 451 558 455 ?459 442 460 4 461 -0 0 4
59 442 19 81 1 426 2955 24 451 0 449 417 430 462 81 1 455 3142 195 451 449 0 447
 463 464 81 1 457 3143 305 459 465 463 449 466 467 83 1 458 0 14 459 731 463 ?46
8 451 469 4 470 -0 0 468 451 19 81 1 465 2961 24 459 0 457 471 354 472 81 1 463
 3144 195 459 457 0 455 473 474 81 1 466 3145 305 468 445 473 457 475 476 83 1 4
67 0 14 468 736 473 ?477 459 478 4 479 -0 0 477 459 19 81 1 445 2959 24 468 0 46
6 439 471 480 81 1 473 3146 195 468 466 0 463 481 482 81 1 475 3147 305 477 354
 481 466 483 484 83 1 476 0 14 477 741 481 ?203 468 485 4 486 -0 0 203 468 19 81
 1 354 2962 24 477 0 475 465 350 487 81 1 481 3148 195 477 475 0 473 488 489 81
 1 483 3149 305 203 471 488 475 490 491 83 1 484 0 14 203 746 488 ?192 477 492 4
 493 -0 0 192 477 19 81 1 471 2960 24 203 0 483 445 465 494 81 1 488 3150 195 20
3 483 0 481 197 495 81 1 490 3151 305 192 496 197 483 196 497 83 1 491 0 81 1 49
6 3078 24 192 0 490 26 498 499 81 1 197 3152 195 192 490 0 488 190 500 81 1 196
 3153 305 189 381 190 490 501 502 83 1 497 0 81 1 381 2948 24 189 0 196 376 503
 504 81 1 501 3155 305 191 498 198 196 505 506 83 1 502 0 81 1 498 3079 24 191 0
 501 496 507 508 81 1 198 3156 195 191 501 0 190 509 510 81 1 505 3157 305 200 5
07 509 501 511 512 83 1 506 0 14 200 3034 509 ?513 191 514 4 515 +0 0 513 191 19
 81 1 507 3080 24 200 0 505 498 516 517 81 1 509 3158 195 200 505 0 198 518 519
 81 1 511 3159 305 513 516 518 505 520 521 83 1 512 0 14 513 3039 518 ?522 200 5
23 4 524 +0 0 522 200 19 81 1 516 3081 24 513 0 511 507 525 526 81 1 518 3160 19
5 513 511 0 509 527 528 81 1 520 3161 305 522 503 527 511 529 530 83 1 521 0 14
 522 648 527 ?531 513 532 4 533 -0 0 531 513 19 81 1 503 2949 24 522 0 520 381 3
98 534 81 1 527 3162 195 522 520 0 518 535 536 81 1 529 3163 305 531 398 535 520
 537 538 83 1 530 0 14 531 656 535 ?206 522 539 4 540 -0 0 206 522 19 81 1 398 2
950 24 531 0 529 503 392 541 81 1 535 3164 195 531 529 0 527 542 543 81 1 537 31
65 305 206 525 542 529 0 544 83 1 538 0 14 206 2993 542 ?0 531 545 4 205 -192 19
2 0 531 19 81 1 525 3082 24 206 0 537 516 0 546 81 1 542 3166 195 206 537 0 535
 0 547 83 1 544 0 83 3 547 .6 .6 .6 80 1 24 548 549 9000 1 1 1 1 1 1 1 1 0 FFFFT
FTFFFFFFF3 84 255 32 546 ebdce07ca47ee080c02d544064892d1279 255 15 549 UGS/Objec
tState15 545 628 0 177 206 550 50 205 610 0 192 540 194 0 +0 0 -.02995 0 0 1 1 0
 0 51 540 663 0 531 533 205 0 +0 0 -.0302 0 0 1 .002724 1 0 0 50 533 665 0 522 4
70 540 0 +0 0 -.0255 0 0 1 1 0 0 50 470 759 0 459 479 533 0 +.0075 0 -.0225 0 0
 1 1 0 0 51 479 760 0 468 486 470 0 -0 0 0 0 0 -1 .00685 -1 0 0 52 486 761 0 477
 493 479 0 -0 0 -.0237 0 0 -1 .00685 .5 .866025403784442 -1 0 0 51 493 762 0 203
 202 486 0 -0 0 0 0 0 -1 .007 -1 0 0 51 202 3049 0 191 515 493 0 -0 0 -.03015 0
 0 1 .006 1 0 0 51 515 3050 0 200 524 202 0 -0 0 -.03015 0 0 1 .002824 1 0 0 50
 524 3052 0 513 0 515 0 +0 0 -.03015 0 0 -1 -1 0 0 17 177 0 545 177 177 0 551 62
 0 0 +15 550 2991 0 40 206 0 17 40 0 550 40 40 0 552 38 0 0 +17 552 0 553 552 55
2 0 40 38 0 0 -15 553 3038 0 552 200 0 17 551 0 554 551 551 0 177 62 0 0 -15 554
 647 0 551 531 0 83 3 543 .6 .6 .6 84 32 541 a8d59070afef6ad50a9a139165619e6015
 539 646 0 61 531 554 17 61 0 539 61 61 0 555 58 0 0 +17 555 0 532 555 555 0 61
 58 0 0 -15 532 651 0 555 522 0 83 3 536 .6 .6 .6 84 32 534 7c52cbd5d69a451df6ad
7a716ac985db83 3 528 .6 .6 .6 84 32 526 6b69faea574ee3e52ad03bf1306518fa15 523 3
042 0 556 513 557 17 556 0 523 556 556 0 558 41 0 0 +15 557 3043 0 559 513 0 17
 559 0 557 559 559 0 560 36 0 0 -17 560 0 514 560 560 0 559 36 0 0 +16 36 3021 2
5 ?560 17 41 34 0 0 1 81 1 25 3075 24 36 0 0 561 20 562 16 17 718 183 ?563 42 36
 6 0 0 1 16 41 3023 561 ?556 36 38 37 0 0 1 81 1 561 3074 24 41 0 0 334 25 564 3
1 37 3056 0 41 0 34 0 +0 0 -.03015 0 0 -1 1 1224646799147352e-31 0 .006 81 1 334
 2970 24 261 0 331 360 561 565 84 32 564 44353bf20453ab2d546280b0aaf74b0884 32 5
65 76adb5891e07a7e972919f852295a47781 1 183 2922 24 17 0 0 48 180 566 17 563 0 1
87 563 563 0 567 17 0 0 +15 187 1572 0 563 13 0 17 567 0 492 567 567 0 563 17 0
 0 -15 492 749 0 567 203 568 15 568 750 0 45 203 0 17 45 0 568 45 45 0 569 42 0
 0 +17 569 0 485 569 569 0 45 42 0 0 -15 485 744 0 569 477 570 15 570 745 0 49 4
77 0 17 49 0 570 49 49 0 571 46 0 0 +17 571 0 478 571 571 0 49 46 0 0 -15 478 73
9 0 571 468 572 15 572 740 0 53 468 0 17 53 0 572 53 53 0 573 50 0 0 +17 573 0 4
69 573 573 0 53 50 0 0 -15 469 734 0 573 459 574 15 574 735 0 57 459 0 17 57 0 5
74 57 57 0 233 54 0 0 +81 1 48 2921 24 46 0 0 56 183 575 84 32 566 7e9cc598f36c3
ea217a4624ac5e7cad681 1 56 2920 24 54 0 0 44 48 576 84 32 575 1e54d29ac3f7b46eb2
2e77b54eb6ef9f81 1 44 2919 24 42 0 0 52 56 577 84 32 576 b8f5e52aab7878c63c5350d
7e2bb3f1181 1 52 2918 24 50 0 0 70 44 578 84 32 577 614b97eaa4921f54bb0bbe2b9c03
169481 1 70 2917 24 67 0 0 82 52 579 84 32 578 ba95ac5c89bae0d60cc0baca2e97b4ae8
1 1 82 2916 24 80 0 0 78 70 580 84 32 579 2106ed0bb29eec61671e8724bc21df2381 1 7
8 2915 24 76 0 0 74 82 581 84 32 580 4a24c7e60fe786b6720d7dc4ee66fc8681 1 74 291
4 24 72 0 0 86 78 582 84 32 581 1bcc40f8ab8baa0e2937486a9d87159981 1 86 2913 24
 84 0 0 90 74 583 84 32 582 a9645951fb74b9a78c7326d5660d2da081 1 90 2912 24 88 0
 0 94 86 584 84 32 583 2773153653625398b3cbdbe8dc25d24181 1 94 2911 24 92 0 0 98
 90 585 84 32 584 07d67829cdbcc2537946571c3955a10281 1 98 2910 24 96 0 0 60 94 5
86 84 32 585 ba8ace001cfcdb3e717397643688a25381 1 60 2909 24 58 0 0 65 98 587 84
 32 586 0b855367d7c24a75f8c4b49e3540725281 1 65 2908 24 63 0 0 135 60 588 84 32
 587 87c457640951381a0bdb0f594b2fe1d981 1 135 2907 24 133 0 0 139 65 589 84 32 5
88 8f2de5c8832f8f5fdf572080a6133c1381 1 139 2906 24 126 0 0 147 135 590 84 32 58
9 1ff99dad29a8f4820929ed20757fbf0381 1 147 2905 24 137 0 0 143 139 591 84 32 590
 17a96111d2af75d0abe4541a4bf643d481 1 143 2904 24 141 0 0 172 147 592 84 32 591
 f4cadde7b59df7dce620bd3a2598710481 1 172 2903 24 32 0 0 30 143 593 84 32 592 3a
585f1f7013efab826d64f89feaa9d381 1 30 2902 24 22 0 0 170 172 594 84 32 593 83db2
19fc2f2820c9297e002be91229981 1 170 2901 24 145 0 0 167 30 595 84 32 594 2a1782e
9d03004cebf86d781a112cc8281 1 167 2900 24 165 0 0 151 170 596 84 32 595 aba21858
86bc9259e57d4fd427bbf09181 1 151 2899 24 149 0 0 163 167 597 84 32 596 0ddcaa2d2
b9301bab7a9ee234f7712c681 1 163 2898 24 161 0 0 159 151 598 84 32 597 b54199a711
ff8857506f4b80c5e5e88181 1 159 2897 24 157 0 0 155 163 599 84 32 598 a39ccd17ca2
1eefffd8373981a9c8cb881 1 155 2896 24 153 0 0 0 159 600 84 32 599 1823eff5518ba8
5ad4c507a993983d8684 32 600 063940745cf9d47eac9c6dd1f5491c8a84 32 562 fa2367e939
5e137d3af8dc44af74115615 514 3037 0 560 200 553 17 558 0 201 558 558 0 556 41 0
 0 -15 201 3032 0 558 191 28 15 28 3033 0 21 191 0 83 3 519 .6 .6 .6 84 32 517 9
fcd79d125385cdeaa8f6b109f7ab81583 3 510 .6 .6 .6 84 32 508 a5f76da4dfe89c191f3e0
0ee97e3beda84 32 504 008c68404c1ea4cab07ad7e6609e697d83 3 500 .6 .6 .6 81 1 26 3
077 24 38 0 0 20 496 601 84 32 499 8f1e8efdb56ea321998f4fed10dc428a84 32 601 4a8
348d6a416cd0bff2a7b0a3f0621b783 3 495 .6 .6 .6 84 32 494 ece1534476c4f417e189d3b
81cb2635e83 3 489 .6 .6 .6 84 32 487 1b82c14da4cc595e985579d67c5c1d0183 3 482 .6
 .6 .6 84 32 480 f92281ec954edde67e5f9fb00785c03683 3 474 .6 .6 .6 84 32 472 325
d1f908e7d9a4720ddbb4c10e7a81383 3 464 .6 .6 .6 84 32 462 5f7177f97ca86ee73deee60
e1e5fb37815 460 560 0 75 451 602 51 461 564 0 451 453 397 0 +.0055 -156173415923
117e-32 0 0 0 -1 9e-4 1 -1224646799147352e-31 0 50 453 565 0 442 444 461 0 +.005
5 -156173415923117e-32 -6e-4 0 0 -1 1 -1224646799147352e-31 0 50 397 517 0 387 4
61 407 0 +-.0055 888178419700125e-33 -.004 0 0 -1 -1 0 0 51 407 516 0 395 397 41
6 0 +-.0055 888178419700125e-33 -.004 0 0 -1 74e-5 -1 0 0 50 416 515 0 405 407 4
25 0 +-.0055 888178419700125e-33 -6e-4 0 0 -1 -1 0 0 51 425 514 0 414 416 256 0
 +-.0055 888178419700125e-33 0 0 0 -1 9e-4 -1 0 0 50 256 431 0 249 425 251 0 +0
 -.0055 -1e-5 0 0 -1 -1 0 0 51 444 566 0 433 207 453 0 +.0055 -156173415923117e-
32 -.004 0 0 -1 74e-5 1 -1224646799147352e-31 0 50 207 567 0 423 194 444 0 +.005
5 -156173415923117e-32 -.004 0 0 -1 1 -1224646799147352e-31 0 17 75 0 460 75 75
 0 603 72 0 0 +15 602 561 0 604 451 0 17 604 0 602 604 604 0 71 67 0 0 -17 71 0
 215 71 71 0 604 67 0 0 +15 215 530 0 71 209 605 15 605 480 0 87 209 606 17 87 0
 605 87 87 0 607 84 0 0 +15 606 320 0 608 209 302 17 608 0 606 608 608 0 129 110
 0 0 -17 129 0 609 129 129 0 608 110 0 0 +15 609 345 0 129 265 0 17 607 0 610 60
7 607 0 87 84 0 0 -15 610 511 0 607 414 0 17 603 0 611 603 603 0 75 72 0 0 -15 6
11 557 0 603 442 0 83 3 456 .6 .6 .6 84 32 454 f96fe2975762f273506c4b398264dd921
5 452 556 0 79 442 611 17 79 0 452 79 79 0 612 76 0 0 +17 612 0 613 612 612 0 79
 76 0 0 -15 613 553 0 612 433 0 83 3 448 .6 .6 .6 84 32 446 44e4b91ea260a2d1dbef
d1128d390fd815 443 552 0 83 433 613 17 83 0 443 83 83 0 614 80 0 0 +17 614 0 434
 614 614 0 83 80 0 0 -15 434 549 0 614 423 0 83 3 438 .6 .6 .6 84 32 436 5e6771a
a0eafae6c8d5ffa10032c640b83 3 429 .6 .6 .6 84 32 427 7f2074a062e0ae0707d8397f4d5
e96cc15 424 510 0 91 414 610 17 91 0 424 91 91 0 615 88 0 0 +17 615 0 616 615 61
5 0 91 88 0 0 -15 616 507 0 615 405 0 83 3 420 .6 .6 .6 84 32 418 fe9a9c72bfc867
8a2d4983e2099e7a1015 415 506 0 95 405 616 17 95 0 415 95 95 0 617 92 0 0 +17 617
 0 618 617 617 0 95 92 0 0 -15 618 503 0 617 395 0 83 3 411 .6 .6 .6 84 32 409 8
efd42c11591c58ff7a8f88d7437967e15 406 502 0 99 395 618 17 99 0 406 99 99 0 619 9
6 0 0 +17 619 0 396 619 619 0 99 96 0 0 -15 396 499 0 619 387 0 83 3 402 .6 .6 .
6 84 32 400 4329b3391ff6c118f86848617047878a83 3 391 .6 .6 .6 81 1 338 2967 24 2
57 0 335 367 363 620 84 32 389 7fdec625e304f99f50a873bf26707f6784 32 620 f0148ed
641ad476b145c0d059833f83e15 388 379 0 621 218 622 17 621 0 388 621 621 0 116 106
 0 0 -15 622 253 0 140 218 0 17 140 0 622 140 140 0 623 126 0 0 +17 623 0 624 62
3 623 0 140 126 0 0 -15 624 272 0 623 273 0 17 116 0 625 116 116 0 621 106 0 0 +
15 625 415 0 116 242 0 83 3 384 .6 .6 .6 84 32 382 7a3e02831cf0a81bcb5764e8c6d4f
ff483 3 378 .6 .6 .6 81 1 346 2944 24 252 0 343 342 373 626 84 32 377 8064f7f57b
2b08c8a8e88a6618d64ca981 1 342 2943 24 260 0 339 326 346 627 84 32 626 ae4cb8e9a
2f83d0e3f3ad9cae238ba1f81 1 326 2942 24 15 0 322 321 342 628 84 32 627 f37cf9dc0
850faf609299fa00364a0d081 1 321 2941 24 284 0 317 316 326 629 84 32 628 a67acce4
7148d80c438a7a4fb3b782c481 1 316 2940 24 287 0 313 630 321 631 84 32 629 a2a465b
a10c5ea8156173394e844047d81 1 630 2939 24 214 0 632 312 316 633 84 32 631 e54f71
ac93535bbd929f1be86b5d9cb181 1 632 3087 305 214 630 225 634 224 635 81 1 312 293
8 24 290 0 308 636 630 637 84 32 633 3bb2e0f9e1828d2fe7a1cfa26da8f79881 1 636 29
37 24 13 0 211 638 312 639 84 32 637 4e726ca07c9317fe4b959f23d37d8b4f81 1 211 30
83 305 13 636 208 0 634 640 81 1 638 2936 24 220 0 224 641 636 642 84 32 639 0e0
6129a73dc3905970d94eeb163dc1181 1 224 3089 305 220 638 221 632 307 643 81 1 641
 2935 24 209 0 634 644 638 645 84 32 642 69a990319fc30bb6e2d4fc82759821a881 1 63
4 3085 305 209 641 212 211 632 646 81 1 644 2934 24 222 0 307 306 641 647 84 32
 645 92957277bf3108eef03bbb7e2b54216d81 1 307 3091 305 222 644 226 224 297 648 8
1 1 306 2933 24 228 0 297 124 644 649 84 32 647 00266665a37b955ed213137f013c239a
81 1 124 2932 24 121 0 0 108 306 650 84 32 649 cd9ca3b2cb09c9e96ac1b62ad1f07db38
1 1 108 2931 24 105 0 0 128 124 651 84 32 650 fbb526e65f1278e5fde0457b5dfa448781
 1 128 2930 24 110 0 0 112 108 652 84 32 651 a879ae08cc64d6fc365826152d7d5ace81
 1 112 2929 24 100 0 0 119 128 653 84 32 652 ccadf714e9ce7b5bddd96a073224b83581
 1 119 2928 24 117 0 0 103 112 654 84 32 653 1e447cdd8ee13b3ca7863d883aed5e7981
 1 103 2927 24 101 0 0 131 119 655 84 32 654 9b5557c63ebc1037fffe5e7c451b6bb481
 1 131 2926 24 122 0 0 115 103 656 84 32 655 a6687a0a9d54d2b6d61cb947fc60584d81
 1 115 2925 24 106 0 0 176 131 657 84 32 656 bd0e284b92ace76e15148ab6a693b65b81
 1 176 2924 24 62 0 0 180 115 658 84 32 657 6bde0ffe1c66c4f952c330ef9770b99f84 3
2 658 689384530087e39aa2a2e78a53dea97683 1 648 0 81 1 212 3086 195 209 634 0 208
 225 659 83 1 646 0 81 1 225 3088 195 214 632 0 212 221 660 83 3 659 .6 .6 .6 83
 3 660 .6 .6 .6 83 1 643 0 83 1 640 0 83 1 635 0 83 3 372 .6 .6 .6 81 1 330 2965
 24 265 0 327 355 367 661 84 32 371 9478567719fe1b71a0566634475939a584 32 661 71
5183e992423f44e078ab20a959f1de15 370 419 0 104 249 662 17 104 0 370 104 104 0 25
4 101 0 0 +15 662 420 0 663 249 0 17 663 0 662 663 663 0 109 105 0 0 -17 109 0 2
50 109 109 0 663 105 0 0 +15 250 414 0 109 242 625 17 254 0 243 254 254 0 104 10
1 0 0 -83 3 366 .6 .6 .6 84 32 364 5fd5260f4774de09eea58aadaeea57d784 32 359 521
5832cfeebe62cd28209646ad7314384 32 356 ef5907878cc91f4edc5da18cc32046a079 21 353
 SDL/TYSA_TRANSLUCENCY83 1 348 0 83 1 344 0 83 1 340 0 83 1 336 0 83 1 332 0 83
 1 328 0 15 325 199 0 664 15 665 17 664 0 325 664 664 0 31 22 0 0 -15 665 200 0
 666 15 0 17 666 0 665 666 666 0 173 32 0 0 -17 173 0 288 173 173 0 666 32 0 0 +
15 288 175 0 173 284 0 17 31 0 291 31 31 0 664 22 0 0 +15 291 183 0 31 287 667 1
5 667 144 0 668 287 0 17 668 0 667 668 668 0 171 145 0 0 -17 171 0 669 171 171 0
 668 145 0 0 +15 669 117 0 171 214 0 83 1 323 0 83 1 318 0 83 1 314 0 83 3 310 .
6 .6 .6 83 1 309 0 79 15 304 SDL/TYSA_COLOUR15 294 85 0 168 290 670 17 168 0 294
 168 168 0 671 165 0 0 +15 670 86 0 672 290 0 17 672 0 670 672 672 0 152 149 0 0
 -17 152 0 231 152 152 0 672 149 0 0 +15 231 79 0 152 214 669 17 671 0 229 671 6
71 0 168 165 0 0 -15 229 62 0 671 222 303 15 283 237 0 144 252 673 17 144 0 283
 144 144 0 674 141 0 0 +15 673 238 0 675 252 0 17 675 0 673 675 675 0 148 137 0
 0 -17 148 0 253 148 148 0 675 137 0 0 +15 253 219 0 148 217 676 15 676 313 0 13
2 217 0 17 132 0 676 132 132 0 677 122 0 0 +17 677 0 678 677 677 0 132 122 0 0 -
15 678 350 0 677 261 0 17 674 0 280 674 674 0 144 141 0 0 -15 280 231 0 674 260
 0 15 277 271 0 136 273 624 17 136 0 277 136 136 0 679 133 0 0 +17 679 0 274 679
 679 0 136 133 0 0 -15 274 265 0 679 270 0 15 269 344 0 120 265 609 17 120 0 269
 120 120 0 680 117 0 0 +17 680 0 262 680 680 0 120 117 0 0 -15 262 354 0 680 257
 681 15 681 355 0 125 257 0 17 125 0 681 125 125 0 682 121 0 0 +17 682 0 266 682
 682 0 125 121 0 0 -15 266 349 0 682 261 678 83 3 248 .6 .6 .6 83 3 227 .6 .6 .6
 83 3 213 .6 .6 .6 17 66 0 193 66 66 0 683 63 0 0 +17 683 0 684 683 683 0 66 63
 0 0 -15 684 596 0 683 192 0 15 204 3000 0 29 192 684 17 29 0 204 29 29 0 21 8 0
 0 -83 3 199 .6 .6 .6 84 32 184 d68a3260879c56d8e865179026f8e4b384 32 27 d2ac5b0
5755ba421025cbed66d6f2b4619 14 5 0 1 0 7 4 S0 74 4 CI16 index_map_offset0 0 1 dC
CZ20 12 5 0 0 525 10 537 542 2 0 0 0 0 0 0 0 0 0 0 0 0 0 0 0 81 2 10 3073 685 1
 0 2 0 0 686 687 80 2 685 688 689 8004 0 0 0 0 3 5 0 0 0 FFTFFFFFFFFFFF2 3 83 1
 686 .001 84 8 687 Kg/Cu M 79 16 689 SDL/TYSA_DENSITY80 1 9 690 691 9000 0 0 0 0
 3 5 0 0 0 FFTFFFFFFFFFFF1 82 255 1 11 87 79 24 691 UG2/BODY_COLOR_ATTRIBUTE1 0
 
